<?xml version="1.0" encoding="UTF-8" standalone="no"?>
<svg
   xmlns:dc="http://purl.org/dc/elements/1.1/"
   xmlns:cc="http://creativecommons.org/ns#"
   xmlns:rdf="http://www.w3.org/1999/02/22-rdf-syntax-ns#"
   xmlns:svg="http://www.w3.org/2000/svg"
   xmlns="http://www.w3.org/2000/svg"
   xmlns:sodipodi="http://sodipodi.sourceforge.net/DTD/sodipodi-0.dtd"
   xmlns:inkscape="http://www.inkscape.org/namespaces/inkscape"
   version="1.1"
   id="svg2"
   xml:space="preserve"
   width="1000"
   height="666.66669"
   viewBox="0 0 1000 666.66669"
   sodipodi:docname="3339152.ai"><metadata
     id="metadata8"><rdf:RDF><cc:Work
         rdf:about=""><dc:format>image/svg+xml</dc:format><dc:type
           rdf:resource="http://purl.org/dc/dcmitype/StillImage" /></cc:Work></rdf:RDF></metadata><defs
     id="defs6"><clipPath
       clipPathUnits="userSpaceOnUse"
       id="clipPath18"><path
         d="M 0,500 H 750 V 0 H 0 Z"
         id="path16" /></clipPath><clipPath
       clipPathUnits="userSpaceOnUse"
       id="clipPath110"><path
         d="M 0,500 H 750 V 0 H 0 Z"
         id="path108" /></clipPath><clipPath
       clipPathUnits="userSpaceOnUse"
       id="clipPath126"><path
         d="M 0,500 H 750 V 0 H 0 Z"
         id="path124" /></clipPath><clipPath
       clipPathUnits="userSpaceOnUse"
       id="clipPath138"><path
         d="M 0,500 H 750 V 0 H 0 Z"
         id="path136" /></clipPath><clipPath
       clipPathUnits="userSpaceOnUse"
       id="clipPath234"><path
         d="M 0,500 H 750 V 0 H 0 Z"
         id="path232" /></clipPath><clipPath
       clipPathUnits="userSpaceOnUse"
       id="clipPath242"><path
         d="M 122.251,190.882 H 677.068 V 109.474 H 122.251 Z"
         id="path240" /></clipPath><clipPath
       clipPathUnits="userSpaceOnUse"
       id="clipPath300"><path
         d="M 95.5663,147.341 H 111.313 V 122.938 H 95.5663 Z"
         id="path298" /></clipPath><clipPath
       clipPathUnits="userSpaceOnUse"
       id="clipPath436"><path
         d="M 0,500 H 750 V 0 H 0 Z"
         id="path434" /></clipPath><clipPath
       clipPathUnits="userSpaceOnUse"
       id="clipPath448"><path
         d="m 136.345,293.638 h 29.622 v -42.425 h -29.622 z"
         id="path446" /></clipPath><clipPath
       clipPathUnits="userSpaceOnUse"
       id="clipPath532"><path
         d="m 79.851,133.071 h 14.6831 v -3.279 H 79.851 Z"
         id="path530" /></clipPath><clipPath
       clipPathUnits="userSpaceOnUse"
       id="clipPath680"><path
         d="M 0,500 H 750 V 0 H 0 Z"
         id="path678" /></clipPath></defs><sodipodi:namedview
     pagecolor="#ffffff"
     bordercolor="#666666"
     borderopacity="1"
     objecttolerance="10"
     gridtolerance="10"
     guidetolerance="10"
     inkscape:pageopacity="0"
     inkscape:pageshadow="2"
     inkscape:window-width="640"
     inkscape:window-height="480"
     id="namedview4" /><g
     id="g10"
     inkscape:groupmode="layer"
     inkscape:label="3339152"
     transform="matrix(1.3333333,0,0,-1.3333333,0,666.66667)"><g
       id="g12"><g
         id="g14"
         clip-path="url(#clipPath18)"><g
           id="g20"
           transform="translate(686.4635,321.3259)"><path
             d="m 0,0 c 2.54,-2.612 3.64,-6.405 3.478,-10.045 -0.163,-3.64 -1.484,-7.146 -3.24,-10.339 -3.397,-6.178 -9.766,-11.205 -15.858,-14.753 -3.499,7.004 -1.341,15.826 0.035,20.233 C -13.409,-7.938 -5.249,3.329 0,0"
             style="fill:#ebebeb;fill-opacity:1;fill-rule:nonzero;stroke:none"
             id="path22" /></g><g
           id="g24"
           transform="translate(672.7906,272.8889)"><path
             d="M 0,0 C 0.632,4.021 3.806,7.412 7.646,8.761 11.486,10.11 15.85,9.556 19.485,7.726 21.166,6.88 22.834,5.603 23.24,3.765 23.62,2.047 22.75,0.226 21.403,-0.907 20.057,-2.039 18.309,-2.581 16.575,-2.879 10.628,-3.903 4.686,-3.801 0,0"
             style="fill:#ebebeb;fill-opacity:1;fill-rule:nonzero;stroke:none"
             id="path26" /></g><g
           id="g28"
           transform="translate(657.6285,255.8976)"><path
             d="m 0,0 c -0.03,0.021 0.239,0.463 0.741,1.25 0.556,0.866 1.275,1.984 2.138,3.327 1.839,2.758 4.384,6.748 8.438,9.968 4.019,3.224 8.508,4.969 11.852,5.376 1.67,0.226 3.042,0.206 3.975,0.106 0.468,-0.031 0.827,-0.116 1.07,-0.152 0.242,-0.045 0.368,-0.077 0.366,-0.094 -0.005,-0.122 -2.076,0.323 -5.356,-0.217 C 19.956,19.073 15.588,17.314 11.636,14.146 7.662,10.993 5.094,7.084 3.179,4.375 2.229,3.003 1.459,1.892 0.905,1.138 0.353,0.384 0.027,-0.02 0,0"
             style="fill:#e0e0e0;fill-opacity:1;fill-rule:nonzero;stroke:none"
             id="path30" /></g><g
           id="g32"
           transform="translate(681.0065,312.1965)"><path
             d="m 0,0 c 0.017,-0.006 -0.043,-0.215 -0.172,-0.608 -0.151,-0.442 -0.347,-1.009 -0.587,-1.711 -0.518,-1.483 -1.297,-3.618 -2.28,-6.248 -1.966,-5.261 -4.783,-12.491 -8.073,-20.403 -3.294,-7.914 -6.438,-15.009 -8.784,-20.112 -1.172,-2.551 -2.138,-4.608 -2.824,-6.021 -0.328,-0.665 -0.593,-1.203 -0.8,-1.622 -0.187,-0.368 -0.293,-0.558 -0.31,-0.55 -0.016,0.007 0.059,0.211 0.217,0.593 0.184,0.43 0.42,0.981 0.712,1.662 0.658,1.496 1.565,3.561 2.675,6.086 2.261,5.138 5.35,12.251 8.642,20.161 3.288,7.906 6.157,15.11 8.208,20.335 1.009,2.569 1.833,4.667 2.431,6.188 0.277,0.688 0.502,1.245 0.676,1.678 C -0.108,-0.191 -0.016,0.006 0,0"
             style="fill:#e0e0e0;fill-opacity:1;fill-rule:nonzero;stroke:none"
             id="path34" /></g><g
           id="g36"
           transform="translate(661.7291,272.8239)"><path
             d="m 0,0 c 1.98,8.35 -0.39,17.608 -6.139,23.979 -1.464,1.623 -3.61,3.172 -5.666,2.432 -2.059,-0.742 -2.725,-3.318 -2.766,-5.506 -0.171,-9.106 5.759,-18.022 14.223,-21.384"
             style="fill:#ebebeb;fill-opacity:1;fill-rule:nonzero;stroke:none"
             id="path38" /></g><g
           id="g40"
           transform="translate(653.9489,290.2946)"><path
             d="m 0,0 c 0.026,0.023 0.362,-0.326 0.95,-0.981 0.297,-0.325 0.657,-0.726 1.022,-1.235 0.364,-0.507 0.834,-1.05 1.236,-1.729 0.423,-0.665 0.903,-1.385 1.316,-2.217 0.461,-0.807 0.858,-1.716 1.271,-2.676 0.774,-1.937 1.448,-4.147 1.818,-6.534 0.348,-2.391 0.362,-4.703 0.18,-6.783 C 7.67,-23.193 7.557,-24.179 7.339,-25.083 7.178,-26 6.919,-26.826 6.694,-27.582 6.497,-28.346 6.191,-28.996 5.978,-29.583 5.767,-30.173 5.525,-30.655 5.325,-31.047 4.932,-31.835 4.7,-32.261 4.669,-32.245 c -0.106,0.048 0.819,1.77 1.679,4.766 0.199,0.753 0.435,1.572 0.575,2.478 0.197,0.894 0.292,1.867 0.401,2.888 0.153,2.048 0.125,4.316 -0.216,6.664 -0.364,2.345 -1.011,4.519 -1.75,6.435 -0.394,0.95 -0.77,1.852 -1.21,2.656 -0.39,0.829 -0.846,1.549 -1.245,2.219 C 1.25,-1.496 -0.085,-0.072 0,0"
             style="fill:#e0e0e0;fill-opacity:1;fill-rule:nonzero;stroke:none"
             id="path42" /></g><g
           id="g44"
           transform="translate(65.0607,383.6574)"><path
             d="m 0,0 c 0,0 -9.202,-2.967 -0.278,-22.693 8.923,-19.727 15.284,-29.584 15.284,-29.584 0,0 1.533,-4.555 -2.264,-5.072 -3.797,-0.518 -12.025,1.194 -13.918,-3.335 -1.965,-4.695 1.294,-9.366 8.145,-13.65 6.85,-4.285 21.515,-14.223 22.838,-15.126 1.298,-0.887 2.542,-3.032 0.011,-3.799 -2.53,-0.767 -21.267,-1.837 -20.227,-10.698 1.039,-8.86 22.086,-17.66 24.368,-18.666 2.282,-1.006 2.792,-2.018 2.542,-3.285 -0.249,-1.267 -6.581,-1.033 -11.897,-1.555 -5.317,-0.523 -11.391,-2.061 -10.362,-7.123 1.028,-5.061 13.217,-16.167 43.874,-20.633 l 14.341,-1.14 8.386,11.767 c 16.413,26.276 15.821,42.755 12.624,46.812 -3.196,4.057 -8.297,0.418 -12.133,-3.3 -3.835,-3.718 -7.751,-8.7 -8.878,-8.071 -1.128,0.628 -1.57,1.671 -0.862,4.063 0.708,2.391 7.6,24.137 1.513,30.658 -6.087,6.522 -19.017,-7.081 -21.238,-8.515 -2.222,-1.434 -3.054,0.901 -2.891,2.465 0.166,1.593 2.065,19.206 3.226,27.202 1.16,7.996 -0.296,13.502 -5.149,15.039 -4.679,1.483 -8.692,-5.901 -11.542,-8.463 -2.85,-2.562 -5.333,1.552 -5.333,1.552 0,0 -3.408,11.226 -12.688,30.787 -9.281,19.561 -17.675,14.29 -17.675,14.29"
             style="fill:#ebebeb;fill-opacity:1;fill-rule:nonzero;stroke:none"
             id="path46" /></g><g
           id="g48"
           transform="translate(138.1027,223.8845)"><path
             d="m 0,0 c -6.759,14.394 -18.342,40.176 -28.402,62.259 -10.057,22.076 -19.181,42.056 -25.866,56.481 -3.344,7.197 -6.053,13.027 -7.935,17.076 -0.929,2.003 -1.653,3.565 -2.154,4.644 -0.236,0.521 -0.419,0.924 -0.55,1.213 -0.122,0.275 -0.174,0.42 -0.174,0.42 0,0 0.08,-0.132 0.215,-0.4 0.141,-0.285 0.337,-0.682 0.59,-1.194 0.518,-1.071 1.268,-2.621 2.23,-4.609 1.933,-4.004 4.688,-9.819 8.065,-17.016 6.759,-14.393 15.929,-34.353 25.985,-56.429 C -17.936,40.361 -6.398,14.56 0.287,0.134"
             style="fill:#e0e0e0;fill-opacity:1;fill-rule:nonzero;stroke:none"
             id="path50" /></g><g
           id="g52"
           transform="translate(75.2975,320.1159)"><path
             d="m 0,0 c 0.012,0.028 0.363,-0.089 0.989,-0.326 0.626,-0.234 1.522,-0.6 2.624,-1.062 2.203,-0.927 5.214,-2.286 8.508,-3.846 3.243,-1.55 6.176,-2.951 8.42,-4.023 1.014,-0.477 1.869,-0.879 2.557,-1.202 0.606,-0.282 0.935,-0.451 0.923,-0.48 -0.011,-0.028 -0.363,0.086 -0.991,0.319 -0.626,0.236 -1.522,0.601 -2.62,1.075 -2.194,0.95 -5.186,2.348 -8.48,3.907 C 8.678,-4.112 5.736,-2.732 3.486,-1.676 2.469,-1.205 1.61,-0.807 0.92,-0.486 0.316,-0.2 -0.012,-0.029 0,0"
             style="fill:#e0e0e0;fill-opacity:1;fill-rule:nonzero;stroke:none"
             id="path54" /></g><g
           id="g56"
           transform="translate(100.3439,310.049)"><path
             d="M 0,0 C -0.114,0.048 2.415,6.377 5.647,14.135 8.88,21.896 11.592,28.147 11.707,28.1 11.82,28.053 9.292,21.725 6.059,13.963 2.827,6.205 0.114,-0.047 0,0"
             style="fill:#e0e0e0;fill-opacity:1;fill-rule:nonzero;stroke:none"
             id="path58" /></g><g
           id="g60"
           transform="translate(114.2609,275.445)"><path
             d="m 0,0 c -0.023,0.021 0.201,0.326 0.625,0.859 0.485,0.603 1.091,1.356 1.811,2.249 1.526,1.9 3.623,4.533 5.829,7.522 2.214,2.986 4.124,5.758 5.49,7.775 0.644,0.949 1.186,1.749 1.621,2.389 0.386,0.562 0.612,0.866 0.638,0.85 0.027,-0.017 -0.15,-0.352 -0.491,-0.943 C 15.182,20.11 14.672,19.264 14.02,18.232 12.719,16.167 10.845,13.359 8.624,10.364 6.411,7.366 4.27,4.757 2.679,2.906 1.879,1.983 1.225,1.244 0.757,0.746 0.292,0.247 0.023,-0.02 0,0"
             style="fill:#e0e0e0;fill-opacity:1;fill-rule:nonzero;stroke:none"
             id="path62" /></g><g
           id="g64"
           transform="translate(89.6022,279.5641)"><path
             d="m 0,0 c 0.004,0.03 0.354,0.006 0.98,-0.063 0.721,-0.091 1.605,-0.204 2.648,-0.335 2.234,-0.304 5.314,-0.752 8.712,-1.275 3.399,-0.523 6.472,-1.022 8.693,-1.404 1.034,-0.188 1.912,-0.347 2.626,-0.476 0.619,-0.123 0.959,-0.205 0.954,-0.236 -0.005,-0.03 -0.354,-0.006 -0.98,0.063 -0.72,0.092 -1.605,0.204 -2.649,0.336 -2.233,0.303 -5.313,0.752 -8.712,1.275 C 8.874,-1.592 5.801,-1.094 3.581,-0.711 2.546,-0.523 1.668,-0.364 0.954,-0.235 0.335,-0.113 -0.005,-0.031 0,0"
             style="fill:#e0e0e0;fill-opacity:1;fill-rule:nonzero;stroke:none"
             id="path66" /></g><g
           id="g68"
           transform="translate(98.007,247.4538)"><path
             d="m 0,0 c 0.004,0.031 0.451,-0.004 1.254,-0.093 0.885,-0.108 2.025,-0.249 3.395,-0.417 2.864,-0.372 6.817,-0.917 11.178,-1.546 4.362,-0.629 8.308,-1.222 11.161,-1.674 1.361,-0.226 2.495,-0.414 3.375,-0.559 0.795,-0.142 1.233,-0.234 1.228,-0.265 -0.004,-0.03 -0.45,0.004 -1.253,0.093 -0.885,0.109 -2.026,0.249 -3.395,0.418 -2.864,0.372 -6.818,0.916 -11.18,1.545 C 11.402,-1.869 7.457,-1.275 4.604,-0.823 3.243,-0.598 2.108,-0.41 1.229,-0.265 0.434,-0.123 -0.004,-0.03 0,0"
             style="fill:#e0e0e0;fill-opacity:1;fill-rule:nonzero;stroke:none"
             id="path70" /></g><g
           id="g72"
           transform="translate(128.8737,243.2214)"><path
             d="m 0,0 c -0.024,0.02 0.249,0.414 0.764,1.109 0.566,0.757 1.304,1.744 2.194,2.933 1.848,2.479 4.389,5.912 7.086,9.78 2.705,3.866 5.06,7.429 6.747,10.021 0.812,1.244 1.485,2.277 2.001,3.068 0.475,0.723 0.751,1.115 0.777,1.099 C 19.595,27.994 19.37,27.571 18.94,26.819 18.51,26.068 17.871,24.991 17.058,23.674 15.438,21.037 13.12,17.439 10.411,13.566 7.708,9.691 5.123,6.282 3.208,3.85 2.247,2.637 1.46,1.662 0.9,1.001 0.343,0.339 0.024,-0.019 0,0"
             style="fill:#e0e0e0;fill-opacity:1;fill-rule:nonzero;stroke:none"
             id="path74" /></g><g
           id="g76"
           transform="translate(362.4684,265.3508)"><path
             d="m 0,0 c -25.62,12.894 -35.261,42.307 -38.261,69.565 -0.502,4.549 -1.689,9.251 -0.11,13.536 1.581,4.283 6.214,7.724 10.543,6.402 3.592,-1.096 5.622,-4.796 7.972,-7.758 3.124,-3.943 7.368,-6.965 12.085,-8.608 3.099,-1.079 6.798,-1.478 9.418,0.503 3.594,2.719 3.274,8.181 2.596,12.681 -1.267,8.386 -2.532,16.772 -3.798,25.157 -0.679,4.498 -1.357,9.094 -0.574,13.571 0.783,4.476 3.304,8.894 7.414,10.714 4.111,1.819 9.766,0.114 11.307,-4.163 0.641,-1.78 0.544,-3.738 0.938,-5.589 0.396,-1.851 1.566,-3.793 3.416,-4.057 1.874,-0.269 3.491,1.269 4.647,2.781 3.991,5.219 6.299,11.532 8.404,17.784 2.106,6.251 4.105,12.627 7.606,18.196 3.5,5.57 8.765,10.343 15.162,11.64 6.397,1.298 13.843,-1.689 16.388,-7.785 2.553,-6.112 -0.22,-13.09 -3.507,-18.811 -4.878,-8.489 -10.977,-16.255 -18.046,-22.976 -1.274,-1.213 -2.656,-2.524 -2.957,-4.27 -0.544,-3.144 2.732,-5.714 5.838,-6.273 3.519,-0.633 7.111,0.243 10.681,0.337 3.571,0.094 7.6,-0.905 9.407,-4.032 2.51,-4.336 -0.642,-9.717 -3.972,-13.424 -6.67,-7.425 -14.609,-13.675 -23.359,-18.395 -3.137,-1.691 -6.469,-3.259 -8.804,-5.972 -2.335,-2.714 -3.363,-6.995 -1.29,-9.933 2.074,-2.942 6.363,-3.358 9.74,-2.212 3.375,1.144 6.21,3.477 9.336,5.203 5.85,3.23 13.904,3.959 18.641,-0.816 3.114,-3.14 4.051,-8.002 3.339,-12.383 C 79.489,46.231 77.338,42.235 74.981,38.497 66.745,25.425 55.402,14.221 41.765,7.168 28.129,0.115 15.021,-3.155 0,0"
             style="fill:#f5f5f5;fill-opacity:1;fill-rule:nonzero;stroke:none"
             id="path78" /></g><g
           id="g80"
           transform="translate(367.0123,283.3674)"><path
             d="m 0,0 c 2.014,14.267 5.518,29.721 9.737,45.76 1.071,4.005 2.127,7.963 3.169,11.864 1.049,3.891 2.089,7.75 3.34,11.461 2.469,7.436 5.409,14.397 8.407,20.917 2.996,6.524 6.077,12.605 8.999,18.27 2.936,5.662 5.772,10.887 8.559,15.539 5.547,9.33 10.902,16.31 14.773,20.952 1.932,2.329 3.489,4.086 4.561,5.263 0.517,0.56 0.922,1 1.226,1.331 0.281,0.295 0.429,0.442 0.44,0.433 0.012,-0.01 -0.116,-0.176 -0.375,-0.492 -0.29,-0.344 -0.676,-0.802 -1.165,-1.385 -1.029,-1.213 -2.545,-3.003 -4.437,-5.36 -3.788,-4.7 -9.049,-11.711 -14.516,-21.052 -2.747,-4.658 -5.546,-9.887 -8.449,-15.554 C 31.375,102.271 28.321,96.188 25.352,89.672 22.381,83.159 19.468,76.217 17.023,68.819 15.785,65.126 14.758,61.3 13.709,57.398 12.669,53.5 11.614,49.544 10.546,45.541 6.33,29.514 2.812,14.103 0.761,-0.115"
             style="fill:#e0e0e0;fill-opacity:1;fill-rule:nonzero;stroke:none"
             id="path82" /></g><g
           id="g84"
           transform="translate(383.4899,352.5192)"><path
             d="m 0,0 c -0.054,-0.017 -0.307,0.645 -0.718,1.857 -0.416,1.211 -0.961,2.981 -1.6,5.178 -1.286,4.392 -2.853,10.518 -4.556,17.277 -1.703,6.764 -3.353,12.849 -4.701,17.209 -0.668,2.182 -1.226,3.943 -1.628,5.154 -0.395,1.216 -0.588,1.898 -0.534,1.919 0.054,0.021 0.35,-0.622 0.839,-1.805 0.497,-1.181 1.143,-2.917 1.884,-5.083 1.498,-4.329 3.246,-10.415 4.95,-17.185 C -4.401,17.846 -2.897,11.807 -1.748,7.193 -1.217,5.112 -0.766,3.358 -0.405,1.951 -0.093,0.712 0.057,0.017 0,0"
             style="fill:#e0e0e0;fill-opacity:1;fill-rule:nonzero;stroke:none"
             id="path86" /></g><g
           id="g88"
           transform="translate(439.8239,371.7092)"><path
             d="m 0,0 c 0.01,-0.057 -0.8,-0.272 -2.27,-0.61 -1.466,-0.348 -3.59,-0.838 -6.195,-1.528 -5.221,-1.339 -12.367,-3.441 -20.149,-6.105 -7.782,-2.679 -14.719,-5.403 -19.68,-7.518 -2.489,-1.041 -4.48,-1.937 -5.86,-2.548 -1.378,-0.616 -2.153,-0.933 -2.18,-0.881 -0.025,0.054 0.701,0.469 2.039,1.179 1.34,0.703 3.299,1.685 5.765,2.8 4.914,2.261 11.842,5.083 19.645,7.771 7.806,2.67 15.006,4.69 20.279,5.883 2.631,0.619 4.782,1.022 6.274,1.269 C -0.84,-0.048 -0.012,0.059 0,0"
             style="fill:#e0e0e0;fill-opacity:1;fill-rule:nonzero;stroke:none"
             id="path90" /></g><g
           id="g92"
           transform="translate(367.5704,284.5358)"><path
             d="m 0,0 c -0.025,-0.016 -0.195,0.208 -0.499,0.648 -0.35,0.528 -0.776,1.172 -1.293,1.952 -1.115,1.7 -2.665,4.201 -4.539,7.317 -3.752,6.229 -8.664,14.996 -13.953,24.743 -5.294,9.752 -10.117,18.553 -13.734,24.851 -1.768,3.06 -3.224,5.577 -4.305,7.448 -0.465,0.813 -0.847,1.483 -1.161,2.034 -0.257,0.468 -0.38,0.722 -0.356,0.739 0.025,0.015 0.195,-0.209 0.5,-0.649 0.349,-0.528 0.776,-1.171 1.292,-1.951 1.115,-1.699 2.665,-4.201 4.539,-7.316 3.752,-6.229 8.664,-14.997 13.956,-24.748 C -14.262,25.319 -9.438,16.519 -5.822,10.22 -4.052,7.162 -2.598,4.643 -1.517,2.773 -1.052,1.96 -0.67,1.289 -0.356,0.74 -0.099,0.269 0.024,0.015 0,0"
             style="fill:#e0e0e0;fill-opacity:1;fill-rule:nonzero;stroke:none"
             id="path94" /></g><g
           id="g96"
           transform="translate(440.9235,320.4538)"><path
             d="m 0,0 c 0.011,-0.027 -0.237,-0.172 -0.719,-0.425 -0.572,-0.289 -1.274,-0.643 -2.126,-1.072 -1.967,-0.968 -4.622,-2.274 -7.852,-3.861 -6.631,-3.262 -15.736,-7.871 -25.79,-12.979 -10.058,-5.11 -19.215,-9.64 -25.915,-12.765 -3.349,-1.564 -6.072,-2.801 -7.971,-3.618 -0.878,-0.372 -1.603,-0.677 -2.192,-0.928 -0.505,-0.204 -0.777,-0.297 -0.788,-0.27 -0.012,0.027 0.236,0.172 0.718,0.426 0.571,0.287 1.274,0.641 2.126,1.071 1.967,0.967 4.621,2.272 7.852,3.86 6.63,3.261 15.737,7.872 25.794,12.981 10.054,5.109 19.211,9.639 25.91,12.763 3.349,1.564 6.072,2.802 7.973,3.619 0.877,0.371 1.601,0.679 2.191,0.927 C -0.284,-0.067 -0.014,0.026 0,0"
             style="fill:#e0e0e0;fill-opacity:1;fill-rule:nonzero;stroke:none"
             id="path98" /></g><g
           id="g100"
           transform="translate(551.8004,374.155)"><path
             d="m 0,0 c -11.749,-6.832 -23.656,5.796 -17.216,18.258 0.857,1.658 2.168,3.049 3.731,3.958 C -1.734,29.048 10.174,16.419 3.731,3.958 2.875,2.3 1.563,0.909 0,0 m 16.421,14.198 c 0,16.315 -17.143,26.651 -34.62,18.473 -3.947,-1.847 -7.213,-4.973 -9.197,-8.815 -4.397,-8.518 -2.456,-18.245 1.533,-26.321 l 13.601,-34.474 c 1.961,-4.968 9.003,-4.939 10.922,0.046 l 13.337,34.654 c 4.617,10.554 4.424,16.437 4.424,16.437"
             style="fill:#f5f5f5;fill-opacity:1;fill-rule:nonzero;stroke:none"
             id="path102" /></g></g></g><g
       id="g104"><g
         id="g106"
         clip-path="url(#clipPath110)"><g
           id="g112"
           transform="translate(636.3922,269.6848)"><path
             d="m 0,0 c 11.516,43.012 0.937,91.328 -27.498,125.592 -28.435,34.265 -73.972,53.571 -118.369,50.182 -44.397,-3.388 -86.479,-29.379 -109.385,-67.562 -7.737,-12.897 -13.619,-27.333 -24.645,-37.562 -14.913,-13.834 -36.673,-17.491 -57.009,-17.016 -20.337,0.475 -40.594,4.428 -60.895,3.14 -35.993,-2.283 -70.802,-22.394 -89.259,-53.378 -18.458,-30.984 -19.28,-72.149 -0.586,-102.991 15.347,-25.32 41.985,-42.268 70.193,-51.263 28.207,-8.995 58.158,-10.799 87.755,-11.563 65.599,-1.695 132.722,1.677 193.864,25.506 61.141,23.83 116.02,71.013 135.29,133.74"
             style="fill:#e0e0e0;fill-opacity:1;fill-rule:nonzero;stroke:none"
             id="path114" /></g><g
           id="g116"
           transform="translate(112.2135,448.1091)"><path
             d="M 0,0 C 8.99,17.029 26.992,28.674 47.676,26.539 56.487,27.063 72.436,21.197 82.652,9.718 92.869,-1.761 97.055,-18.694 93.065,-33.535 88.066,-52.131 77.218,-65.402 58.584,-70.257 39.95,-75.112 18.71,-68.738 6.245,-54.061 -6.221,-39.384 -8.99,-17.029 0,0"
             style="fill:#e0e0e0;fill-opacity:1;fill-rule:nonzero;stroke:none"
             id="path118" /></g></g></g><g
       id="g120"><g
         id="g122"
         clip-path="url(#clipPath126)"><g
           id="g128"
           transform="translate(709.9635,55.9167)"><path
             d="m 0,0 c 0,-0.144 -149.98,-0.261 -334.947,-0.261 -185.032,0 -334.98,0.117 -334.98,0.261 0,0.144 149.948,0.261 334.98,0.261 C -149.98,0.261 0,0.144 0,0"
             style="fill:#263238;fill-opacity:1;fill-rule:nonzero;stroke:none"
             id="path130" /></g></g></g><g
       id="g132"><g
         id="g134"
         clip-path="url(#clipPath138)"><g
           id="g140"
           transform="translate(324.1627,55.9167)"><path
             d="m 0,0 -132.92,0.615 c -15.987,0.073 -28.889,13.09 -28.821,29.076 l 1.409,333.235 c 0.067,15.995 13.092,28.906 29.087,28.832 L 1.676,391.144 c 15.987,-0.074 28.888,-13.09 28.821,-29.077 L 29.088,28.832 C 29.02,12.837 15.996,-0.073 0,0"
             style="fill:#455a64;fill-opacity:1;fill-rule:nonzero;stroke:none"
             id="path142" /></g><g
           id="g144"
           transform="translate(325.6495,435.5602)"><path
             d="m 0,0 -25.771,0.119 c -3.456,0.015 -6.271,-2.901 -6.285,-6.514 l -0.021,-4.674 c -0.014,-3.613 -2.829,-6.529 -6.284,-6.513 l -50.234,0.232 c -3.456,0.016 -6.245,2.958 -6.23,6.571 l 0.02,4.675 c 0.015,3.612 -2.775,6.555 -6.231,6.57 l -9.064,0.042 -22.555,0.104 c -11.202,0.052 -20.324,-8.989 -20.371,-20.192 l -1.375,-325.261 c -0.048,-11.197 8.987,-20.313 20.184,-20.365 l 132.655,-0.612 c 11.201,-0.052 20.323,8.99 20.371,20.192 l 1.375,325.262 C 20.231,-9.168 11.196,-0.052 0,0"
             style="fill:#fafafa;fill-opacity:1;fill-rule:nonzero;stroke:none"
             id="path146" /></g><g
           id="g148"
           transform="translate(172.4581,376.9484)"><path
             d="M 0,0 H 21.741 L 41.146,-19.404 20.975,-39.575 0.23,-18.83 Z"
             style="fill:#ebebeb;fill-opacity:1;fill-rule:nonzero;stroke:none"
             id="path150" /></g><g
           id="g152"
           transform="translate(218.0294,366.0549)"><path
             d="M 0,0 -10.894,10.894 H 13.617 Z"
             style="fill:#ebebeb;fill-opacity:1;fill-rule:nonzero;stroke:none"
             id="path154" /></g><g
           id="g156"
           transform="translate(227.5612,357.1613)"><path
             d="m 0,0 19.085,19.085 h 66.704 c 0,0 10.213,-45.596 -29.958,-74.874 z"
             style="fill:#ebebeb;fill-opacity:1;fill-rule:nonzero;stroke:none"
             id="path158" /></g><g
           id="g160"
           transform="translate(219.3908,351.0759)"><path
             d="m 0,0 -20.426,-20.426 56.512,-56.512 20.426,21.107 z"
             style="fill:#ebebeb;fill-opacity:1;fill-rule:nonzero;stroke:none"
             id="path162" /></g><g
           id="g164"
           transform="translate(172.2135,319.0754)"><path
             d="M 0,0 12.794,13.277 0.245,25.826 Z"
             style="fill:#ebebeb;fill-opacity:1;fill-rule:nonzero;stroke:none"
             id="path166" /></g><g
           id="g168"
           transform="translate(192.6671,324.5222)"><path
             d="m 0,0 -19.66,-19.66 v -27.319 l 40.597,-41.533 34.383,32 z"
             style="fill:#ebebeb;fill-opacity:1;fill-rule:nonzero;stroke:none"
             id="path170" /></g><g
           id="g172"
           transform="translate(290.9811,295.6428)"><path
             d="M 0,0 C 0,0 42.114,30.879 28.497,80.604 H 54.688 L 54.37,-59.752 Z"
             style="fill:#ebebeb;fill-opacity:1;fill-rule:nonzero;stroke:none"
             id="path174" /></g><g
           id="g176"
           transform="translate(283.0851,287.5412)"><path
             d="m 0,0 -20.368,-21.264 62.448,-62.447 19.099,20.24 z"
             style="fill:#ebebeb;fill-opacity:1;fill-rule:nonzero;stroke:none"
             id="path178" /></g><g
           id="g180"
           transform="translate(254.2116,260.4582)"><path
             d="M 0,0 -32.007,-31.784 32.007,-95.35 63.954,-64.462 Z"
             style="fill:#ebebeb;fill-opacity:1;fill-rule:nonzero;stroke:none"
             id="path182" /></g><g
           id="g184"
           transform="translate(237.4337,101.2292)"><path
             d="M 0,0 48.933,50.725 95.485,3.272 Z"
             style="fill:#ebebeb;fill-opacity:1;fill-rule:nonzero;stroke:none"
             id="path186" /></g><g
           id="g188"
           transform="translate(294.0031,158.4997)"><path
             d="m 0,0 50.958,50.484 c 0,-2.242 -0.442,-104.714 -0.442,-104.714 z"
             style="fill:#ebebeb;fill-opacity:1;fill-rule:nonzero;stroke:none"
             id="path190" /></g><g
           id="g192"
           transform="translate(250.3688,186.861)"><path
             d="m 0,0 28.908,-28.907 -57.072,-58.906 -26.379,31.634 z"
             style="fill:#ebebeb;fill-opacity:1;fill-rule:nonzero;stroke:none"
             id="path194" /></g><g
           id="g196"
           transform="translate(172.2609,126.5778)"><path
             d="M 0,0 C 2.727,0.273 72.638,65.738 72.638,65.738 L 0,141.007 Z"
             style="fill:#ebebeb;fill-opacity:1;fill-rule:nonzero;stroke:none"
             id="path198" /></g><g
           id="g200"
           transform="translate(171.2477,111.6599)"><path
             d="m 0,0 16.833,14.918 23.306,-27.53 H 0 v 10.531"
             style="fill:#ebebeb;fill-opacity:1;fill-rule:nonzero;stroke:none"
             id="path202" /></g><g
           id="g204"
           transform="translate(193.0309,396.7673)"><path
             d="m 0,0 c -0.099,-0.105 -2.334,1.84 -4.994,4.344 l -0.002,0.002 c 0,0.758 0.001,0.211 0.002,0.381 l 0.004,0.003 0.008,0.008 0.015,0.014 0.031,0.03 0.062,0.058 0.124,0.116 0.246,0.229 c 0.162,0.151 0.322,0.3 0.481,0.447 0.312,0.286 0.616,0.566 0.915,0.839 0.547,0.488 1.07,0.954 1.57,1.399 C -0.633,8.656 -0.049,9.115 0,9.063 0.049,9.01 -0.446,8.456 -1.286,7.602 -1.761,7.131 -2.258,6.638 -2.779,6.122 -3.071,5.841 -3.369,5.554 -3.674,5.26 -3.831,5.111 -3.989,4.96 -4.149,4.808 L -4.394,4.577 -4.517,4.46 -4.579,4.402 -4.61,4.373 -4.626,4.358 -4.634,4.351 -4.638,4.347 c 0,0.169 -0.002,-0.38 -0.001,0.378 L -4.637,4.723 C -1.978,2.219 0.099,0.104 0,0"
             style="fill:#263238;fill-opacity:1;fill-rule:nonzero;stroke:none"
             id="path206" /></g><g
           id="g208"
           transform="translate(331.2526,404.3952)"><path
             d="m 0,0 c 0,-0.599 -0.485,-1.084 -1.084,-1.084 -0.6,0 -1.085,0.485 -1.085,1.084 0,0.599 0.485,1.085 1.085,1.085 C -0.485,1.085 0,0.599 0,0"
             style="fill:#263238;fill-opacity:1;fill-rule:nonzero;stroke:none"
             id="path210" /></g><g
           id="g212"
           transform="translate(330.9352,401.4313)"><path
             d="m 0,0 c 0.423,-0.424 0.423,-1.11 0,-1.534 -0.424,-0.424 -1.11,-0.424 -1.534,0 -0.424,0.424 -0.424,1.11 0,1.534 0.424,0.423 1.11,0.423 1.534,0"
             style="fill:#263238;fill-opacity:1;fill-rule:nonzero;stroke:none"
             id="path214" /></g><g
           id="g216"
           transform="translate(331.2526,396.9328)"><path
             d="m 0,0 c 0,-0.599 -0.485,-1.084 -1.084,-1.084 -0.6,0 -1.085,0.485 -1.085,1.084 0,0.599 0.485,1.085 1.085,1.085 C -0.485,1.085 0,0.599 0,0"
             style="fill:#263238;fill-opacity:1;fill-rule:nonzero;stroke:none"
             id="path218" /></g><path
           d="m 284.384,396.069 h -46.776 v 3.897 h 46.776 z"
           style="fill:#263238;fill-opacity:1;fill-rule:nonzero;stroke:none"
           id="path220" /><g
           id="g222"
           transform="translate(260.9635,314.0983)"><path
             d="m 0,0 c -13.124,-7.63 -26.423,6.474 -19.23,20.393 0.957,1.852 2.422,3.406 4.168,4.421 C -1.938,32.446 11.363,18.34 4.168,4.42 3.211,2.569 1.746,1.015 0,0 m 18.341,15.858 c 0,18.224 -19.148,29.768 -38.669,20.634 -4.409,-2.063 -8.057,-5.555 -10.272,-9.846 -4.911,-9.514 -2.743,-20.378 1.711,-29.399 l 15.193,-38.506 c 2.19,-5.55 10.056,-5.516 12.198,0.051 l 14.897,38.707 c 5.158,11.789 4.942,18.359 4.942,18.359"
             style="fill:#e8505b;fill-opacity:1;fill-rule:nonzero;stroke:none"
             id="path224" /></g></g></g><path
       d="M 677.068,109.474 H 122.251 v 81.407 h 554.817 z"
       style="fill:#e8505b;fill-opacity:1;fill-rule:nonzero;stroke:none"
       id="path226" /><g
       id="g228"><g
         id="g230"
         clip-path="url(#clipPath234)"><g
           id="g236"><g
             id="g238" /><g
             id="g248"><g
               clip-path="url(#clipPath242)"
               opacity="0.5"
               id="g246"><path
                 d="M 677.068,109.474 H 122.251 v 81.407 h 554.817 z"
                 style="fill:#000000;fill-opacity:1;fill-rule:nonzero;stroke:none"
                 id="path244" /></g></g></g><g
           id="g250"
           transform="translate(143.3092,110.7878)"><path
             d="M 0,0 C -0.426,-29.543 23.178,-53.839 52.721,-54.265 82.265,-54.69 106.56,-31.087 106.986,-1.544 107.413,28 83.808,52.295 54.264,52.721 24.721,53.147 0.426,29.543 0,0"
             style="fill:#263238;fill-opacity:1;fill-rule:nonzero;stroke:none"
             id="path252" /></g><g
           id="g254"
           transform="translate(143.3185,110.9255)"><path
             d="m 0,0 c -0.001,-0.046 -0.009,-0.092 -0.009,-0.138 -0.427,-29.543 23.178,-53.839 52.721,-54.264 29.543,-0.426 53.839,23.177 54.265,52.72 10e-4,0.047 -0.005,0.092 -0.005,0.139 z"
             style="fill:#263238;fill-opacity:1;fill-rule:nonzero;stroke:none"
             id="path256" /></g><g
           id="g258"
           transform="translate(159.2467,110.5573)"><path
             d="M 0,0 C -0.299,-20.741 16.272,-37.798 37.014,-38.098 57.755,-38.396 74.813,-21.825 75.112,-1.083 75.411,19.658 58.839,36.716 38.097,37.015 17.355,37.313 0.299,20.742 0,0"
             style="fill:#fafafa;fill-opacity:1;fill-rule:nonzero;stroke:none"
             id="path260" /></g><g
           id="g262"
           transform="translate(197.3439,147.572)"><path
             d="m 0,0 c -20.742,0.299 -37.798,-16.272 -38.097,-37.015 l 75.112,-1.083 C 37.313,-17.356 20.742,-0.299 0,0"
             style="fill:#e0e0e0;fill-opacity:1;fill-rule:nonzero;stroke:none"
             id="path264" /></g><g
           id="g266"
           transform="translate(173.9254,110.3464)"><path
             d="M 0,0 C -0.182,-12.636 9.913,-23.025 22.546,-23.207 35.181,-23.39 45.572,-13.295 45.754,-0.66 45.937,11.975 35.841,22.364 23.207,22.547 10.572,22.729 0.182,12.635 0,0"
             style="fill:#263238;fill-opacity:1;fill-rule:nonzero;stroke:none"
             id="path268" /></g><g
           id="g270"
           transform="translate(552.4098,110.7878)"><path
             d="m 0,0 c -0.426,-29.543 23.179,-53.839 52.722,-54.265 29.544,-0.425 53.839,23.179 54.264,52.721 C 107.413,28 83.809,52.295 54.265,52.721 24.722,53.147 0.427,29.543 0,0"
             style="fill:#263238;fill-opacity:1;fill-rule:nonzero;stroke:none"
             id="path272" /></g><g
           id="g274"
           transform="translate(552.4196,110.9255)"><path
             d="m 0,0 c -0.001,-0.046 -0.009,-0.092 -0.01,-0.138 -0.426,-29.543 23.179,-53.839 52.722,-54.264 29.544,-0.426 53.839,23.178 54.265,52.72 10e-4,0.047 -0.005,0.092 -0.005,0.139 z"
             style="fill:#263238;fill-opacity:1;fill-rule:nonzero;stroke:none"
             id="path276" /></g><g
           id="g278"
           transform="translate(568.3483,110.5573)"><path
             d="M 0,0 C -0.3,-20.741 16.271,-37.798 37.013,-38.098 57.755,-38.396 74.812,-21.825 75.111,-1.083 75.41,19.658 58.839,36.716 38.097,37.015 17.354,37.313 0.299,20.742 0,0"
             style="fill:#fafafa;fill-opacity:1;fill-rule:nonzero;stroke:none"
             id="path280" /></g><g
           id="g282"
           transform="translate(606.4449,147.572)"><path
             d="m 0,0 c -20.742,0.299 -37.798,-16.272 -38.097,-37.015 l 75.112,-1.083 C 37.313,-17.356 20.742,-0.299 0,0"
             style="fill:#e0e0e0;fill-opacity:1;fill-rule:nonzero;stroke:none"
             id="path284" /></g><g
           id="g286"
           transform="translate(583.026,110.3464)"><path
             d="M 0,0 C -0.182,-12.636 9.913,-23.025 22.547,-23.207 35.182,-23.39 45.572,-13.295 45.755,-0.66 45.938,11.975 35.842,22.364 23.207,22.547 10.573,22.729 0.183,12.635 0,0"
             style="fill:#263238;fill-opacity:1;fill-rule:nonzero;stroke:none"
             id="path288" /></g><g
           id="g290"
           transform="translate(266.9318,236.6813)"><path
             d="m 0,0 c 0,0 -78.781,-5.81 -107.98,-12.359 -20.579,-4.616 -60.261,-12.58 -59.783,-37.546 l 3.148,-17.896 c 0,0 -14.723,-6.722 -14.723,-23.877 0,-17.154 -3.595,-43.766 30.762,-44.83 5.663,-0.175 16.418,0 16.418,0 0,0 -6.596,73.174 60.63,75.316 68.389,2.178 63.846,-74.647 63.846,-74.647 h 285.426 c 0,0 -11.715,74.848 61.906,74.954 73.621,0.106 62.42,-75.442 62.42,-75.442 0,0 27.082,-2.344 39.682,20.418 12.602,22.762 9.322,38.963 9.322,38.963 l -0.417,14.385 c -0.142,4.899 -4.056,8.849 -8.952,9.038 0,0 4.919,36.225 -2.628,42.496 -7.547,6.27 -48.923,44.092 -48.923,44.092 l 1.971,1.238 c 3.301,2.074 2.729,7.048 -0.958,8.316 -15.708,5.402 -46.766,16.089 -54.069,18.644 -1.099,0.385 -2.231,0.623 -3.392,0.712 -4.357,0.335 -16.695,1.117 -39.343,1.358 -27.591,0.294 -137.134,0 -137.134,0 0,0 -37.698,-3.1 -58.701,-12.345 C 76.447,41.269 0,0 0,0"
             style="fill:#e8505b;fill-opacity:1;fill-rule:nonzero;stroke:none"
             id="path292" /></g><g
           id="g294"><g
             id="g296" /><g
             id="g308"><g
               clip-path="url(#clipPath300)"
               opacity="0.399994"
               id="g306"><g
                 transform="translate(107.5661,146.985)"
                 id="g304"><path
                   d="m 0,0 c -2.856,0.582 -7.238,0.638 -9.416,-1.3 -1.617,-1.438 -2.046,-3.763 -2.292,-5.915 -0.338,-2.953 -0.506,-5.979 0.197,-8.868 0.703,-2.888 2.387,-5.652 4.999,-7.071 2.613,-1.419 6.197,-1.187 8.229,0.984 1.856,1.983 2.069,4.963 2.02,7.68 -0.069,3.858 0.241,7.127 -0.469,10.92 C 3.132,-2.85 2.752,-1.935 2.285,-1.369 1.527,-0.453 0.948,-0.056 0,0"
                   style="fill:#000000;fill-opacity:1;fill-rule:nonzero;stroke:none"
                   id="path302" /></g></g></g></g><g
           id="g310"
           transform="translate(102.3165,168.8806)"><path
             d="m 0,0 c 8.363,-0.018 16.475,0.46 24.82,1.017 0.902,0.06 1.88,0.155 2.544,0.77 0.797,0.739 0.862,1.957 0.871,3.045 0.039,4.482 -0.183,9.576 -3.583,12.497 -2.077,1.785 -4.928,2.339 -7.654,2.596 -6.713,0.632 -13.751,0.11 -20.145,-2.029 z"
             style="fill:#fafafa;fill-opacity:1;fill-rule:nonzero;stroke:none"
             id="path312" /></g><g
           id="g314"
           transform="translate(275.9738,103.1335)"><path
             d="m 0,0 c 0,0 -0.031,0.241 -0.065,0.714 -0.032,0.489 -0.078,1.187 -0.138,2.099 -0.102,1.862 -0.25,4.578 -0.441,8.071 -0.196,3.504 -0.429,7.792 -0.932,12.749 -0.515,4.949 -1.277,10.592 -2.948,16.631 -1.677,6.025 -4.25,12.451 -8.054,18.755 -3.822,6.258 -8.842,12.516 -15.562,17.358 -13.499,9.599 -31.725,15.025 -50.795,15.259 -19.117,0.227 -37.278,-5.813 -50.434,-15.88 -6.642,-4.932 -12.138,-10.691 -16.375,-16.707 -4.266,-6.001 -7.385,-12.171 -9.584,-18.029 -2.223,-5.863 -3.387,-11.448 -4.047,-16.37 -0.718,-4.93 -0.612,-9.24 -0.491,-12.735 0.273,-3.491 0.582,-6.201 0.98,-8.005 0.163,-0.896 0.287,-1.585 0.375,-2.067 0.081,-0.467 0.11,-0.709 0.11,-0.709 0,0 -0.063,0.234 -0.162,0.697 -0.1,0.481 -0.241,1.166 -0.426,2.06 -0.432,1.8 -0.774,4.511 -1.079,8.011 -0.153,3.505 -0.288,7.83 0.404,12.785 0.635,4.946 1.78,10.562 3.991,16.46 2.187,5.895 5.302,12.107 9.578,18.152 4.244,6.06 9.762,11.868 16.439,16.842 13.221,10.151 31.504,16.247 50.726,16.015 19.174,-0.237 37.479,-5.696 51.072,-15.39 6.778,-4.902 11.821,-11.218 15.65,-17.525 3.811,-6.351 6.376,-12.818 8.039,-18.88 1.657,-6.076 2.394,-11.738 2.883,-16.7 0.476,-4.968 0.68,-9.261 0.845,-12.767 0.148,-3.496 0.264,-6.213 0.343,-8.077 0.037,-0.911 0.066,-1.61 0.086,-2.1 C 0.005,0.243 0,0 0,0"
             style="fill:#ffffff;fill-opacity:1;fill-rule:nonzero;stroke:none"
             id="path316" /></g><g
           id="g318"
           transform="translate(279.004,101.8903)"><path
             d="m 0,0 c 0,0 -0.018,0.201 -0.034,0.599 -0.014,0.407 -0.036,0.997 -0.064,1.773 -0.049,1.574 -0.121,3.893 -0.214,6.912 -0.173,6.065 -0.426,14.939 -0.747,26.222 -0.309,11.294 -0.684,24.998 -1.114,40.703 -0.106,3.928 -0.216,7.979 -0.328,12.151 -0.138,2.081 0.08,4.21 0.273,6.354 0.152,1.065 0.304,2.139 0.457,3.219 0.219,1.068 0.44,2.143 0.662,3.225 1.008,4.301 2.477,8.614 4.45,12.811 1.981,4.19 4.329,8.334 7.326,12.171 l 0.02,0.025 0.034,0.022 c 15.265,9.616 31.867,20.075 49.429,31.138 4.392,2.765 8.843,5.569 13.349,8.405 4.421,2.999 9.197,5.562 14.129,7.889 4.939,2.32 10.073,4.354 15.343,6.128 2.626,0.92 5.318,1.676 8.006,2.477 2.72,0.685 5.432,1.46 8.206,2.015 10.644,2.363 21.357,3.535 31.858,4.021 10.504,0.492 20.814,0.463 30.84,-0.102 l 0.294,-0.016 -0.065,-0.29 c -4.732,-21.165 -9.193,-41.122 -13.283,-59.415 l -0.008,-0.036 -0.023,-0.036 c -2.492,-4.097 -4.475,-8.411 -5.957,-12.761 -1.421,-4.362 -2.336,-8.843 -2.016,-13.208 0.339,-4.39 0.46,-8.686 0.572,-12.851 0.082,-4.169 0.161,-8.219 0.238,-12.144 0.231,-15.698 0.289,-29.393 0.333,-40.675 0.012,-11.277 0.022,-20.144 0.028,-26.204 -0.011,-3.018 -0.019,-5.335 -0.025,-6.908 -0.008,-0.775 -0.012,-1.365 -0.016,-1.771 -0.006,-0.398 -0.019,-0.6 -0.019,-0.6 0,0 -0.012,0.202 -0.017,0.6 -0.005,0.406 -0.011,0.996 -0.02,1.771 -0.01,1.573 -0.024,3.89 -0.043,6.908 -0.036,6.059 -0.088,14.926 -0.153,26.202 -0.083,11.282 -0.178,24.976 -0.44,40.672 -0.085,3.922 -0.171,7.971 -0.261,12.138 -0.12,4.167 -0.247,8.446 -0.592,12.831 -0.331,4.446 0.592,8.976 2.018,13.375 1.491,4.393 3.471,8.72 5.989,12.869 l -0.031,-0.073 c 4.074,18.296 8.52,38.257 13.234,59.425 l 0.229,-0.306 c -9.994,0.557 -20.3,0.583 -30.781,0.09 -10.483,-0.489 -21.162,-1.66 -31.771,-4.015 -2.765,-0.553 -5.467,-1.325 -8.178,-2.008 -2.681,-0.798 -5.363,-1.551 -7.98,-2.467 -5.253,-1.768 -10.369,-3.793 -15.29,-6.103 -4.914,-2.318 -9.666,-4.866 -14.063,-7.845 -4.508,-2.836 -8.962,-5.638 -13.355,-8.401 -17.576,-11.052 -34.19,-21.498 -49.467,-31.103 l 0.054,0.047 C 8.06,122.074 5.706,117.94 3.735,113.784 1.77,109.616 0.305,105.334 -0.704,101.063 -2.954,92.494 -1.819,84.039 -1.801,76.209 -1.412,60.505 -1.073,46.803 -0.793,35.51 -0.526,24.226 -0.316,15.352 -0.172,9.288 -0.108,6.267 -0.06,3.948 -0.026,2.373 -0.014,1.598 -0.004,1.007 0.002,0.6 0.007,0.202 0,0 0,0"
             style="fill:#263238;fill-opacity:1;fill-rule:nonzero;stroke:none"
             id="path320" /></g><g
           id="g322"
           transform="translate(460.5475,288.3596)"><path
             d="m 0,0 c 0,0 0.158,0.019 0.468,0.032 0.329,0.011 0.784,0.026 1.375,0.045 1.231,0.03 3.014,0.073 5.308,0.129 4.642,0.092 11.348,0.224 19.69,0.389 16.735,0.285 40.035,0.682 66.385,1.132 l 0.125,0.002 0.079,-0.097 c 2.98,-3.649 6.115,-7.487 9.3,-11.389 9.423,-11.553 18.399,-22.557 26.564,-32.569 1.019,-1.251 2.026,-2.487 3.02,-3.707 0.983,-1.243 1.817,-2.592 2.484,-3.985 1.31,-2.802 1.975,-5.801 1.986,-8.702 0.03,-2.905 -0.573,-5.697 -1.609,-8.18 -1.053,-2.449 -2.063,-4.8 -3.027,-7.045 -3.869,-8.952 -7.002,-16.202 -9.177,-21.235 -1.088,-2.487 -1.935,-4.426 -2.52,-5.763 -0.287,-0.641 -0.509,-1.139 -0.667,-1.493 -0.153,-0.336 -0.244,-0.502 -0.244,-0.502 0,0 0.058,0.181 0.195,0.522 0.147,0.36 0.353,0.864 0.619,1.514 0.564,1.346 1.381,3.298 2.43,5.802 2.139,5.048 5.221,12.321 9.026,21.301 1.723,4.52 4.75,9.276 4.543,15.075 -0.02,2.841 -0.68,5.773 -1.968,8.51 -0.66,1.364 -1.469,2.669 -2.44,3.89 -0.996,1.218 -2.006,2.452 -3.028,3.701 -8.174,10.002 -17.158,20.997 -26.591,32.539 -3.184,3.901 -6.317,7.74 -9.296,11.39 L 93.234,1.211 C 66.883,0.83 43.582,0.493 26.847,0.251 18.503,0.153 11.797,0.074 7.154,0.02 4.86,0.003 3.076,-0.01 1.845,-0.019 1.253,-0.018 0.798,-0.018 0.469,-0.017 0.158,-0.014 0,0 0,0"
             style="fill:#263238;fill-opacity:1;fill-rule:nonzero;stroke:none"
             id="path324" /></g><g
           id="g326"
           transform="translate(427.0358,200.0847)"><path
             d="M 0,0 C -0.001,0.028 0.28,0.024 0.796,0.117 1.308,0.205 2.07,0.411 2.898,0.954 3.715,1.49 4.596,2.409 5.037,3.737 5.266,4.4 5.342,5.133 5.31,5.938 5.292,6.723 5.093,7.548 4.689,8.316 3.893,9.843 2.146,11.123 0.084,11.122 c -2.113,-0.007 -4.369,-0.013 -6.74,-0.019 -4.755,-0.007 -9.973,-0.014 -15.452,-0.021 -1.31,0 -2.586,-0.509 -3.521,-1.372 -0.941,-0.856 -1.54,-2.047 -1.672,-3.273 -0.126,-1.256 0.04,-2.489 0.64,-3.53 0.576,-1.043 1.515,-1.83 2.557,-2.272 1.054,-0.469 2.19,-0.402 3.327,-0.406 1.124,-0.004 2.216,-0.009 3.273,-0.013 2.108,-0.012 4.075,-0.023 5.876,-0.032 C -8.075,0.149 -5.182,0.121 -3.119,0.102 -2.153,0.081 -1.384,0.064 -0.807,0.053 -0.277,0.035 0,0.018 0,0 c 0,-0.019 -0.277,-0.036 -0.807,-0.053 -0.577,-0.012 -1.346,-0.028 -2.312,-0.049 -2.063,-0.02 -4.956,-0.047 -8.509,-0.083 -1.801,-0.009 -3.768,-0.02 -5.876,-0.031 -1.057,-0.005 -2.149,-0.009 -3.273,-0.013 -0.57,0.006 -1.119,-0.024 -1.728,0.014 -0.6,0.043 -1.208,0.167 -1.781,0.405 -1.142,0.477 -2.172,1.333 -2.808,2.472 -0.662,1.125 -0.847,2.523 -0.715,3.831 0.142,1.347 0.797,2.657 1.83,3.6 1.026,0.949 2.432,1.511 3.871,1.51 5.479,-0.008 10.697,-0.015 15.452,-0.021 2.374,-0.01 4.631,-0.019 6.747,-0.028 2.23,-0.02 4.096,-1.423 4.925,-3.067 C 5.437,7.659 5.635,6.775 5.641,5.943 5.662,5.134 5.567,4.326 5.312,3.643 4.818,2.251 3.871,1.313 3.008,0.783 2.132,0.247 1.338,0.07 0.811,0.013 0.28,-0.047 0,0 0,0"
             style="fill:#263238;fill-opacity:1;fill-rule:nonzero;stroke:none"
             id="path328" /></g><g
           id="g330"
           transform="translate(574.9664,200.0847)"><path
             d="M 0,0 C -0.001,0.028 0.279,0.024 0.795,0.117 1.308,0.205 2.07,0.411 2.897,0.954 3.714,1.49 4.596,2.409 5.036,3.737 5.266,4.4 5.342,5.133 5.31,5.938 5.291,6.723 5.093,7.548 4.689,8.316 3.893,9.843 2.145,11.123 0.084,11.122 c -2.114,-0.007 -4.369,-0.013 -6.74,-0.019 -4.755,-0.007 -9.974,-0.014 -15.452,-0.021 -1.31,0 -2.586,-0.509 -3.522,-1.372 -0.941,-0.856 -1.539,-2.047 -1.672,-3.273 -0.125,-1.256 0.041,-2.489 0.64,-3.53 0.577,-1.043 1.516,-1.83 2.558,-2.272 1.053,-0.469 2.189,-0.402 3.326,-0.406 1.125,-0.004 2.216,-0.009 3.274,-0.013 2.108,-0.012 4.074,-0.023 5.876,-0.032 C -8.075,0.149 -5.183,0.121 -3.12,0.102 -2.154,0.081 -1.384,0.064 -0.807,0.053 -0.278,0.035 0,0.018 0,0 0,-0.019 -0.278,-0.036 -0.807,-0.053 -1.384,-0.065 -2.154,-0.081 -3.12,-0.102 c -2.063,-0.02 -4.955,-0.047 -8.508,-0.083 -1.802,-0.009 -3.768,-0.02 -5.876,-0.031 -1.058,-0.005 -2.149,-0.009 -3.274,-0.013 -0.57,0.006 -1.118,-0.024 -1.728,0.014 -0.599,0.043 -1.207,0.167 -1.78,0.405 -1.142,0.477 -2.172,1.333 -2.809,2.472 -0.662,1.125 -0.847,2.523 -0.714,3.831 0.142,1.347 0.796,2.657 1.83,3.6 1.025,0.949 2.432,1.511 3.871,1.51 5.478,-0.008 10.697,-0.015 15.452,-0.021 2.374,-0.01 4.631,-0.019 6.747,-0.028 2.23,-0.02 4.096,-1.423 4.925,-3.067 C 5.437,7.659 5.635,6.775 5.641,5.943 5.662,5.134 5.567,4.326 5.312,3.643 4.818,2.251 3.871,1.313 3.008,0.783 2.131,0.247 1.338,0.07 0.811,0.013 0.28,-0.047 0,0 0,0"
             style="fill:#263238;fill-opacity:1;fill-rule:nonzero;stroke:none"
             id="path332" /></g><g
           id="g334"
           transform="translate(704.693,224.2243)"><path
             d="m 0,0 h -29.601 c -4.056,0 -7.779,-2.248 -9.668,-5.839 -1.548,-2.946 -1.67,-6.438 -0.329,-9.485 l 11.609,-26.367 29.638,0.291 c 0,0 6.303,33.422 -1.649,41.4"
             style="fill:#fafafa;fill-opacity:1;fill-rule:nonzero;stroke:none"
             id="path336" /></g><g
           id="g338"
           transform="translate(293.5963,227.9538)"><path
             d="m 0,0 152.733,2.814 99.402,1.824 32.778,18.924 c 2.654,1.532 3.362,5.045 1.509,7.486 l -20.405,26.81 c -2.128,2.796 -5.43,4.449 -8.944,4.477 l -111.177,0.904 c 0,0 -41.866,2.433 -74.847,-16.035 C 36.333,27.764 0,0 0,0"
             style="fill:#263238;fill-opacity:1;fill-rule:nonzero;stroke:none"
             id="path340" /></g><g
           id="g342"
           transform="translate(363.5948,288.4235)"><path
             d="M 0,0 C 0,0 7.655,-3.492 2.673,-6.726 -2.31,-9.961 -79.689,-58.745 -79.689,-58.745 l -17.788,8.051 C -65.968,-33.139 -34.142,-16.091 0,0"
             style="fill:#455a64;fill-opacity:1;fill-rule:nonzero;stroke:none"
             id="path344" /></g><g
           id="g346"
           transform="translate(286.4054,228.4597)"><path
             d="m 0,0 c 0,0 -0.159,-0.05 -0.476,-0.122 -0.339,-0.073 -0.807,-0.175 -1.409,-0.307 -1.264,-0.26 -3.089,-0.638 -5.427,-1.123 -4.721,-0.938 -11.561,-2.258 -20.044,-3.715 -16.962,-2.919 -40.52,-6.322 -66.693,-8.585 -6.545,-0.569 -12.942,-1.036 -19.121,-1.442 -6.179,-0.405 -12.138,-0.781 -17.8,-1.3 -11.323,-0.986 -21.468,-2.635 -29.707,-5.088 -8.264,-2.372 -14.577,-5.413 -18.73,-7.813 -2.129,-1.122 -3.644,-2.22 -4.722,-2.884 -0.52,-0.33 -0.924,-0.587 -1.217,-0.772 -0.276,-0.172 -0.424,-0.249 -0.424,-0.249 0,0 0.128,0.106 0.394,0.293 0.286,0.195 0.681,0.466 1.189,0.815 1.06,0.693 2.561,1.82 4.679,2.973 4.132,2.46 10.446,5.565 18.727,7.991 8.256,2.506 18.429,4.198 29.767,5.213 5.669,0.532 11.633,0.918 17.81,1.33 6.177,0.413 12.569,0.884 19.109,1.452 26.157,2.262 49.707,5.604 66.678,8.43 8.487,1.41 15.334,2.673 20.066,3.55 2.347,0.443 4.177,0.789 5.446,1.028 0.606,0.109 1.077,0.194 1.418,0.256 C -0.167,-0.015 0,0 0,0"
             style="fill:#263238;fill-opacity:1;fill-rule:nonzero;stroke:none"
             id="path348" /></g><g
           id="g350"
           transform="translate(716.5201,160.0661)"><path
             d="m 0,0 c 0,-0.144 -10.18,-0.261 -22.734,-0.261 -12.56,0 -22.738,0.117 -22.738,0.261 0,0.144 10.178,0.261 22.738,0.261 C -10.18,0.261 0,0.144 0,0"
             style="fill:#263238;fill-opacity:1;fill-rule:nonzero;stroke:none"
             id="path352" /></g><g
           id="g354"
           transform="translate(530.2916,134.0876)"><path
             d="m 0,0 c 0,-0.145 -57.463,-0.261 -128.331,-0.261 -70.893,0 -128.344,0.116 -128.344,0.261 0,0.144 57.451,0.26 128.344,0.26 C -57.463,0.26 0,0.144 0,0"
             style="fill:#263238;fill-opacity:1;fill-rule:nonzero;stroke:none"
             id="path356" /></g><g
           id="g358"
           transform="translate(127.9484,159.2057)"><path
             d="m 0,0 c 0,-0.144 -8.125,-0.26 -18.146,-0.26 -10.024,0 -18.147,0.116 -18.147,0.26 0,0.144 8.123,0.261 18.147,0.261 C -8.125,0.261 0,0.144 0,0"
             style="fill:#263238;fill-opacity:1;fill-rule:nonzero;stroke:none"
             id="path360" /></g><g
           id="g362"
           transform="translate(656.2711,270.7936)"><path
             d="m 0,0 c 0,0 -6.818,-7.635 -4.139,-13.239 2.681,-5.603 30.385,-25.214 30.385,-25.214 l 20.11,-3.774 z"
             style="fill:#455a64;fill-opacity:1;fill-rule:nonzero;stroke:none"
             id="path364" /></g><g
           id="g366"
           transform="translate(465.0719,284.4572)"><path
             d="m 0,0 -4.524,-48.833 80.92,2.306 32.615,18.958 L 87.896,0 Z"
             style="fill:#455a64;fill-opacity:1;fill-rule:nonzero;stroke:none"
             id="path368" /></g><g
           id="g370"
           transform="translate(312.7609,233.1237)"><path
             d="m 0,0 c 0,0 48.815,35.256 68.078,42.265 18.589,6.763 28.28,8.458 45.741,8.954 16.69,0.475 26.859,0.015 26.859,0.015 l -12.9,-49.648 z"
             style="fill:#455a64;fill-opacity:1;fill-rule:nonzero;stroke:none"
             id="path372" /></g><g
           id="g374"
           transform="translate(305.6163,232.9616)"><path
             d="m 0,0 v 0 c 0,3.092 1.669,5.943 4.365,7.458 l 11.214,6.3 c 3.197,1.797 6.803,2.74 10.471,2.74 2.281,0 4.527,-0.365 6.658,-1.063 C 37.5,13.863 40.691,9.313 40.883,4.271 41.149,-2.731 35.544,-8.555 28.536,-8.555 H 8.555 C 3.83,-8.555 0,-4.725 0,0"
             style="fill:#e8505b;fill-opacity:1;fill-rule:nonzero;stroke:none"
             id="path376" /></g><g
           id="g378"
           transform="translate(305.6163,232.9616)"><path
             d="M 0,0 C 0.028,0.001 0.033,-0.379 0.129,-1.084 0.222,-1.787 0.477,-2.825 1.114,-4.013 1.77,-5.179 2.872,-6.484 4.552,-7.397 5.394,-7.84 6.37,-8.172 7.437,-8.306 8.496,-8.432 9.67,-8.36 10.885,-8.371 c 4.882,0.017 10.676,0.035 17.106,0.057 1.598,-0.01 3.212,0.187 4.762,0.779 1.546,0.576 3.003,1.49 4.229,2.689 1.224,1.199 2.232,2.675 2.855,4.334 0.631,1.657 0.879,3.476 0.746,5.289 -0.274,3.637 -2.223,7.004 -5.046,8.953 -1.398,1.005 -3.011,1.572 -4.635,1.954 -1.621,0.385 -3.252,0.569 -4.844,0.574 -3.187,0.004 -6.199,-0.709 -8.777,-1.881 C 15.99,13.802 14.812,13.071 13.641,12.438 12.48,11.793 11.366,11.174 10.301,10.581 8.176,9.404 6.25,8.337 4.552,7.396 2.865,6.488 1.763,5.18 1.118,4.009 0.467,2.827 0.23,1.783 0.124,1.083 0.021,0.378 0.03,-0.001 0,0 0,0 -0.051,0.378 0.02,1.097 0.094,1.81 0.301,2.88 0.939,4.105 1.571,5.317 2.685,6.69 4.41,7.65 c 1.686,0.96 3.599,2.05 5.711,3.252 1.059,0.602 2.168,1.232 3.323,1.887 1.162,0.64 2.336,1.38 3.658,1.981 2.623,1.213 5.697,1.959 8.956,1.968 1.628,0.002 3.298,-0.181 4.958,-0.571 1.649,-0.381 3.351,-0.971 4.813,-2.018 2.954,-2.033 4.987,-5.541 5.274,-9.33 0.139,-1.889 -0.123,-3.789 -0.782,-5.515 -0.653,-1.731 -1.704,-3.269 -2.982,-4.515 -1.28,-1.247 -2.801,-2.195 -4.412,-2.79 -1.608,-0.611 -3.319,-0.812 -4.936,-0.794 -6.43,0.022 -12.224,0.04 -17.106,0.056 C 9.667,-8.716 8.513,-8.778 7.393,-8.635 6.285,-8.481 5.277,-8.124 4.414,-7.653 2.688,-6.685 1.58,-5.317 0.935,-4.109 0.311,-2.878 0.086,-1.813 0.025,-1.097 -0.039,-0.379 0,0 0,0"
             style="fill:#263238;fill-opacity:1;fill-rule:nonzero;stroke:none"
             id="path380" /></g><g
           id="g382"
           transform="translate(681.735,102.6784)"><path
             d="m 0,0 c 0,0 0.001,0.235 0.028,0.693 0.033,0.475 0.078,1.151 0.137,2.031 0.055,0.892 0.161,1.995 0.22,3.3 0.045,1.31 0.096,2.817 0.154,4.511 0.017,1.697 -0.009,3.585 -0.028,5.65 -0.133,2.061 -0.144,4.308 -0.423,6.705 -0.432,4.795 -1.233,10.251 -2.894,16.086 -0.864,2.902 -1.836,5.932 -3.185,8.953 -1.279,3.05 -2.906,6.093 -4.827,9.087 -3.809,6.02 -9.202,11.563 -15.633,16.317 -6.451,4.743 -14.083,8.547 -22.426,11.056 -8.342,2.557 -17.417,3.486 -26.656,3.55 -9.248,0.024 -18.294,-1.233 -26.605,-3.87 -4.155,-1.311 -8.12,-2.964 -11.841,-4.887 -3.715,-1.937 -7.119,-4.261 -10.279,-6.717 -6.295,-4.958 -11.599,-10.519 -15.838,-16.242 -2.086,-2.883 -3.781,-5.884 -5.263,-8.84 -1.397,-2.997 -2.665,-5.914 -3.641,-8.786 -4.048,-11.458 -5.318,-21.31 -5.771,-28.06 -0.161,-3.391 -0.142,-6.028 -0.057,-7.813 0.051,-0.88 0.089,-1.556 0.117,-2.031 0.023,-0.458 0.022,-0.693 0.022,-0.693 0,0 -0.035,0.232 -0.076,0.688 -0.039,0.475 -0.095,1.151 -0.169,2.031 -0.118,1.786 -0.169,4.428 -0.04,7.829 0.392,6.77 1.609,16.655 5.627,28.171 0.968,2.887 2.232,5.822 3.626,8.84 1.482,2.976 3.179,6.004 5.278,8.92 4.249,5.768 9.565,11.366 15.889,16.363 3.175,2.476 6.597,4.821 10.344,6.78 3.747,1.943 7.736,3.609 11.918,4.934 8.364,2.661 17.466,3.927 26.759,3.904 9.275,-0.064 18.4,-1.001 26.803,-3.583 8.396,-2.532 16.074,-6.37 22.562,-11.156 3.246,-2.389 6.203,-4.999 8.844,-7.757 2.643,-2.754 4.966,-5.675 6.869,-8.714 1.927,-3.021 3.557,-6.091 4.833,-9.162 1.348,-3.043 2.313,-6.094 3.171,-9.014 C -0.806,33.206 -0.027,27.727 0.378,22.915 0.645,20.511 0.641,18.257 0.759,16.191 0.764,14.122 0.773,12.23 0.742,10.531 0.666,8.835 0.599,7.326 0.54,6.016 0.465,4.709 0.341,3.607 0.27,2.716 0.188,1.837 0.126,1.162 0.082,0.688 0.036,0.232 0,0 0,0"
             style="fill:#ffffff;fill-opacity:1;fill-rule:nonzero;stroke:none"
             id="path384" /></g><g
           id="g386"
           transform="translate(438.403,227.9538)"><path
             d="m 0,0 c 0,-0.009 -0.078,-0.018 -0.231,-0.027 -0.184,-0.008 -0.407,-0.017 -0.679,-0.029 -0.641,-0.013 -1.511,-0.033 -2.609,-0.057 -2.312,-0.041 -5.577,-0.1 -9.59,-0.172 -8.099,-0.152 -19.286,-0.45 -31.641,-0.786 -12.36,-0.336 -23.552,-0.575 -31.655,-0.633 -4.051,-0.032 -7.329,-0.035 -9.595,-0.007 -1.098,0.017 -1.968,0.03 -2.608,0.04 -0.272,0.01 -0.495,0.017 -0.679,0.024 -0.153,0.007 -0.231,0.016 -0.231,0.025 0,0.01 0.078,0.018 0.231,0.028 0.184,0.007 0.407,0.017 0.678,0.028 0.641,0.014 1.511,0.034 2.608,0.057 2.313,0.042 5.577,0.101 9.591,0.173 8.099,0.151 19.286,0.449 31.646,0.785 12.356,0.337 23.546,0.576 31.649,0.634 4.052,0.031 7.33,0.034 9.596,0.007 C -2.421,0.073 -1.551,0.06 -0.91,0.05 -0.638,0.04 -0.415,0.032 -0.231,0.026 -0.078,0.018 0,0.009 0,0"
             style="fill:#ffffff;fill-opacity:1;fill-rule:nonzero;stroke:none"
             id="path388" /></g><g
           id="g390"
           transform="translate(425.1432,212.9167)"><path
             d="m 0,0 c 0,-0.145 -3.923,-0.261 -8.761,-0.261 -4.839,0 -8.76,0.116 -8.76,0.261 0,0.144 3.921,0.26 8.76,0.26 C -3.923,0.26 0,0.144 0,0"
             style="fill:#ffffff;fill-opacity:1;fill-rule:nonzero;stroke:none"
             id="path392" /></g><g
           id="g394"
           transform="translate(428.358,266.4308)"><path
             d="m 0,0 c 0.055,-0.133 -10.821,-4.662 -24.289,-10.112 -13.472,-5.453 -24.433,-9.764 -24.487,-9.631 -0.054,0.133 10.82,4.66 24.292,10.113 C -11.018,-4.179 -0.054,0.133 0,0"
             style="fill:#ffffff;fill-opacity:1;fill-rule:nonzero;stroke:none"
             id="path396" /></g><g
           id="g398"
           transform="translate(406.3209,263.0158)"><path
             d="m 0,0 c 0.057,-0.132 -10.299,-4.694 -23.127,-10.188 -12.833,-5.495 -23.278,-9.842 -23.335,-9.71 -0.056,0.133 10.297,4.693 23.13,10.189 C -10.504,-4.215 -0.057,0.132 0,0"
             style="fill:#ffffff;fill-opacity:1;fill-rule:nonzero;stroke:none"
             id="path400" /></g><g
           id="g402"
           transform="translate(546.0817,268.322)"><path
             d="m 0,0 c 0.054,-0.133 -10.822,-4.661 -24.29,-10.112 -13.472,-5.453 -24.433,-9.764 -24.486,-9.631 -0.055,0.134 10.819,4.66 24.291,10.113 C -11.018,-4.179 -0.054,0.133 0,0"
             style="fill:#ffffff;fill-opacity:1;fill-rule:nonzero;stroke:none"
             id="path404" /></g><g
           id="g406"
           transform="translate(524.0436,264.9069)"><path
             d="m 0,0 c 0.057,-0.132 -10.299,-4.694 -23.127,-10.188 -12.832,-5.495 -23.278,-9.842 -23.334,-9.709 -0.057,0.131 10.297,4.692 23.129,10.188 C -10.504,-4.215 -0.056,0.132 0,0"
             style="fill:#ffffff;fill-opacity:1;fill-rule:nonzero;stroke:none"
             id="path408" /></g><g
           id="g410"
           transform="translate(548.2067,227.9616)"><path
             d="m 0,0 c 0.001,-0.144 -21.629,-0.389 -48.306,-0.548 -26.685,-0.159 -48.311,-0.172 -48.312,-0.027 -0.001,0.143 21.624,0.388 48.309,0.548 C -21.632,0.132 -0.001,0.144 0,0"
             style="fill:#ffffff;fill-opacity:1;fill-rule:nonzero;stroke:none"
             id="path412" /></g><g
           id="g414"
           transform="translate(572.1598,213.7536)"><path
             d="m 0,0 c 0.001,-0.145 -6.064,-0.317 -13.547,-0.388 -7.485,-0.069 -13.553,-0.009 -13.554,0.134 -0.001,0.145 6.064,0.317 13.549,0.388 C -6.069,0.203 -0.001,0.144 0,0"
             style="fill:#ffffff;fill-opacity:1;fill-rule:nonzero;stroke:none"
             id="path416" /></g><g
           id="g418"
           transform="translate(158.0104,221.1462)"><path
             d="m 0,0 c 0.001,-0.018 -0.201,-0.057 -0.588,-0.113 -0.444,-0.058 -1.005,-0.131 -1.696,-0.222 -0.737,-0.084 -1.637,-0.195 -2.677,-0.367 -1.04,-0.166 -2.231,-0.317 -3.531,-0.579 -2.612,-0.453 -5.695,-1.139 -9.079,-2.039 -3.374,-0.938 -7.045,-2.111 -10.813,-3.575 -3.76,-1.488 -7.251,-3.124 -10.363,-4.731 -3.095,-1.641 -5.822,-3.233 -8.045,-4.677 -1.132,-0.691 -2.107,-1.39 -2.982,-1.975 -0.88,-0.581 -1.616,-1.112 -2.214,-1.551 -0.568,-0.403 -1.029,-0.731 -1.394,-0.989 -0.322,-0.222 -0.497,-0.332 -0.508,-0.318 -0.011,0.014 0.142,0.152 0.444,0.401 0.35,0.279 0.792,0.632 1.337,1.068 0.58,0.465 1.301,1.021 2.167,1.626 0.862,0.61 1.825,1.333 2.948,2.047 2.206,1.488 4.926,3.121 8.023,4.792 3.115,1.639 6.617,3.297 10.396,4.793 3.787,1.471 7.482,2.637 10.88,3.552 3.407,0.879 6.512,1.531 9.141,1.939 1.309,0.24 2.507,0.365 3.554,0.504 1.046,0.144 1.953,0.227 2.695,0.28 0.695,0.052 1.26,0.093 1.707,0.126 C -0.208,0.015 -0.001,0.018 0,0"
             style="fill:#ffffff;fill-opacity:1;fill-rule:nonzero;stroke:none"
             id="path420" /></g><g
           id="g422"
           transform="translate(336.5826,244.739)"><path
             d="M 0,0 C -0.04,-0.029 -0.295,0.392 -0.963,0.931 -1.622,1.464 -2.75,2.073 -4.267,2.266 -5.784,2.467 -7.62,2.208 -9.598,1.688 c -1.985,-0.496 -4.129,-1.202 -6.296,-2.141 -4.347,-1.871 -7.888,-4.36 -10.243,-6.368 -2.376,-1.998 -3.634,-3.47 -3.708,-3.401 -0.027,0.024 0.275,0.401 0.845,1.064 0.582,0.651 1.453,1.572 2.622,2.614 2.313,2.099 5.871,4.673 10.276,6.568 2.196,0.953 4.373,1.655 6.391,2.13 2.003,0.5 3.915,0.736 5.495,0.476 C -2.63,2.381 -1.476,1.687 -0.831,1.085 -0.503,0.783 -0.293,0.508 -0.163,0.316 -0.038,0.119 0.014,0.01 0,0"
             style="fill:#ffffff;fill-opacity:1;fill-rule:nonzero;stroke:none"
             id="path424" /></g><g
           id="g426"
           transform="translate(658.5367,271.1481)"><path
             d="m 0,0 c 0,0 -1.483,-0.446 -4.257,-0.435 -1.381,0.034 -3.073,0.196 -4.992,0.618 -1.92,0.416 -4.06,1.085 -6.364,1.964 -2.309,0.872 -4.774,1.976 -7.432,3.112 -1.34,0.541 -2.725,1.099 -4.151,1.675 -1.429,0.569 -2.937,1.06 -4.462,1.616 -6.144,2.113 -13.044,4.005 -20.382,5.555 -14.69,3.085 -28.268,4.361 -38.088,4.742 -2.456,0.133 -4.681,0.135 -6.634,0.19 -1.943,0 -3.623,0 -5.011,0 -1.346,-0.03 -2.405,-0.054 -3.167,-0.071 -0.338,-0.002 -0.61,-0.004 -0.826,-0.005 -0.185,0.001 -0.281,0.007 -0.281,0.016 -0.001,0.009 0.094,0.021 0.279,0.037 0.215,0.015 0.486,0.033 0.823,0.057 0.762,0.04 1.821,0.097 3.167,0.168 1.39,0.025 3.072,0.054 5.017,0.089 1.956,-0.027 4.186,-0.003 6.647,-0.113 9.841,-0.287 23.454,-1.508 38.182,-4.6 7.357,-1.555 14.276,-3.467 20.431,-5.611 1.528,-0.565 3.038,-1.065 4.471,-1.643 1.427,-0.586 2.814,-1.155 4.156,-1.706 2.656,-1.155 5.105,-2.276 7.394,-3.165 2.285,-0.896 4.398,-1.584 6.294,-2.023 1.896,-0.446 3.567,-0.634 4.935,-0.699 1.369,-0.036 2.435,0.032 3.151,0.117 0.335,0.041 0.604,0.073 0.818,0.099 C -0.098,0.003 -0.002,0.009 0,0"
             style="fill:#263238;fill-opacity:1;fill-rule:nonzero;stroke:none"
             id="path428" /></g></g></g><g
       id="g430"><g
         id="g432"
         clip-path="url(#clipPath436)"><g
           id="g438"
           transform="translate(177.4088,269.7731)"><path
             d="m 0,0 c -3.995,21.88 -6.685,25.241 -8.946,32.769 -2.235,7.439 -5.849,12.422 -10.325,14.143 -3.017,1.161 -18.064,6.59 -23.307,4.79 -5.834,-2.003 -10.922,-4.908 -14.528,-7.297 -3.513,-2.326 -6.168,-5.727 -7.584,-9.696 l -8.054,-22.568 14.085,-14.047 7.059,15.003 7.661,-17.956 -1.134,-18.153 43.938,-11.821 C 2.868,-28.434 2.267,-12.416 0,0"
             style="fill:#e8505b;fill-opacity:1;fill-rule:nonzero;stroke:none"
             id="path440" /></g><g
           id="g442"><g
             id="g444" /><g
             id="g456"><g
               clip-path="url(#clipPath448)"
               opacity="0.199997"
               id="g454"><g
                 transform="translate(165.9664,293.6384)"
                 id="g452"><path
                   d="m 0,0 c -1.939,-11.389 -2.25,-12.962 -4.189,-24.352 -0.665,-3.909 -2.613,-10.008 -5.397,-12.833 -2.063,-2.093 -4.085,-4.108 -6.945,-4.786 -2.666,-0.631 -6.71,-0.701 -9.217,0.406 -2.505,1.106 -4.639,5.967 -3.607,8.505 3.724,-0.797 4.875,-2.043 8.089,0 2.803,1.782 6.778,5.721 8.302,8.671 C -6.552,-11.985 -4.79,-11.544 0,0"
                   style="fill:#000000;fill-opacity:1;fill-rule:nonzero;stroke:none"
                   id="path450" /></g></g></g></g><g
           id="g458"
           transform="translate(134.173,271.5724)"><path
             d="m 0,0 c -0.065,-0.036 -0.788,1.131 -1.94,3.025 -1.232,2.01 -2.797,4.561 -4.527,7.383 -1.774,2.796 -3.377,5.323 -4.639,7.314 -1.195,1.868 -1.925,3.03 -1.864,3.073 0.03,0.02 0.252,-0.243 0.628,-0.738 0.378,-0.494 0.904,-1.221 1.542,-2.13 1.275,-1.817 2.98,-4.368 4.775,-7.244 C -4.233,7.808 -2.692,5.155 -1.621,3.21 -1.085,2.238 -0.664,1.444 -0.386,0.889 -0.108,0.333 0.031,0.018 0,0"
             style="fill:#263238;fill-opacity:1;fill-rule:nonzero;stroke:none"
             id="path460" /></g><g
           id="g462"
           transform="translate(164.8278,251.1413)"><path
             d="m 0,0 c 0.011,-0.034 -0.356,-0.171 -1.032,-0.389 -0.336,-0.114 -0.752,-0.24 -1.245,-0.346 -0.492,-0.111 -1.048,-0.264 -1.678,-0.351 -1.251,-0.231 -2.764,-0.373 -4.447,-0.403 -1.682,-10e-4 -3.536,0.128 -5.451,0.467 -1.912,0.359 -3.691,0.893 -5.266,1.488 -1.564,0.621 -2.929,1.289 -4.017,1.947 -0.559,0.303 -1.026,0.643 -1.447,0.92 -0.423,0.274 -0.768,0.539 -1.042,0.764 -0.555,0.443 -0.85,0.7 -0.828,0.728 0.059,0.08 1.294,-0.888 3.497,-2.092 1.098,-0.608 2.459,-1.231 4.007,-1.818 1.559,-0.561 3.311,-1.071 5.19,-1.424 1.883,-0.333 3.701,-0.474 5.357,-0.5 1.656,0.003 3.149,0.105 4.391,0.287 C -1.525,-0.375 -0.028,0.096 0,0"
             style="fill:#263238;fill-opacity:1;fill-rule:nonzero;stroke:none"
             id="path464" /></g><g
           id="g466"
           transform="translate(147.1998,285.2311)"><path
             d="m 0,0 c -0.076,-0.392 -4.803,-9.791 -4.803,-9.791 l -22.277,11.737 -2.274,9.602 c -0.355,1.498 -1.277,2.801 -2.573,3.637 -1.374,0.886 -3.052,1.171 -4.64,0.789 l -6.57,-2.69 c -0.545,-0.223 -0.972,-0.692 -1.081,-1.271 -0.091,-0.487 0.028,-0.957 0.867,-0.891 1.633,0.127 5.032,0.488 5.032,0.488 l -1.552,-5.468 c -0.406,-1.434 -0.249,-2.969 0.441,-4.29 l 0.988,-1.894 2.171,-3.511 -0.044,-0.031 c 0,0 21.656,-22.247 33.816,-23.694 7.306,-0.869 15.588,19.619 15.588,19.619 z"
             style="fill:#b78876;fill-opacity:1;fill-rule:nonzero;stroke:none"
             id="path468" /></g><g
           id="g470"
           transform="translate(108.6925,296.4724)"><path
             d="M 0,0 C -0.024,0.034 0.167,0.232 0.541,0.479 0.908,0.716 1.498,1.028 2.227,0.999 2.974,0.956 3.527,0.47 3.721,0.04 3.923,-0.408 3.787,-0.714 3.758,-0.697 3.702,-0.694 3.737,-0.411 3.518,-0.07 3.312,0.264 2.818,0.641 2.21,0.673 1.59,0.701 1.037,0.459 0.654,0.278 0.267,0.091 0.027,-0.04 0,0"
             style="fill:#aa6550;fill-opacity:1;fill-rule:nonzero;stroke:none"
             id="path472" /></g><g
           id="g474"
           transform="translate(111.4962,293.0617)"><path
             d="m 0,0 c -0.046,-0.017 -0.143,0.182 -0.357,0.445 -0.211,0.263 -0.561,0.586 -1.031,0.772 -0.47,0.186 -0.947,0.189 -1.28,0.142 -0.337,-0.046 -0.543,-0.125 -0.566,-0.081 -0.02,0.035 0.156,0.193 0.516,0.305 0.353,0.114 0.903,0.153 1.449,-0.063 C -0.722,1.304 -0.348,0.899 -0.167,0.575 0.018,0.247 0.038,0.011 0,0"
             style="fill:#aa6550;fill-opacity:1;fill-rule:nonzero;stroke:none"
             id="path476" /></g><g
           id="g478"
           transform="translate(151.8209,314.902)"><path
             d="M 0,0 -6.033,-28.592 9.957,-38.201 16.1,-20.63 C 16.1,-20.63 13.558,0.704 0,0"
             style="fill:#e8505b;fill-opacity:1;fill-rule:nonzero;stroke:none"
             id="path480" /></g><g
           id="g482"
           transform="translate(160.4415,314.3986)"><path
             d="m 0,0 c 0.008,-0.016 -0.133,-0.104 -0.408,-0.256 -0.275,-0.151 -0.682,-0.372 -1.215,-0.64 -1.063,-0.544 -2.614,-1.301 -4.565,-2.169 -3.894,-1.722 -9.437,-3.916 -15.897,-5.011 -6.463,-1.098 -12.496,-0.586 -16.621,0.562 -2.069,0.558 -3.688,1.195 -4.767,1.711 -0.548,0.239 -0.947,0.48 -1.227,0.624 -0.276,0.152 -0.416,0.239 -0.407,0.255 0.02,0.04 0.617,-0.241 1.715,-0.693 1.097,-0.456 2.719,-1.033 4.777,-1.54 4.103,-1.043 10.052,-1.49 16.444,-0.405 6.392,1.082 11.919,3.205 15.837,4.835 1.963,0.822 3.536,1.527 4.624,2.013 C -0.623,-0.228 -0.017,0.034 0,0"
             style="fill:#ebebeb;fill-opacity:1;fill-rule:nonzero;stroke:none"
             id="path484" /></g><g
           id="g486"
           transform="translate(164.6481,311.2414)"><path
             d="m 0,0 c 0.01,-0.015 -0.143,-0.126 -0.443,-0.326 -0.353,-0.225 -0.792,-0.506 -1.328,-0.849 -0.575,-0.372 -1.291,-0.809 -2.156,-1.254 -0.861,-0.452 -1.821,-1.013 -2.946,-1.5 -0.559,-0.256 -1.142,-0.524 -1.749,-0.802 -0.609,-0.276 -1.267,-0.507 -1.936,-0.775 -1.331,-0.558 -2.806,-1.007 -4.348,-1.51 -3.112,-0.909 -6.601,-1.691 -10.318,-2.15 -3.723,-0.422 -7.299,-0.476 -10.538,-0.317 -1.617,0.129 -3.155,0.221 -4.581,0.452 -0.713,0.106 -1.406,0.177 -2.063,0.302 -0.655,0.129 -1.285,0.253 -1.888,0.373 -1.208,0.21 -2.271,0.531 -3.214,0.771 -0.946,0.23 -1.743,0.487 -2.389,0.715 -0.602,0.209 -1.094,0.379 -1.49,0.516 -0.338,0.124 -0.512,0.197 -0.507,0.213 0.006,0.017 0.192,-0.022 0.541,-0.113 0.402,-0.112 0.903,-0.251 1.515,-0.422 0.652,-0.197 1.454,-0.425 2.402,-0.628 0.945,-0.211 2.008,-0.506 3.214,-0.691 0.601,-0.108 1.228,-0.221 1.881,-0.338 0.654,-0.114 1.344,-0.174 2.053,-0.27 1.417,-0.211 2.946,-0.286 4.551,-0.401 3.215,-0.131 6.759,-0.063 10.452,0.355 3.686,0.455 7.148,1.216 10.243,2.094 1.533,0.486 3.002,0.916 4.331,1.452 0.667,0.258 1.324,0.478 1.934,0.742 0.607,0.266 1.191,0.522 1.75,0.767 1.129,0.462 2.094,0.997 2.963,1.423 0.875,0.418 1.602,0.827 2.19,1.171 0.555,0.308 1.01,0.561 1.375,0.764 C -0.181,-0.067 -0.01,0.015 0,0"
             style="fill:#ebebeb;fill-opacity:1;fill-rule:nonzero;stroke:none"
             id="path488" /></g><g
           id="g490"
           transform="translate(161.7775,276.7014)"><path
             d="m 0,0 c -0.015,-0.026 -0.471,0.208 -1.298,0.661 -0.886,0.496 -2.069,1.16 -3.522,1.975 -3.049,1.757 -7.222,4.162 -12.026,6.93 L -17,9.655 l 0.034,0.173 c 0.429,2.136 0.89,4.426 1.365,6.792 0.727,3.556 1.419,6.941 2.051,10.032 0.334,1.538 0.598,3.007 0.903,4.384 0.317,1.372 0.721,2.641 1.283,3.716 1.102,2.19 2.862,3.376 4.135,3.786 0.645,0.208 1.175,0.26 1.529,0.252 0.354,-0.008 0.537,-0.044 0.535,-0.058 0.006,-0.066 -0.761,0.073 -1.997,-0.385 -1.206,-0.454 -2.856,-1.636 -3.873,-3.761 -0.522,-1.048 -0.896,-2.288 -1.191,-3.645 -0.267,-1.375 -0.552,-2.838 -0.852,-4.376 -0.619,-3.094 -1.298,-6.481 -2.01,-10.039 -0.482,-2.365 -0.949,-4.654 -1.384,-6.789 l -0.12,0.262 C -11.825,7.168 -7.685,4.708 -4.659,2.911 -3.237,2.043 -2.079,1.337 -1.211,0.808 -0.412,0.309 0.015,0.026 0,0"
             style="fill:#263238;fill-opacity:1;fill-rule:nonzero;stroke:none"
             id="path492" /></g><g
           id="g494"
           transform="translate(166.674,295.1169)"><path
             d="m 0,0 c 0.065,-0.004 0.077,-1.024 -0.08,-2.666 -0.155,-1.639 -0.508,-3.897 -1.147,-6.333 -0.643,-2.436 -1.447,-4.575 -2.12,-6.079 -0.672,-1.505 -1.184,-2.387 -1.242,-2.359 -0.072,0.034 0.322,0.97 0.901,2.499 0.581,1.529 1.321,3.663 1.957,6.072 0.632,2.409 1.039,4.63 1.286,6.246 C -0.197,-1.003 -0.079,0.006 0,0"
             style="fill:#263238;fill-opacity:1;fill-rule:nonzero;stroke:none"
             id="path496" /></g><g
           id="g498"
           transform="translate(79.9176,136.0944)"><path
             d="m 0,0 -0.177,-15.266 c 0,0 -15.576,-4.948 -15.884,-7.765 l 29.588,-1.406 1.252,23.775 z"
             style="fill:#455a64;fill-opacity:1;fill-rule:nonzero;stroke:none"
             id="path500" /></g><g
           id="g502"
           transform="translate(88.9508,121.6755)"><path
             d="m 0,0 c 0.565,-0.184 0.93,-0.846 0.77,-1.418 -0.16,-0.572 -0.831,-0.949 -1.399,-0.775 -0.569,0.172 -1.031,0.955 -0.808,1.506 0.224,0.55 1.035,0.951 1.545,0.645"
             style="fill:#e0e0e0;fill-opacity:1;fill-rule:nonzero;stroke:none"
             id="path504" /></g><g
           id="g506"
           transform="translate(93.445,111.6569)"><path
             d="m 0,0 0.032,2.401 -28.381,0.451 c 0,0 -1.344,-0.511 -1.239,-1.446 z"
             style="fill:#e0e0e0;fill-opacity:1;fill-rule:nonzero;stroke:none"
             id="path508" /></g><g
           id="g510"
           transform="translate(79.2682,121.0016)"><path
             d="M 0,0 C -0.002,-0.145 0.717,-0.244 1.406,-0.743 2.108,-1.223 2.445,-1.866 2.581,-1.815 2.715,-1.794 2.541,-0.92 1.696,-0.331 0.857,0.265 -0.025,0.134 0,0"
             style="fill:#263238;fill-opacity:1;fill-rule:nonzero;stroke:none"
             id="path512" /></g><g
           id="g514"
           transform="translate(76.1041,119.8659)"><path
             d="m 0,0 c -0.04,-0.139 0.574,-0.414 1.036,-1.049 0.48,-0.62 0.573,-1.287 0.717,-1.288 0.135,-0.028 0.275,0.813 -0.315,1.591 C 0.856,0.036 0.01,0.138 0,0"
             style="fill:#263238;fill-opacity:1;fill-rule:nonzero;stroke:none"
             id="path516" /></g><g
           id="g518"
           transform="translate(74.1652,116.235)"><path
             d="M 0,0 C 0.13,-0.037 0.365,0.676 0.032,1.484 -0.296,2.296 -0.962,2.64 -1.029,2.522 -1.117,2.407 -0.698,1.962 -0.435,1.294 -0.155,0.632 -0.143,0.021 0,0"
             style="fill:#263238;fill-opacity:1;fill-rule:nonzero;stroke:none"
             id="path520" /></g><g
           id="g522"
           transform="translate(79.6945,124.4763)"><path
             d="M 0,0 C 0.055,-0.135 0.727,0.033 1.541,-0.061 2.357,-0.139 2.979,-0.442 3.061,-0.322 3.149,-0.222 2.554,0.342 1.594,0.439 0.634,0.545 -0.065,0.117 0,0"
             style="fill:#263238;fill-opacity:1;fill-rule:nonzero;stroke:none"
             id="path524" /></g><g
           id="g526"><g
             id="g528" /><g
             id="g540"><g
               clip-path="url(#clipPath532)"
               opacity="0.300003"
               id="g538"><g
                 transform="translate(79.8864,133.071)"
                 id="g536"><path
                   d="m 0,0 -0.035,-2.721 14.548,-0.558 0.135,2.447 z"
                   style="fill:#000000;fill-opacity:1;fill-rule:nonzero;stroke:none"
                   id="path534" /></g></g></g></g><g
           id="g542"
           transform="translate(79.7872,127.5554)"><path
             d="m 0,0 c -0.004,-0.06 0.562,-0.176 1.482,-0.062 0.458,0.057 1,0.18 1.573,0.402 0.286,0.112 0.58,0.248 0.872,0.411 C 4.068,0.833 4.234,0.913 4.392,1.078 4.559,1.222 4.668,1.601 4.494,1.844 4.354,2.078 4.09,2.189 3.877,2.204 3.659,2.222 3.48,2.187 3.317,2.154 2.984,2.09 2.67,1.995 2.381,1.882 1.804,1.651 1.329,1.348 0.972,1.05 0.255,0.446 -0.004,-0.082 0.043,-0.112 0.107,-0.163 0.462,0.273 1.186,0.765 1.546,1.01 2.004,1.259 2.543,1.447 2.813,1.54 3.102,1.617 3.406,1.669 3.724,1.736 3.99,1.726 4.064,1.583 4.09,1.528 4.093,1.507 4.023,1.418 3.952,1.337 3.821,1.26 3.682,1.18 3.413,1.021 3.142,0.885 2.878,0.77 2.35,0.537 1.848,0.387 1.42,0.288 0.561,0.092 0.001,0.079 0,0"
             style="fill:#263238;fill-opacity:1;fill-rule:nonzero;stroke:none"
             id="path544" /></g><g
           id="g546"
           transform="translate(79.9655,127.3395)"><path
             d="M 0,0 C 0.05,-0.024 0.361,0.479 0.459,1.413 0.505,1.876 0.484,2.44 0.333,3.045 0.257,3.346 0.147,3.656 -0.001,3.962 -0.161,4.263 -0.354,4.664 -0.911,4.755 -1.203,4.78 -1.457,4.563 -1.549,4.371 -1.657,4.176 -1.684,4.005 -1.727,3.836 -1.798,3.492 -1.808,3.153 -1.775,2.838 c 0.063,-0.635 0.296,-1.171 0.56,-1.562 0.542,-0.794 1.136,-0.995 1.151,-0.947 0.051,0.07 -0.439,0.374 -0.847,1.132 -0.2,0.373 -0.372,0.861 -0.402,1.414 -0.016,0.275 0.002,0.566 0.068,0.855 0.061,0.312 0.191,0.561 0.307,0.523 0.147,-0.005 0.386,-0.254 0.496,-0.51 0.139,-0.272 0.247,-0.55 0.328,-0.821 C 0.046,2.379 0.103,1.863 0.103,1.43 0.103,0.56 -0.078,0.025 0,0"
             style="fill:#263238;fill-opacity:1;fill-rule:nonzero;stroke:none"
             id="path548" /></g><g
           id="g550"
           transform="translate(140.2189,246.6022)"><path
             d="m 0,0 c 0,0 -46.208,19.381 -60.518,20.211 -8.974,0.521 -15.761,-5.244 -14.541,-14.528 0.611,-4.645 13.381,-59.015 13.381,-59.015 l 19.479,8.898 -9.355,37.587 37.957,-18.454 z"
             style="fill:#263238;fill-opacity:1;fill-rule:nonzero;stroke:none"
             id="path552" /></g><g
           id="g554"
           transform="translate(82.8297,249.2717)"><path
             d="M 0,0 C -0.151,-0.129 1.384,-2.102 2.99,-4.713 4.608,-7.319 5.687,-9.574 5.869,-9.498 6.035,-9.434 5.22,-7.017 3.568,-4.357 1.928,-1.691 0.13,0.12 0,0"
             style="fill:#455a64;fill-opacity:1;fill-rule:nonzero;stroke:none"
             id="path556" /></g><g
           id="g558"
           transform="translate(79.046,247.112)"><path
             d="M 0,0 C -0.097,-0.171 2.237,-1.651 4.971,-3.668 7.713,-5.676 9.822,-7.462 9.956,-7.318 10.081,-7.189 8.153,-5.157 5.374,-3.12 2.602,-1.076 0.085,0.157 0,0"
             style="fill:#455a64;fill-opacity:1;fill-rule:nonzero;stroke:none"
             id="path560" /></g><g
           id="g562"
           transform="translate(176.2746,234.9401)"><path
             d="m 0,0 c 0,0 -5.815,-7.487 -11.357,-9.535 -6.964,-2.575 -58.457,-26.869 -58.457,-26.869 0,0 -9.339,-69.385 -8.601,-66.49 l -21.551,0.52 2.344,63.91 c 0.282,8.188 6.839,17.581 13.885,21.76 l 47.681,28.366 z"
             style="fill:#263238;fill-opacity:1;fill-rule:nonzero;stroke:none"
             id="path564" /></g><g
           id="g566"
           transform="translate(78.2433,184.7809)"><path
             d="m 0,0 c 0.023,-0.001 0.053,0.301 0.088,0.876 0.034,0.644 0.078,1.478 0.131,2.514 0.125,2.177 0.243,5.344 0.853,9.188 0.635,3.808 1.8,8.412 4.656,12.669 1.418,2.12 3.317,4.044 5.54,5.722 2.22,1.683 4.722,3.157 7.312,4.626 10.37,5.943 19.321,11.999 25.938,16.153 3.296,2.098 5.978,3.772 7.841,4.912 0.882,0.544 1.593,0.983 2.141,1.321 0.488,0.306 0.738,0.477 0.727,0.498 -0.012,0.02 -0.285,-0.111 -0.794,-0.379 -0.509,-0.271 -1.26,-0.668 -2.208,-1.212 -1.907,-1.072 -4.63,-2.685 -7.962,-4.733 C 37.577,48.103 28.58,42.108 18.243,36.186 15.65,34.714 13.122,33.222 10.864,31.498 8.605,29.782 6.651,27.787 5.208,25.597 2.304,21.2 1.18,16.508 0.597,12.651 0.042,8.76 -0.001,5.582 -0.045,3.397 -0.046,2.36 -0.048,1.524 -0.049,0.879 -0.04,0.303 -0.023,0 0,0"
             style="fill:#455a64;fill-opacity:1;fill-rule:nonzero;stroke:none"
             id="path568" /></g><g
           id="g570"
           transform="translate(157.2536,227.6276)"><path
             d="m 0,0 c 0.076,0.086 -0.548,0.67 -1.319,1.775 -0.774,1.099 -1.626,2.778 -2.037,4.785 -0.401,2.01 -0.268,3.888 0.019,5.202 0.281,1.317 0.629,2.097 0.526,2.147 C -2.874,13.945 -3.385,13.228 -3.802,11.88 -4.224,10.542 -4.447,8.549 -4.022,6.425 -3.589,4.304 -2.609,2.554 -1.701,1.484 -0.793,0.404 -0.043,-0.058 0,0"
             style="fill:#455a64;fill-opacity:1;fill-rule:nonzero;stroke:none"
             id="path572" /></g><g
           id="g574"
           transform="translate(84.2252,132.5661)"><path
             d="m 0,0 c 0.012,-0.002 0.034,0.119 0.067,0.354 0.034,0.276 0.077,0.621 0.13,1.049 0.104,0.974 0.248,2.326 0.431,4.039 0.351,3.565 0.849,8.631 1.462,14.87 0.299,3.146 0.626,6.584 0.976,10.273 0.358,3.691 0.726,7.641 1.016,11.798 0.322,4.153 0.715,8.508 1.472,12.965 0.783,4.443 1.944,9.008 3.959,13.341 1.982,4.348 4.791,8.148 7.825,11.473 3.078,3.301 6.414,6.134 9.759,8.598 6.7,4.932 13.313,8.532 18.756,11.71 5.47,3.141 9.828,5.821 12.727,7.84 1.456,0.998 2.559,1.812 3.295,2.38 0.339,0.268 0.613,0.483 0.831,0.655 0.184,0.15 0.275,0.232 0.268,0.241 -0.007,0.01 -0.112,-0.054 -0.31,-0.186 -0.228,-0.157 -0.515,-0.354 -0.87,-0.599 -0.76,-0.531 -1.886,-1.31 -3.362,-2.273 -2.937,-1.945 -7.319,-4.554 -12.817,-7.641 C 40.144,97.764 33.494,94.202 26.725,89.264 23.348,86.797 19.971,83.949 16.85,80.614 13.771,77.254 10.916,73.402 8.896,68.975 6.847,64.567 5.679,59.942 4.898,55.46 4.144,50.966 3.763,46.59 3.458,42.43 3.185,38.267 2.838,34.323 2.504,30.63 2.184,26.939 1.885,23.5 1.611,20.354 1.088,14.108 0.664,9.036 0.365,5.468 0.235,3.749 0.134,2.394 0.06,1.417 0.035,0.985 0.015,0.639 -0.002,0.361 -0.012,0.123 -0.012,0.001 0,0"
             style="fill:#455a64;fill-opacity:1;fill-rule:nonzero;stroke:none"
             id="path576" /></g><g
           id="g578"
           transform="translate(134.9733,356.6642)"><path
             d="m 0,0 c -1.332,3.771 -5.752,6.148 -9.632,5.182 -0.891,-0.223 -1.765,-0.599 -2.684,-0.578 -1.127,0.024 -2.152,0.64 -3.258,0.86 -2.379,0.475 -4.98,-1.211 -5.518,-3.576 -1.89,0.388 -3.994,0.122 -5.495,-1.091 -1.502,-1.212 -2.196,-3.48 -1.285,-5.181 0.392,-0.73 1.031,-1.309 1.387,-2.056 0.589,-1.232 0.32,-2.71 0.734,-4.011 0.612,-1.928 2.65,-3.118 4.66,-3.347 2.01,-0.228 4.018,0.318 5.968,0.858"
             style="fill:#263238;fill-opacity:1;fill-rule:nonzero;stroke:none"
             id="path580" /></g><g
           id="g582"
           transform="translate(125.695,317.1149)"><path
             d="m 0,0 c -0.253,1.935 -0.42,3.292 -0.42,3.292 0,0 -6.442,0.044 -9.044,8.027 -1.295,3.97 -2.151,10.68 -2.675,16.193 -0.472,4.962 3.279,9.318 8.257,9.578 l 17.119,0.896 0.368,-2.652 4.512,-32.915 C 18.805,-2.603 15.275,-7.226 10.249,-7.884 5.243,-8.539 0.654,-5.006 0,0"
             style="fill:#b78876;fill-opacity:1;fill-rule:nonzero;stroke:none"
             id="path584" /></g><g
           id="g586"
           transform="translate(115.9806,339.9016)"><path
             d="M 0,0 C 0.068,-0.558 0.598,-0.959 1.181,-0.898 1.764,-0.838 2.182,-0.337 2.113,0.22 2.045,0.778 1.516,1.181 0.933,1.12 0.35,1.059 -0.068,0.558 0,0"
             style="fill:#263238;fill-opacity:1;fill-rule:nonzero;stroke:none"
             id="path588" /></g><g
           id="g590"
           transform="translate(115.5563,341.3835)"><path
             d="M 0,0 C 0.152,-0.116 0.854,0.599 1.985,0.775 3.112,0.968 4.034,0.519 4.134,0.677 4.185,0.748 4.013,0.974 3.61,1.179 3.213,1.385 2.566,1.542 1.862,1.428 1.159,1.312 0.608,0.958 0.31,0.639 0.004,0.317 -0.074,0.051 0,0"
             style="fill:#263238;fill-opacity:1;fill-rule:nonzero;stroke:none"
             id="path592" /></g><g
           id="g594"
           transform="translate(126.7223,341.7243)"><path
             d="M 0,0 C 0.069,-0.558 0.598,-0.959 1.181,-0.899 1.764,-0.838 2.182,-0.338 2.113,0.22 2.045,0.778 1.516,1.18 0.933,1.12 0.35,1.059 -0.068,0.558 0,0"
             style="fill:#263238;fill-opacity:1;fill-rule:nonzero;stroke:none"
             id="path596" /></g><g
           id="g598"
           transform="translate(126.6994,342.9382)"><path
             d="M 0,0 C 0.152,-0.116 0.855,0.599 1.985,0.776 3.111,0.969 4.033,0.519 4.134,0.677 4.185,0.748 4.014,0.974 3.609,1.179 3.212,1.385 2.566,1.543 1.862,1.428 1.159,1.312 0.608,0.959 0.31,0.64 0.005,0.318 -0.074,0.052 0,0"
             style="fill:#263238;fill-opacity:1;fill-rule:nonzero;stroke:none"
             id="path600" /></g><g
           id="g602"
           transform="translate(123.9298,333.905)"><path
             d="m 0,0 c -0.005,0.065 -0.727,0.075 -1.888,0.039 -0.294,-0.016 -0.576,-0.002 -0.656,0.188 -0.101,0.197 -0.03,0.527 0.057,0.885 0.16,0.742 0.328,1.519 0.504,2.334 0.688,3.317 1.137,6.026 1.003,6.053 C -1.114,9.525 -1.78,6.858 -2.468,3.541 -2.63,2.724 -2.786,1.945 -2.934,1.2 -2.991,0.854 -3.12,0.453 -2.904,0.043 c 0.112,-0.203 0.349,-0.326 0.542,-0.346 0.194,-0.027 0.357,-0.004 0.501,0.01 C -0.706,-0.173 0.006,-0.065 0,0"
             style="fill:#263238;fill-opacity:1;fill-rule:nonzero;stroke:none"
             id="path604" /></g><g
           id="g606"
           transform="translate(125.275,320.4069)"><path
             d="m 0,0 c 0,0 5.566,0.521 10.502,4.669 0,0 -1.766,-6.048 -10.084,-6.585 z"
             style="fill:#aa6550;fill-opacity:1;fill-rule:nonzero;stroke:none"
             id="path608" /></g><g
           id="g610"
           transform="translate(127.38,333.652)"><path
             d="m 0,0 c -0.186,-0.019 0.007,-1.246 -0.904,-2.283 -0.909,-1.041 -2.24,-1.111 -2.221,-1.284 -0.005,-0.079 0.329,-0.192 0.883,-0.119 0.544,0.067 1.307,0.367 1.865,1.002 0.556,0.636 0.718,1.392 0.68,1.902 C 0.268,-0.262 0.083,0.021 0,0"
             style="fill:#263238;fill-opacity:1;fill-rule:nonzero;stroke:none"
             id="path612" /></g><g
           id="g614"
           transform="translate(125.7033,347.321)"><path
             d="M 0,0 C 0.161,-0.29 1.266,0.036 2.617,0.086 3.967,0.165 5.098,-0.054 5.23,0.25 5.288,0.394 5.056,0.654 4.576,0.882 4.1,1.111 3.372,1.285 2.562,1.247 1.752,1.208 1.043,0.965 0.591,0.692 0.136,0.419 -0.071,0.138 0,0"
             style="fill:#263238;fill-opacity:1;fill-rule:nonzero;stroke:none"
             id="path616" /></g><g
           id="g618"
           transform="translate(115.4523,344.7204)"><path
             d="M 0,0 C 0.239,-0.225 0.976,0.165 1.91,0.326 2.838,0.521 3.666,0.429 3.806,0.726 3.865,0.869 3.7,1.106 3.314,1.294 2.935,1.482 2.333,1.589 1.692,1.468 1.052,1.345 0.531,1.024 0.248,0.709 -0.042,0.393 -0.108,0.111 0,0"
             style="fill:#263238;fill-opacity:1;fill-rule:nonzero;stroke:none"
             id="path620" /></g><g
           id="g622"
           transform="translate(112.7062,348.2165)"><path
             d="m 0,0 c 0,0 4.53,-1.525 9.734,1.951 3.415,2.281 7.551,3.709 8.581,3.094 1.03,-0.614 1.703,-4.345 5.453,-4.984 0,0 0.66,-7.198 3.485,-6.58 2.013,0.44 0.836,8.38 -0.007,12.908 -0.338,1.815 -1.893,3.147 -3.738,3.218 L 18.236,9.812 11.653,7.975 4.594,6.05 -0.774,3.823 Z"
             style="fill:#263238;fill-opacity:1;fill-rule:nonzero;stroke:none"
             id="path624" /></g><g
           id="g626"
           transform="translate(139.3268,344.6086)"><path
             d="M 0,0 C 0.107,0.075 4.476,2.373 5.285,-2.396 6.093,-7.164 1.139,-6.993 1.107,-6.857 1.076,-6.722 0,0 0,0"
             style="fill:#b78876;fill-opacity:1;fill-rule:nonzero;stroke:none"
             id="path628" /></g><g
           id="g630"
           transform="translate(141.5846,339.8049)"><path
             d="M 0,0 C 0.019,0.019 0.093,-0.044 0.245,-0.084 0.392,-0.124 0.635,-0.127 0.868,0.008 1.34,0.278 1.628,1.15 1.506,2.014 1.444,2.45 1.284,2.848 1.072,3.164 0.867,3.488 0.6,3.693 0.339,3.695 0.077,3.711 -0.078,3.528 -0.113,3.384 -0.154,3.24 -0.108,3.15 -0.132,3.138 -0.143,3.124 -0.248,3.2 -0.243,3.404 c 0.004,0.098 0.041,0.22 0.138,0.33 0.098,0.113 0.258,0.189 0.438,0.2 C 0.705,3.971 1.094,3.688 1.326,3.342 1.58,2.996 1.771,2.551 1.839,2.061 1.972,1.095 1.633,0.112 0.977,-0.204 0.656,-0.348 0.359,-0.294 0.196,-0.206 0.028,-0.114 -0.015,-0.011 0,0"
             style="fill:#aa6550;fill-opacity:1;fill-rule:nonzero;stroke:none"
             id="path632" /></g><g
           id="g634"
           transform="translate(114.9977,360.3058)"><path
             d="m 0,0 c 0.042,0.02 0.166,-0.252 0.504,-0.641 0.332,-0.389 0.934,-0.861 1.803,-1.156 0.867,-0.306 1.976,-0.391 3.176,-0.14 1.204,0.229 2.474,0.741 3.848,1.223 1.374,0.48 2.776,0.819 4.086,0.728 1.309,-0.057 2.449,-0.658 3.103,-1.395 0.679,-0.728 0.946,-1.541 0.953,-2.089 0.016,-0.554 -0.122,-0.837 -0.143,-0.829 -0.047,0.008 0.017,0.302 -0.059,0.809 -0.066,0.502 -0.362,1.217 -1.015,1.851 -0.643,0.646 -1.652,1.142 -2.867,1.174 -1.208,0.06 -2.538,-0.27 -3.888,-0.741 C 8.147,-1.68 6.841,-2.194 5.569,-2.409 4.305,-2.647 3.086,-2.518 2.18,-2.143 1.262,-1.781 0.646,-1.22 0.345,-0.766 0.036,-0.312 -0.024,-0.008 0,0"
             style="fill:#455a64;fill-opacity:1;fill-rule:nonzero;stroke:none"
             id="path636" /></g><g
           id="g638"
           transform="translate(131.1095,355.7394)"><path
             d="m 0,0 c -0.038,-0.03 -0.243,0.253 -0.739,0.597 -0.487,0.347 -1.324,0.679 -2.4,0.71 -1.081,0.052 -2.342,-0.26 -3.644,-0.89 -1.311,-0.599 -2.68,-1.489 -4.336,-2.027 -3.355,-1.079 -6.64,-0.197 -8.545,0.935 -0.977,0.563 -1.674,1.159 -2.105,1.613 -0.429,0.456 -0.625,0.742 -0.602,0.761 0.076,0.082 0.941,-1.037 2.883,-2.051 1.887,-1.014 5.035,-1.785 8.208,-0.763 1.569,0.506 2.94,1.374 4.298,1.969 1.343,0.624 2.723,0.928 3.862,0.821 1.143,-0.08 2.025,-0.496 2.503,-0.916 C -0.129,0.341 0.02,0.011 0,0"
             style="fill:#455a64;fill-opacity:1;fill-rule:nonzero;stroke:none"
             id="path640" /></g><g
           id="g642"
           transform="translate(116.2999,274.4782)"><path
             d="m 0,0 -23.223,19.793 -7.657,-1.731 c 0,0 8.069,-16.776 13.91,-22.925 0,0 5.772,-7.727 15.288,-4.387 C 7.833,-5.91 0,0 0,0"
             style="fill:#b78876;fill-opacity:1;fill-rule:nonzero;stroke:none"
             id="path644" /></g><g
           id="g646"
           transform="translate(91.3239,316.0661)"><path
             d="m 0,0 h -9.87 c -1.493,0 -2.826,-1.731 -2.29,-3.146 l 9.926,-19.333 c 0.383,-0.749 1.156,-1.22 1.999,-1.22 l 12.033,0.025 c 1.38,0.186 1.883,1.717 1.311,2.548 L 3.533,-2.199 C 2.873,-0.854 1.502,0 0,0"
             style="fill:#455a64;fill-opacity:1;fill-rule:nonzero;stroke:none"
             id="path648" /></g><g
           id="g650"
           transform="translate(90.6574,314.902)"><path
             d="m 0,0 h -9.87 c -1.237,0 -2.037,-1.304 -1.474,-2.402 l 9.69,-18.912 c 0.383,-0.749 1.155,-1.221 1.999,-1.221 H 12.24 c 0.725,0 1.196,0.763 0.869,1.409 L 3.532,-2.199 C 2.873,-0.854 1.502,0 0,0"
             style="fill:#263238;fill-opacity:1;fill-rule:nonzero;stroke:none"
             id="path652" /></g><g
           id="g654"
           transform="translate(89.82,306.9846)"><path
             d="m 0,0 -6.006,-2.4 -1.287,-4.84 2.893,-7.204 10.614,-1.544 -3.109,3.176 0.4,2.767 c 0,0 2.961,0.928 3.035,1.381 0.072,0.454 -0.368,1.974 -0.822,2.046 -0.454,0.073 -3.56,-1.083 -3.56,-1.083 0,0 3.676,2.91 3.573,3.378 -0.103,0.468 -0.497,1.662 -1.231,1.795 -0.733,0.133 -6.665,-2.663 -6.665,-2.663 l -0.963,-2.196 -0.841,3.512 c 0,0 5.272,1.478 3.969,3.875"
             style="fill:#b78876;fill-opacity:1;fill-rule:nonzero;stroke:none"
             id="path656" /></g><g
           id="g658"
           transform="translate(90.5758,295.6364)"><path
             d="m 0,0 c -0.036,-0.011 -0.148,0.208 -0.204,0.599 -0.057,0.387 -0.029,0.947 0.181,1.516 0.211,0.568 0.555,1.01 0.85,1.268 0.296,0.26 0.524,0.353 0.544,0.322 C 1.43,3.633 0.647,3.071 0.267,2.007 -0.137,0.953 0.091,0.016 0,0"
             style="fill:#aa6550;fill-opacity:1;fill-rule:nonzero;stroke:none"
             id="path660" /></g><g
           id="g662"
           transform="translate(87.7213,296.6852)"><path
             d="M 0,0 C -0.036,0.018 0.178,0.585 0.238,1.574 0.284,2.063 0.312,2.67 0.54,3.317 0.655,3.637 0.825,3.969 1.093,4.247 1.361,4.529 1.716,4.721 2.075,4.864 3.511,5.385 4.804,5.807 5.751,6.113 6.696,6.414 7.288,6.58 7.302,6.54 7.316,6.5 6.75,6.26 5.824,5.906 4.901,5.549 3.6,5.087 2.191,4.577 1.85,4.44 1.54,4.271 1.311,4.035 1.079,3.801 0.921,3.51 0.808,3.218 0.583,2.627 0.529,2.04 0.456,1.549 0.339,0.551 0.041,-0.025 0,0"
             style="fill:#aa6550;fill-opacity:1;fill-rule:nonzero;stroke:none"
             id="path664" /></g><g
           id="g666"
           transform="translate(86.3429,297.7707)"><path
             d="M 0,0 C -0.084,0.014 -0.067,0.544 0.039,1.185 0.144,1.825 0.298,2.332 0.383,2.318 0.467,2.304 0.45,1.774 0.344,1.134 0.239,0.494 0.084,-0.014 0,0"
             style="fill:#aa6550;fill-opacity:1;fill-rule:nonzero;stroke:none"
             id="path668" /></g><g
           id="g670"
           transform="translate(86.1818,311.2541)"><path
             d="m 0,0 c 0,-0.694 0.563,-1.257 1.257,-1.257 0.695,0 1.258,0.563 1.258,1.257 0,0.695 -0.563,1.258 -1.258,1.258 C 0.563,1.258 0,0.695 0,0"
             style="fill:#fafafa;fill-opacity:1;fill-rule:nonzero;stroke:none"
             id="path672" /></g></g></g><g
       id="g674"><g
         id="g676"
         clip-path="url(#clipPath680)"><g
           id="g682"
           transform="translate(51.5993,120.6403)"><path
             d="m 0,0 c 3.159,-0.856 5.744,-3.284 7.283,-6.172 1.54,-2.888 2.124,-6.202 2.228,-9.474 0.2,-6.329 -2.423,-13.128 -5.508,-18.658 -5.909,3.813 -8.277,11.619 -9.23,15.655 C -6.732,-12.271 -5.58,0.172 0,0"
             style="fill:#e8505b;fill-opacity:1;fill-rule:nonzero;stroke:none"
             id="path684" /></g><g
           id="g686"
           transform="translate(63.192,76.9479)"><path
             d="m 0,0 c -1.351,3.396 -0.449,7.47 1.902,10.27 2.351,2.799 5.976,4.367 9.624,4.617 1.686,0.115 3.559,-0.11 4.714,-1.344 1.08,-1.153 1.241,-2.96 0.718,-4.451 C 16.435,7.601 15.332,6.382 14.128,5.358 10,1.847 5.361,-0.794 0,0"
             style="fill:#e8505b;fill-opacity:1;fill-rule:nonzero;stroke:none"
             id="path688" /></g><g
           id="g690"
           transform="translate(59.2472,56.8786)"><path
             d="m 0,0 c -0.033,0.003 -0.027,0.467 0.001,1.305 0.034,0.924 0.078,2.117 0.13,3.549 0.16,2.974 0.301,7.222 1.961,11.566 1.632,4.33 4.304,7.732 6.701,9.577 1.187,0.94 2.257,1.551 3.024,1.9 0.376,0.191 0.692,0.289 0.897,0.373 0.208,0.076 0.319,0.109 0.326,0.094 C 13.091,28.268 11.287,27.665 8.999,25.746 6.698,23.871 4.126,20.514 2.521,16.257 0.893,12.002 0.696,7.806 0.456,4.836 0.349,3.341 0.262,2.129 0.179,1.294 0.097,0.458 0.03,-0.002 0,0"
             style="fill:#263238;fill-opacity:1;fill-rule:nonzero;stroke:none"
             id="path692" /></g><g
           id="g694"
           transform="translate(51.5587,111.0886)"><path
             d="m 0,0 c 0.016,0.002 0.065,-0.187 0.146,-0.55 0.084,-0.411 0.193,-0.937 0.328,-1.591 0.277,-1.382 0.653,-3.388 1.097,-5.872 0.887,-4.965 2.017,-11.841 3.094,-19.463 1.075,-7.624 1.892,-14.545 2.413,-19.563 0.261,-2.508 0.456,-4.54 0.571,-5.945 0.051,-0.664 0.093,-1.202 0.125,-1.62 0.023,-0.371 0.028,-0.566 0.012,-0.568 -0.015,-0.001 -0.051,0.191 -0.104,0.559 -0.055,0.416 -0.124,0.95 -0.21,1.61 -0.176,1.457 -0.419,3.468 -0.716,5.928 C 6.152,-42.069 5.285,-35.159 4.211,-27.54 3.135,-19.924 2.056,-13.044 1.25,-8.066 0.855,-5.62 0.532,-3.62 0.298,-2.172 0.198,-1.513 0.117,-0.98 0.054,-0.565 0.003,-0.198 -0.016,-0.003 0,0"
             style="fill:#263238;fill-opacity:1;fill-rule:nonzero;stroke:none"
             id="path696" /></g><g
           id="g698"
           transform="translate(54.673,71.8376)"><path
             d="m 0,0 c -2.29,7.359 -8.358,13.431 -15.716,15.725 -1.874,0.584 -4.242,0.799 -5.492,-0.713 C -22.46,13.496 -21.796,11.2 -20.827,9.49 -16.792,2.374 -8.13,-1.804 -0.05,-0.53"
             style="fill:#e8505b;fill-opacity:1;fill-rule:nonzero;stroke:none"
             id="path700" /></g><g
           id="g702"
           transform="translate(40.6662,81.7809)"><path
             d="m 0,0 c 0.009,0.029 0.429,-0.087 1.183,-0.323 0.378,-0.116 0.84,-0.261 1.355,-0.488 0.514,-0.225 1.125,-0.429 1.746,-0.77 0.631,-0.321 1.332,-0.658 2.032,-1.112 0.726,-0.412 1.448,-0.934 2.206,-1.487 1.485,-1.143 3.017,-2.543 4.395,-4.218 1.363,-1.689 2.431,-3.469 3.242,-5.161 0.38,-0.858 0.744,-1.672 0.989,-2.471 0.295,-0.782 0.472,-1.538 0.645,-2.226 0.198,-0.681 0.258,-1.323 0.362,-1.874 0.106,-0.553 0.14,-1.036 0.165,-1.431 0.056,-0.789 0.073,-1.223 0.041,-1.225 -0.103,-0.011 -0.176,1.742 -0.882,4.451 -0.191,0.673 -0.384,1.414 -0.689,2.179 -0.257,0.781 -0.629,1.576 -1.012,2.416 -0.82,1.652 -1.878,3.392 -3.216,5.052 -1.354,1.645 -2.85,3.029 -4.297,4.172 C 7.526,-3.962 6.823,-3.438 6.116,-3.017 5.434,-2.555 4.751,-2.206 4.138,-1.871 1.65,-0.584 -0.033,-0.095 0,0"
             style="fill:#263238;fill-opacity:1;fill-rule:nonzero;stroke:none"
             id="path704" /></g></g></g></g></svg>
