<?xml version="1.0" encoding="UTF-8" standalone="no"?>
<svg
   xmlns:dc="http://purl.org/dc/elements/1.1/"
   xmlns:cc="http://creativecommons.org/ns#"
   xmlns:rdf="http://www.w3.org/1999/02/22-rdf-syntax-ns#"
   xmlns:svg="http://www.w3.org/2000/svg"
   xmlns="http://www.w3.org/2000/svg"
   xmlns:sodipodi="http://sodipodi.sourceforge.net/DTD/sodipodi-0.dtd"
   xmlns:inkscape="http://www.inkscape.org/namespaces/inkscape"
   version="1.1"
   id="svg2"
   xml:space="preserve"
   width="4662.6665"
   height="2666.6667"
   viewBox="0 0 4662.6665 2666.6667"
   sodipodi:docname="Rear view from backseat of driver and passenger in car.eps"><metadata
     id="metadata8"><rdf:RDF><cc:Work
         rdf:about=""><dc:format>image/svg+xml</dc:format><dc:type
           rdf:resource="http://purl.org/dc/dcmitype/StillImage" /></cc:Work></rdf:RDF></metadata><defs
     id="defs6" /><sodipodi:namedview
     pagecolor="#ffffff"
     bordercolor="#666666"
     borderopacity="1"
     objecttolerance="10"
     gridtolerance="10"
     guidetolerance="10"
     inkscape:pageopacity="0"
     inkscape:pageshadow="2"
     inkscape:window-width="640"
     inkscape:window-height="480"
     id="namedview4" /><g
     id="g10"
     inkscape:groupmode="layer"
     inkscape:label="ink_ext_XXXXXX"
     transform="matrix(1.3333333,0,0,-1.3333333,0,2666.6667)"><g
       id="g12"
       transform="scale(0.1)"><path
         d="M 34970,6980.9 1.15625,6366.5 0,20000 34965.3,17875.4 34970,6980.9"
         style="fill:#cafbff;fill-opacity:1;fill-rule:nonzero;stroke:none"
         id="path14" /><path
         d="m 34969.8,6800.2 h 0.199 v 180.699 h -0.199 z"
         style="fill:#c9e9f3;fill-opacity:1;fill-rule:nonzero;stroke:none"
         id="path16" /><path
         d="m 34969.8,6980.9 v 13.4 -13.4 h 0.2 m -0.6,479.4 c -25.8,14.1 -1172.7,650.9 -1027.4,2074 l 505.5,2576.9 517.8,-512.7 4.1,-4138.2 M 23369,9154.4 l -1252,90.8 c -741.3,53.7 -1483.6,94.9 -2226,123.3 -283.3,11.6 -580.9,21.9 -891.1,30.4 l 2920.9,3059.2 1629.3,-759.6 1949.2,4197.9 3598.5,1199.4 3028.7,-4857.6 799.7,1379.3 491.7,-486.8 -1093.1,-3522.6 c -53.1,318.5 -160.6,667.5 -378.2,801 -439.8,269.9 -3748.5,409.8 -3748.5,409.8 0,0 -3558.5,-70 -4028.3,-709.6 -100.8,-137.3 -197.1,-347.5 -286,-592.7 -192.6,-86.4 -367.6,-210.3 -514.8,-362.2"
         style="fill:#a4e6f3;fill-opacity:1;fill-rule:nonzero;stroke:none"
         id="path18" /><path
         d="m 17588.7,13284.3 c -8.9,0 -17.1,6.1 -19.4,15.1 -2.7,10.8 3.8,21.7 14.5,24.4 129.1,32.5 91.2,381.2 65.7,512.8 -2.1,10.8 5,21.3 15.8,23.4 10.9,2.1 21.3,-5 23.4,-15.8 10.2,-52.2 93.6,-511.6 -95.1,-559.3 -1.6,-0.4 -3.3,-0.6 -4.9,-0.6"
         style="fill:#000000;fill-opacity:1;fill-rule:nonzero;stroke:none"
         id="path20" /><path
         d="M 1.125,6707.7 0,10254.2 0.824219,10256.1 1.125,6707.7"
         style="fill:#c9e9f3;fill-opacity:1;fill-rule:nonzero;stroke:none"
         id="path22" /><path
         d="M 1.17969,6536.4 1.125,6707.7 0.824219,10256.1 610.801,11667.9 1029.37,9534.3 C 1176.33,8095 1.34766,7459.2 1.34766,7459.2 L 1.17969,6536.4 M 3524.07,8586.6 c -0.85,0 -1.69,0 -2.54,0 -0.14,0 -0.27,0 -0.42,0 -0.79,0 -1.63,0.1 -2.42,0.1 -0.16,0 -0.31,0 -0.47,0 -0.82,0 -1.57,0 -2.39,0 -0.18,0 -0.34,0 -0.52,0 -0.79,0 -1.61,0 -2.4,0 -0.12,0 -0.24,0 -0.35,0 -0.74,0 -1.52,0 -2.25,0 -0.15,0 -0.31,0 -0.46,0 -0.73,0 -1.52,0.1 -2.25,0.1 -0.25,0 -0.5,0 -0.74,0 -0.71,0 -1.44,0 -2.14,0 -0.27,0 -0.54,0 -0.8,0 -0.7,0 -1.4,0.1 -2.1,0.1 -0.28,0 -0.54,0 -0.82,0 -0.58,0 -1.1,0 -1.69,0 -0.33,0 -0.66,0 -0.99,0 -0.58,0.1 -1.16,0.1 -1.75,0.1 -0.34,0 -0.68,0 -1.03,0 -0.58,0 -1.22,0 -1.81,0.1 -0.4,0 -0.8,0 -1.2,0 -0.41,0 -0.82,0 -1.23,0 -0.62,0 -1.23,0.1 -1.85,0.1 -0.26,0 -0.51,0 -0.78,0 -0.79,0 -1.58,0.1 -2.37,0.1 -0.17,0 -0.32,0 -0.5,0 -122.28,4.2 -240.5,28.7 -350.86,70.6 h -0.01 c 0,0 -0.01,0 -0.04,0 -125.64,47.6 -241.12,117.9 -340.79,206.6 191.76,-69.7 453.14,-164.8 757.81,-275.9 l -27.84,-2 m 7544.03,544.1 c -121.2,405.1 -261.8,773.2 -412.6,978.6 -469.8,639.6 -4028.28,709.6 -4028.28,709.6 0,0 -3308.61,-139.9 -3748.43,-409.8 -272.44,-167.2 -372.28,-671.8 -408.82,-1031.7 l -1190.83,3837.4 420.15,972.4 1439.4,-1269.3 2798.82,3158.4 2588.91,269.9 2538.98,-4207.9 1149.5,779.6 2844.3,-3529.2 c -1147.5,-38.1 -2364.3,-110.3 -3615.8,-231 l -375.3,-27"
         style="fill:#a4e6f3;fill-opacity:1;fill-rule:nonzero;stroke:none"
         id="path24" /><path
         d="M 32247.5,9359 C 32104.9,8899.7 31680,8586.6 31199.1,8586.6 L 22117,9245.2 c -3140.8,227.7 -6293.9,228.4 -9434.9,1.9 L 3524.07,8586.6 c -480.93,0 -905.85,313.1 -1048.38,772.4 L 662.121,15203.1 c -335.144,1080 472.079,2175.6 1602.949,2175.6 H 32458.1 c 1130.9,0 1938.1,-1095.6 1602.9,-2175.6 L 32247.5,9359 M 34970,14774.6 V 20000 H 1.34766 V 14774.6 L 1029.37,9534.3 C 1176.33,8095 1.34766,7459.2 1.34766,7459.2 L 0,14.3008 h 34970 l -0.2,7445.7992 c 0,0 -1174.8,634.9 -1027.8,2074.2 l 1028,5240.3"
         style="fill:#49263e;fill-opacity:1;fill-rule:nonzero;stroke:none"
         id="path26" /><path
         d="M 0,14.3008 1.34766,6035.9 c 0,0 391.69934,158.6 1079.67234,358.7 -9.85,-54.7 -583.754,-3400.3 6342.02,-3518.5 2327.68,-39.7 4263.96,-53 5811.36,-53 215.9,0 424,0.3 624.9,0.7 V 42.9023 L 0,14.3008"
         style="fill:#2f2039;fill-opacity:1;fill-rule:nonzero;stroke:none"
         id="path28" /><path
         d="m 34970,14.3008 -3429.2,6.1992 5.1,70.1016 752.4,6.1992 13.2,182.5972 292.7,-63.796 1099,5036.898 -231.4,49.6 c 261.5,609.2 170.2,1093.2 170.2,1093.2 l -25.5,76.7 c 856.9,-235.1 1353.3,-434.6 1353.3,-434.6 L 34970,14.3008 M 22317.7,37.1992 21034.8,39.5 v 2298.8 0 485.2 c 147.4,-0.3 298.7,-0.4 454,-0.4 326.2,0 669.9,0.6 1030.7,1.9 L 22317.7,37.1992"
         style="fill:#2f2039;fill-opacity:1;fill-rule:nonzero;stroke:none"
         id="path30" /><path
         d="m 7751.9,13696.2 v -1601 c 0,0 22.55,-541.2 -451.01,-608.8 l 88.41,-722.1 c 32.87,-268.4 -127.63,-525.3 -385.42,-606.9 -126.06,-40 -276.53,-69.1 -447.18,-69.1 -541.22,0 -834.38,405.9 -879.49,608.8 -45.09,203 90.21,1172.6 90.21,1172.6 l -16.48,476.4 61.58,1846.2 1939.38,-496.1"
         style="fill:#fe9f73;fill-opacity:1;fill-rule:nonzero;stroke:none"
         id="path32" /><path
         d="m 5875.58,14103.3 377.52,-534.5 c 0,0 1143.82,-444.2 1730.15,82 586.32,526.1 405.89,778.8 234.03,1042.2 -84.72,129.9 -489.18,394.2 -985.3,174 -270.81,-120.3 -471.07,238.5 -786.78,58.1 -315.71,-180.4 -688.13,-492.8 -646.46,-616.4 41.67,-123.6 76.84,-205.4 76.84,-205.4"
         style="fill:#21111d;fill-opacity:1;fill-rule:nonzero;stroke:none"
         id="path34" /><path
         d="m 5898.42,14328.8 c 0,0 -520.63,25.1 -665.96,-476 -145.32,-501.1 50.12,-763.6 55.13,-913 5.01,-149.4 -96.31,-1156.5 610.83,-1081.4 l 190.98,1663.6 -246.12,662.4 55.14,144.4"
         style="fill:#21111d;fill-opacity:1;fill-rule:nonzero;stroke:none"
         id="path36" /><path
         d="m 7403.15,13539.6 c 0,0 42.76,-470.4 0,-598.7 -42.77,-128.3 -555.95,-470.4 -555.95,-470.4 0,0 -42.76,-898 -128.3,-940.7 -85.52,-42.8 -843.86,122.3 -1084.79,360.5 -240.93,238.1 15.66,2119.6 15.66,2119.6 0,0 213.83,256.6 427.65,299.4 213.83,42.7 1240.2,128.3 1197.43,0 -42.76,-128.3 128.3,-769.7 128.3,-769.7"
         style="fill:#21111d;fill-opacity:1;fill-rule:nonzero;stroke:none"
         id="path38" /><path
         d="m 7274.85,12719.2 c 0,-224.1 -177.95,-405.9 -397.46,-405.9 -219.52,0 -397.47,181.8 -397.47,405.9 0,224.2 177.95,405.9 397.47,405.9 219.51,0 397.46,-181.7 397.46,-405.9"
         style="fill:#fe9f73;fill-opacity:1;fill-rule:nonzero;stroke:none"
         id="path40" /><path
         d="m 6847.99,12470.5 c -82.57,0 -137.72,63.4 -155.88,126.7 -21.48,74.9 3.14,147.7 62.71,185.5 88.02,55.8 167.82,20 208.7,-7.5 -17.15,46.1 -44.05,79.6 -80.24,99.9 -78.31,44 -175.44,12 -176.41,11.7 -5.78,-2 -12.03,1.2 -13.96,7.1 -1.92,5.9 1.2,12.3 6.98,14.3 4.33,1.4 107.01,35.5 193.88,-13.2 50.15,-28.1 84.27,-77.9 101.4,-147.9 l 9.62,-39.3 -28.12,28.6 c -3.97,4 -98.49,97.9 -210.21,27.1 -61.85,-39.2 -67.29,-110.7 -53.16,-160 14.68,-51.1 58.69,-110.5 134.59,-110.5 l 2.28,0.1 c 6.02,0 10.96,-5 11.04,-11.2 0.09,-6.2 -4.78,-11.3 -10.88,-11.4 h -2.34"
         style="fill:#f07162;fill-opacity:1;fill-rule:nonzero;stroke:none"
         id="path42" /><path
         d="m 15069.9,9375.4 -10.7,13.3 c 741.4,24.7 1453.3,35 2127.9,35 641.3,0 1248.2,-9.4 1812.8,-24.8 l -2.1,-2.3 c -537,13.3 -1074,19.9 -1611.1,19.9 -772.3,0 -1544.8,-13.7 -2316.8,-41.1"
         style="fill:#83d7eb;fill-opacity:1;fill-rule:nonzero;stroke:none"
         id="path44" /><path
         d="m 19891,9368.5 c -297.7,11.4 -595.4,20.8 -893.2,28.1 l 2.1,2.3 c 310.2,-8.5 607.8,-18.8 891.1,-30.4"
         style="fill:#6ac5e0;fill-opacity:1;fill-rule:nonzero;stroke:none"
         id="path46" /><path
         d="m 11443.4,9157.7 c 1251.5,120.7 2468.3,192.9 3615.8,231 l 10.7,-13.3 c -796.5,-28.2 -1592.4,-71 -2387.8,-128.3 l -1238.7,-89.4"
         style="fill:#6ac5e0;fill-opacity:1;fill-rule:nonzero;stroke:none"
         id="path48" /><path
         d="m 11348,8012 c -71.5,335.2 -166,736.4 -276.5,1107.5 119.8,13.1 243.7,25.9 371.9,38.2 v 0 l 1238.7,89.4 c 795.4,57.3 1591.3,100.1 2387.8,128.3 772,27.4 1544.5,41.1 2316.8,41.1 537.1,0 1074.1,-6.6 1611.1,-19.9 297.8,-7.3 595.5,-16.7 893.2,-28.1 2109.2,-86.3 3439.3,-243.5 3449.1,-244.7 -246.6,-267.5 -409.2,-616.2 -436.8,-997.8 l -5,-68.7 c -662.8,42 -1326.1,73.8 -1982,97.1 -151.1,258.5 -431.4,432.2 -752.3,432.2 h -5433.9 c -327.4,0 -612.7,-180.8 -761.4,-448.1 C 12868.8,8099 11964.9,8050.1 11348,8012"
         style="fill:#2f2039;fill-opacity:1;fill-rule:nonzero;stroke:none"
         id="path50" /><path
         d="m 5665.39,17100.2 c -1724.84,0 -3113.15,68.9 -3396.34,275.5 -1.39,1 -2.76,2 -4.15,3 0.07,0 0.1,0 0.17,0 H 32458.1 c 1.3,0 2.7,0 4,0 -3.8,-2 -5.7,-3 -5.7,-3 l -11486.9,3 -7056.8,-3 c 0,0 -4797.32,-275.5 -8247.31,-275.5"
         style="fill:#9fe6f3;fill-opacity:1;fill-rule:nonzero;stroke:none"
         id="path52" /><path
         d="m 32462.1,17378.7 c -1.3,0 -2.7,0 -4,0 H 2265.07 c -0.07,0 -0.1,0 -0.17,0 C 1616.05,17855.2 640.625,19327.5 214.027,20000 H 34970 c -887.6,-1726.9 -2403.5,-2565.1 -2507.9,-2621.3"
         style="fill:#3a233b;fill-opacity:1;fill-rule:nonzero;stroke:none"
         id="path54" /><path
         d="M 8529.72,17734.9 H 2398.21 c -345.07,0 -604.28,-315 -537.83,-653.6 l 233.77,-1190.9 c 50.46,-257.1 275.82,-442.5 537.82,-442.5 H 7232.9 8529.72 13130.7 c 262,0 487.3,185.4 537.8,442.5 l 233.7,1190.9 c 66.5,338.6 -192.7,653.6 -537.8,653.6 H 8529.72"
         style="fill:#8bd8b3;fill-opacity:1;fill-rule:nonzero;stroke:none"
         id="path56" /><path
         d="m 10200.7,5959.5 c -1190.66,0 -2155.9,965.2 -2155.9,2155.8 0,1190.6 965.24,2155.7 2155.9,2155.7 1190.7,0 2155.9,-965.1 2155.9,-2155.7 0,-1190.6 -965.2,-2155.8 -2155.9,-2155.8 z m 0,4749.5 c -1432.56,0 -2593.89,-1161.3 -2593.89,-2593.7 0,-1432.5 1161.33,-2593.7 2593.89,-2593.7 1432.6,0 2593.9,1161.2 2593.9,2593.7 0,1432.4 -1161.3,2593.7 -2593.9,2593.7"
         style="fill:#21111d;fill-opacity:1;fill-rule:nonzero;stroke:none"
         id="path58" /><path
         d="m 12074.9,9189.7 c 0,0 87.3,-272.7 190,-259.8 102.6,12.8 362.4,72 323.1,181.4 -53.3,148.4 -173.2,368.3 -173.2,368.3 0,0 263.1,55.1 391.4,-34.7 128.3,-89.8 166.8,-333.6 166.8,-333.6 0,0 128.4,-166.8 89.9,-282.3 0,0 38.5,-205.3 12.8,-359.3 -25.7,-154 -25.7,-269.5 -25.7,-269.5 h -1026.6 c 0,0 -102.7,282.3 -141.1,410.6 -38.5,128.4 -38.4,514.8 192.6,578.9"
         style="fill:#fe9f73;fill-opacity:1;fill-rule:nonzero;stroke:none"
         id="path60" /><path
         d="m 11835,8410.1 c 0,0 896.3,-99.8 1339.5,-159.9 0,0 -239.9,-2668.7 -509.8,-2958.5 -269.9,-289.9 -1029.6,69.9 -1029.6,69.9 l 199.9,3048.5"
         style="fill:#ff424d;fill-opacity:1;fill-rule:nonzero;stroke:none"
         id="path62" /><path
         d="m 27539,17734.9 h -6131.5 c -345,0 -604.3,-315 -537.8,-653.6 l 233.8,-1190.9 c 50.4,-257.1 275.8,-442.5 537.8,-442.5 h 4600.9 1296.8 4601 c 262,0 487.3,185.4 537.8,442.5 l 233.8,1190.9 c 66.4,338.6 -192.8,653.6 -537.9,653.6 H 27539"
         style="fill:#8bd8b3;fill-opacity:1;fill-rule:nonzero;stroke:none"
         id="path64" /><path
         d="m 2448.98,8989.8 c 0,0 -10,1149.5 429.81,1419.3 439.82,269.9 3748.43,409.8 3748.43,409.8 0,0 3558.48,-70 4028.28,-709.6 469.8,-639.7 839.7,-2858.6 839.7,-2858.6 0,0 -3098.72,-519.7 -3398.59,-359.8 -299.89,159.9 -5647.63,2098.9 -5647.63,2098.9"
         style="fill:#ff424d;fill-opacity:1;fill-rule:nonzero;stroke:none"
         id="path66" /><path
         d="M 27290.2,13314.5 V 11909 c 0,0 -19.8,-475 396,-534.4 l -77.7,-633.9 c -28.8,-235.6 112.1,-461.1 338.4,-532.8 110.6,-35 242.7,-60.6 392.5,-60.6 475.2,0 732.5,356.3 772.1,534.5 39.6,178.1 -79.2,1029.3 -79.2,1029.3 l 14.5,418.3 -54.1,1620.6 -1702.5,-435.5"
         style="fill:#fe9f73;fill-opacity:1;fill-rule:nonzero;stroke:none"
         id="path68" /><path
         d="m 29156.7,13549 -331.4,-469.2 c 0,0 -1004.1,-389.9 -1518.8,72 -514.7,461.9 -356.3,683.7 -205.4,915 74.3,113.9 429.4,346 864.9,152.6 237.7,-105.5 413.5,209.4 690.7,51.1 277.1,-158.4 604.1,-432.6 567.5,-541.1 -36.6,-108.5 -67.5,-180.4 -67.5,-180.4"
         style="fill:#21111d;fill-opacity:1;fill-rule:nonzero;stroke:none"
         id="path70" /><path
         d="m 28917.3,13869.8 c 0,0 457,22 584.6,-417.9 127.6,-439.8 -44,-670.2 -48.4,-801.4 -4.4,-131.1 84.6,-1015.3 -536.2,-949.3 l -167.6,1460.4 216,581.5 -48.4,126.7"
         style="fill:#21111d;fill-opacity:1;fill-rule:nonzero;stroke:none"
         id="path72" /><path
         d="m 27596.4,13177 c 0,0 -37.6,-412.9 0,-525.5 37.5,-112.6 488,-413 488,-413 0,0 35.2,-467.1 324.8,-572.4 531.8,-193.4 528.6,-146 740.1,63.1 211.5,209 -13.7,1860.7 -13.7,1860.7 0,0 -187.7,225.3 -375.4,262.8 -187.7,37.5 -1088.7,112.6 -1051.2,0 37.5,-112.6 -112.6,-675.7 -112.6,-675.7"
         style="fill:#21111d;fill-opacity:1;fill-rule:nonzero;stroke:none"
         id="path74" /><path
         d="m 27709,12456.9 c 0,-196.8 156.2,-356.3 348.9,-356.3 192.7,0 348.9,159.5 348.9,356.3 0,196.8 -156.2,356.3 -348.9,356.3 -192.7,0 -348.9,-159.5 -348.9,-356.3"
         style="fill:#fe9f73;fill-opacity:1;fill-rule:nonzero;stroke:none"
         id="path76" /><path
         d="m 28083.7,12238.5 c 72.5,0 120.9,55.7 136.9,111.3 18.8,65.7 -2.8,129.6 -55.1,162.8 -77.3,48.9 -147.3,17.5 -183.2,-6.6 15.1,40.4 38.7,69.9 70.4,87.7 68.8,38.7 154.1,10.5 154.9,10.2 5.1,-1.7 10.6,1.1 12.3,6.3 1.7,5.2 -1.1,10.8 -6.2,12.5 -3.8,1.3 -93.9,31.2 -170.2,-11.6 -44,-24.6 -73.9,-68.3 -89,-129.8 l -8.4,-34.4 24.7,25 c 3.5,3.6 86.4,86 184.5,23.8 54.3,-34.4 59.1,-97.1 46.7,-140.4 -12.9,-44.9 -51.6,-97 -118.2,-97 h -2 c -5.3,0 -9.6,-4.3 -9.7,-9.7 -0.1,-5.5 4.2,-10 9.6,-10.1 h 2"
         style="fill:#f07162;fill-opacity:1;fill-rule:nonzero;stroke:none"
         id="path78" /><path
         d="m 32376.4,8989.8 c 0,0 10,1149.5 -429.8,1419.3 -439.8,269.9 -3748.5,409.8 -3748.5,409.8 0,0 -3558.5,-70 -4028.3,-709.6 -469.8,-639.7 -839.6,-2858.6 -839.6,-2858.6 0,0 3098.7,-519.7 3398.6,-359.8 299.8,159.9 5647.6,2098.9 5647.6,2098.9"
         style="fill:#febac7;fill-opacity:1;fill-rule:nonzero;stroke:none"
         id="path80" /><path
         d="m 19677.4,15383.7 h -1877.5 v 99.8 c 0,228.2 -185.1,413.2 -413.3,413.2 -228.2,0 -413.3,-185 -413.3,-413.2 v -99.8 h -1877.5 c -167.3,0 -302.9,-135.5 -302.9,-302.8 v -1033.1 c 0,-167.2 135.6,-302.8 302.9,-302.8 h 4581.6 c 167.3,0 302.8,135.6 302.8,302.8 v 1033.1 c 0,167.3 -135.5,302.8 -302.8,302.8"
         style="fill:#000000;fill-opacity:1;fill-rule:nonzero;stroke:none"
         id="path82" /><path
         d="m 19591.8,13917.6 h -4410.5 c -104.3,0 -188.8,84.6 -188.8,188.9 v 915.7 c 0,104.4 84.5,188.9 188.8,188.9 h 4410.5 c 104.4,0 188.9,-84.5 188.9,-188.9 v -915.7 c 0,-104.3 -84.5,-188.9 -188.9,-188.9"
         style="fill:#d4eef4;fill-opacity:1;fill-rule:nonzero;stroke:none"
         id="path84" /><path
         d="m 21034.8,15.5 h -7175.5 v 7699.7 c 0,481.3 389.8,871.4 870.8,871.4 H 20164 c 480.9,0 870.8,-390.1 870.8,-871.4 V 15.5"
         style="fill:#5c3251;fill-opacity:1;fill-rule:nonzero;stroke:none"
         id="path86" /><path
         d="M 20009.3,3566 H 14790 c -67.5,0 -122.2,54.7 -122.2,122.3 v 2580.6 c 0,67.5 54.7,122.2 122.2,122.2 h 5219.3 c 67.5,0 122.3,-54.7 122.3,-122.2 V 3688.3 c 0,-67.6 -54.8,-122.3 -122.3,-122.3"
         style="fill:#49263e;fill-opacity:1;fill-rule:nonzero;stroke:none"
         id="path88" /><path
         d="m 19645.1,3566 h -4879.8 c -53.9,0 -97.5,43.7 -97.5,97.5 v 24.8 c 0,-67.6 54.7,-122.3 122.2,-122.3 h 4855.1 v 0"
         style="fill:#1b2445;fill-opacity:1;fill-rule:nonzero;stroke:none"
         id="path90" /><path
         d="M 19645.1,3566 H 14790 c -67.5,0 -122.2,54.7 -122.2,122.3 v 364.2 h 5463.8 c 0,-268.7 -217.9,-486.5 -486.5,-486.5"
         style="fill:#161b35;fill-opacity:1;fill-rule:nonzero;stroke:none"
         id="path92" /><path
         d="m 19419.9,4248.8 h -4040.5 c -65.5,0 -118.5,53.1 -118.5,118.6 v 1615.3 c 0,65.5 53,118.6 118.5,118.6 h 4040.5 c 65.5,0 118.6,-53.1 118.6,-118.6 V 4367.4 c 0,-65.5 -53.1,-118.6 -118.6,-118.6"
         style="fill:#cafbff;fill-opacity:1;fill-rule:nonzero;stroke:none"
         id="path94" /><path
         d="m 16196.7,2323.9 c 0,-279.4 -226.5,-505.9 -506,-505.9 -279.4,0 -505.9,226.5 -505.9,505.9 0,279.4 226.5,505.9 505.9,505.9 279.5,0 506,-226.5 506,-505.9"
         style="fill:#fec786;fill-opacity:1;fill-rule:nonzero;stroke:none"
         id="path96" /><path
         d="m 15704.4,2323.9 h -30.8 c -14.2,0 -25.6,11.5 -25.6,25.6 v 501 c 0,14.1 11.4,25.6 25.6,25.6 h 30.8 c 14.1,0 25.5,-11.5 25.5,-25.6 v -501 c 0,-14.1 -11.4,-25.6 -25.5,-25.6"
         style="fill:#223749;fill-opacity:1;fill-rule:nonzero;stroke:none"
         id="path98" /><path
         d="m 17271.2,1854 c -274.6,51.1 -455.9,315.2 -404.7,589.9 51.1,274.6 315.2,455.8 589.9,404.7 274.7,-51.1 455.9,-315.2 404.8,-589.9 -51.1,-274.6 -315.3,-455.8 -590,-404.7"
         style="fill:#fec786;fill-opacity:1;fill-rule:nonzero;stroke:none"
         id="path100" /><path
         d="m 17361.3,2337.9 5.7,30.3 c 2.6,13.9 15.9,23 29.8,20.5 l 492.6,-91.7 c 13.9,-2.6 23,-16 20.5,-29.9 l -5.7,-30.3 c -2.6,-13.8 -15.9,-23 -29.8,-20.4 l -492.6,91.7 c -13.9,2.6 -23.1,15.9 -20.5,29.8"
         style="fill:#223749;fill-opacity:1;fill-rule:nonzero;stroke:none"
         id="path102" /><path
         d="m 19503.2,2628.9 c 165.9,-224.8 118.2,-541.5 -106.6,-707.5 -224.7,-165.9 -541.5,-118.2 -707.4,106.6 -166,224.8 -118.3,541.5 106.5,707.4 224.8,165.9 541.6,118.2 707.5,-106.5"
         style="fill:#fec786;fill-opacity:1;fill-rule:nonzero;stroke:none"
         id="path104" /><path
         d="m 19107.2,2336.5 -24.8,-18.3 c -11.4,-8.4 -27.4,-6 -35.8,5.4 l -297.6,403.1 c -8.4,11.4 -6,27.4 5.4,35.8 l 24.8,18.3 c 11.4,8.4 27.4,5.9 35.7,-5.4 l 297.6,-403.1 c 8.4,-11.4 6,-27.4 -5.3,-35.8"
         style="fill:#223749;fill-opacity:1;fill-rule:nonzero;stroke:none"
         id="path106" /><path
         d="m 21034.8,15.5 h -7175.5 v 2322.8 c 0,-771.3 625.3,-1396.597 1396.7,-1396.597 h 4382.1 c 771.4,0 1396.7,625.297 1396.7,1396.597 V 39.5 15.5"
         style="fill:#5b2734;fill-opacity:1;fill-rule:nonzero;stroke:none"
         id="path108" /><path
         d="m 19025.8,1225.3 h -3252.2 c -314.7,0 -569.8,-255.101 -569.8,-569.898 V 19.6016 L 19595.5,10 v 645.402 c 0,314.797 -255.1,569.898 -569.7,569.898"
         style="fill:#fec786;fill-opacity:1;fill-rule:nonzero;stroke:none"
         id="path110" /><path
         d="M 19595.5,10 15203.8,21.8984 V 256.102 h 4391.7 V 10"
         style="fill:#223749;fill-opacity:1;fill-rule:nonzero;stroke:none"
         id="path112" /><path
         d="m 16144.6,6980.8 h -1538.2 c -65.5,0 -118.6,53.1 -118.6,118.5 v 731.1 c 0,65.5 53.1,118.5 118.6,118.5 h 1538.2 c 65.5,0 118.5,-53 118.5,-118.5 v -731.1 c 0,-65.4 -53,-118.5 -118.5,-118.5"
         style="fill:#49263e;fill-opacity:1;fill-rule:nonzero;stroke:none"
         id="path114" /><path
         d="m 14566.4,7722 h 1618.1 v 80.1992 h -1618.1 z"
         style="fill:#2f2039;fill-opacity:1;fill-rule:nonzero;stroke:none"
         id="path116" /><path
         d="m 14566.4,7447.8 h 1618.1 v 80.1992 h -1618.1 z"
         style="fill:#2f2039;fill-opacity:1;fill-rule:nonzero;stroke:none"
         id="path118" /><path
         d="m 14566.4,7173.6 h 1618.1 v 80.1992 h -1618.1 z"
         style="fill:#2f2039;fill-opacity:1;fill-rule:nonzero;stroke:none"
         id="path120" /><path
         d="m 18184.5,6980.8 h -1538.2 c -65.5,0 -118.6,53.1 -118.6,118.5 v 731.1 c 0,65.5 53.1,118.5 118.6,118.5 h 1538.2 c 65.5,0 118.5,-53 118.5,-118.5 v -731.1 c 0,-65.4 -53,-118.5 -118.5,-118.5"
         style="fill:#49263e;fill-opacity:1;fill-rule:nonzero;stroke:none"
         id="path122" /><path
         d="m 16606.3,7722 h 1618.1 v 80.1992 h -1618.1 z"
         style="fill:#2f2039;fill-opacity:1;fill-rule:nonzero;stroke:none"
         id="path124" /><path
         d="m 16606.3,7447.8 h 1618.1 v 80.1992 h -1618.1 z"
         style="fill:#2f2039;fill-opacity:1;fill-rule:nonzero;stroke:none"
         id="path126" /><path
         d="m 16606.3,7173.6 h 1618.1 v 80.1992 h -1618.1 z"
         style="fill:#2f2039;fill-opacity:1;fill-rule:nonzero;stroke:none"
         id="path128" /><path
         d="m 20224.4,6980.8 h -1538.2 c -65.5,0 -118.6,53.1 -118.6,118.5 v 731.1 c 0,65.5 53.1,118.5 118.6,118.5 h 1538.2 c 65.5,0 118.5,-53 118.5,-118.5 v -731.1 c 0,-65.4 -53,-118.5 -118.5,-118.5"
         style="fill:#49263e;fill-opacity:1;fill-rule:nonzero;stroke:none"
         id="path130" /><path
         d="m 18646.2,7722 h 1618.1 v 80.1992 h -1618.1 z"
         style="fill:#2f2039;fill-opacity:1;fill-rule:nonzero;stroke:none"
         id="path132" /><path
         d="m 18646.2,7447.8 h 1618.1 v 80.1992 h -1618.1 z"
         style="fill:#2f2039;fill-opacity:1;fill-rule:nonzero;stroke:none"
         id="path134" /><path
         d="m 18646.2,7173.6 h 1618.1 v 80.1992 h -1618.1 z"
         style="fill:#2f2039;fill-opacity:1;fill-rule:nonzero;stroke:none"
         id="path136" /><path
         d="m 3521.53,8586.6 c -0.15,0 -0.27,0 -0.42,0 0.15,0 0.28,0 0.42,0 m -2.84,0.1 c -0.15,0 -0.32,0 -0.47,0 0.16,0 0.31,0 0.47,0 m -2.86,0 c -0.17,0 -0.35,0 -0.52,0 0.18,0 0.34,0 0.52,0 m -2.92,0 c -0.12,0 -0.24,0 -0.35,0 0.11,0 0.23,0 0.35,0 m -2.6,0 c -0.17,0 -0.28,0 -0.46,0 0.15,0 0.31,0 0.46,0 m -2.71,0.1 c -0.27,0 -0.48,0 -0.74,0 0.24,0 0.49,0 0.74,0 m -2.88,0 c -0.27,0 -0.54,0 -0.8,0 0.26,0 0.53,0 0.8,0 m -2.9,0.1 c -0.27,0 -0.55,0 -0.82,0 0.28,0 0.54,0 0.82,0 m -2.51,0 c -0.32,0 -0.67,0 -0.99,0 0.33,0 0.66,0 0.99,0 m -2.74,0.1 c -0.35,0 -0.68,0 -1.03,0 0.35,0 0.69,0 1.03,0 m -2.84,0.1 c -0.41,0 -0.79,0 -1.2,0 0.4,0 0.8,0 1.2,0 m -2.43,0 c -0.61,0 -1.24,0.1 -1.85,0.1 0.62,0 1.23,-0.1 1.85,-0.1 m -2.63,0.1 c -0.78,0 -1.58,0.1 -2.37,0.1 0.79,0 1.58,-0.1 2.37,-0.1 m -2.87,0.1 c -122.31,4.2 -240.53,28.7 -350.91,70.6 0.03,0 0.04,0 0.04,0 h 0.01 c 110.36,-41.9 228.58,-66.4 350.86,-70.6"
         style="fill:#6ac5e0;fill-opacity:1;fill-rule:nonzero;stroke:none"
         id="path138" /><path
         d="m 1849.95,7734.8 c 621,472.9 1279.17,919.2 1284.94,923.1 110.38,-41.9 228.6,-66.4 350.91,-70.6 0.16,0 0.34,0 0.5,0 0.79,0 1.59,-0.1 2.37,-0.1 0.26,0 0.52,0 0.78,0 0.61,0 1.24,-0.1 1.85,-0.1 0.41,0 0.82,0 1.23,0 0.41,0 0.79,0 1.2,0 0.6,-0.1 1.22,-0.1 1.81,-0.1 0.35,0 0.68,0 1.03,0 0.59,0 1.17,0 1.75,-0.1 0.32,0 0.67,0 0.99,0 0.57,0 1.13,0 1.69,0 0.27,0 0.55,0 0.82,0 0.7,0 1.39,-0.1 2.1,-0.1 0.26,0 0.53,0 0.8,0 0.71,0 1.42,0 2.14,0 0.26,0 0.47,0 0.74,0 0.75,0 1.5,-0.1 2.25,-0.1 0.18,0 0.29,0 0.46,0 0.76,0 1.49,0 2.25,0 0.11,0 0.23,0 0.35,0 0.79,0 1.6,0 2.4,0 0.17,0 0.35,0 0.52,0 0.8,0 1.59,0 2.39,0 0.15,0 0.32,0 0.47,0 0.8,0 1.62,-0.1 2.42,-0.1 0.15,0 0.27,0 0.42,0 0.84,0 1.7,0 2.54,0 l 27.84,2 c 34.75,-12.6 70.13,-25.5 105.96,-38.6 -768.51,-232.7 -1807.92,-815.2 -1807.92,-815.2"
         style="fill:#2f2039;fill-opacity:1;fill-rule:nonzero;stroke:none"
         id="path140" /><path
         d="m 3657.87,8550 c -35.83,13.1 -71.21,26 -105.96,38.6 l 354.41,25.6 c -78.1,-16 -161.52,-37.9 -248.45,-64.2"
         style="fill:#a53847;fill-opacity:1;fill-rule:nonzero;stroke:none"
         id="path142" /><path
         d="m 9126.7,12987.4 -2323.26,-5.8 44.4,-613.4 928.21,2.3 c 312.32,0.8 583.58,-248.1 605.87,-556 l 44.37,-612.8 c 22.28,-307.9 -212.83,-558.1 -525.16,-558.9 l -928.21,-2.4 44.41,-613.3 2323.26,5.9 c 312.33,0.7 547.45,251 525.16,558.9 l -133.17,1839.5 c -22.29,307.9 -293.55,556.8 -605.88,556"
         style="fill:#096d68;fill-opacity:1;fill-rule:nonzero;stroke:none"
         id="path144" /><path
         d="M 12590.4,23.3008 3366.25,21.1992 2781.18,8102.8 c -61.23,845.7 563.72,1532.9 1395.85,1535 l 6209.17,15.7 c 832.2,2.1 1556.4,-681.8 1617.6,-1527.5 L 12590.4,23.3008"
         style="fill:#096d68;fill-opacity:1;fill-rule:nonzero;stroke:none"
         id="path146" /><path
         d="m 5805.35,9378.7 -267.32,-0.7 -67.61,933.9 267.32,0.7 67.61,-933.9"
         style="fill:#49263e;fill-opacity:1;fill-rule:nonzero;stroke:none"
         id="path148" /><path
         d="m 7776.85,9383.7 -267.32,-0.7 -67.61,933.9 267.32,0.7 67.61,-933.9"
         style="fill:#49263e;fill-opacity:1;fill-rule:nonzero;stroke:none"
         id="path150" /><path
         d="M 11838.6,21.4023 2614.79,14.1016 2029.33,8100.9 c -61.22,845.7 563.72,1532.9 1395.86,1535 l 6209.2,15.7 c 832.11,2.1 1556.31,-681.8 1617.61,-1527.4 L 11838.6,21.4023"
         style="fill:#5db58b;fill-opacity:1;fill-rule:nonzero;stroke:none"
         id="path152" /><path
         d="m 8831.76,11202.7 c 22.29,-307.9 -205.22,-558.1 -508.17,-558.8 l -3531.24,-9 c -302.94,-0.7 -566.6,248.3 -588.89,556.1 l -44.37,612.8 c -22.29,307.9 205.23,558.1 508.18,558.9 l 3531.23,8.9 c 302.95,0.8 566.61,-248.2 588.9,-556.1 z m 23.92,1784 -4934.39,-12.4 c -302.95,-0.8 -530.47,-251 -508.18,-558.9 l 133.18,-1839.5 c 22.29,-307.9 285.94,-556.8 588.89,-556.1 l 4934.39,12.5 c 302.94,0.7 530.46,250.9 508.17,558.8 l -133.17,1839.6 c -22.29,307.8 -285.94,556.8 -588.89,556"
         style="fill:#5db58b;fill-opacity:1;fill-rule:nonzero;stroke:none"
         id="path154" /><path
         d="m 32871.9,7734.8 c 0,0 -6.9,3.8 -19.9,11 l 0.3,3.9 c 6.5,-5 13.1,-10 19.6,-14.9"
         style="fill:#2f2039;fill-opacity:1;fill-rule:nonzero;stroke:none"
         id="path156" /><path
         d="m 15608.8,4248.8 h 247 v 1087.3 h -247 z"
         style="fill:#8bd9eb;fill-opacity:1;fill-rule:nonzero;stroke:none"
         id="path158" /><path
         d="m 15979.3,4248.8 h 247 v 1462.5 h -247 z"
         style="fill:#8bd9eb;fill-opacity:1;fill-rule:nonzero;stroke:none"
         id="path160" /><path
         d="m 16349.8,4248.8 h 247.098 v 1263 H 16349.8 Z"
         style="fill:#8bd9eb;fill-opacity:1;fill-rule:nonzero;stroke:none"
         id="path162" /><path
         d="m 16720.4,4248.8 h 247 v 1115.8 h -247 z"
         style="fill:#8bd9eb;fill-opacity:1;fill-rule:nonzero;stroke:none"
         id="path164" /><path
         d="m 17090.9,4248.8 h 247 v 783.301 h -247 z"
         style="fill:#8bd9eb;fill-opacity:1;fill-rule:nonzero;stroke:none"
         id="path166" /><path
         d="m 17461.4,4248.8 h 247 v 1087.3 h -247 z"
         style="fill:#8bd9eb;fill-opacity:1;fill-rule:nonzero;stroke:none"
         id="path168" /><path
         d="m 17831.9,4248.8 h 247.004 v 1263 H 17831.9 Z"
         style="fill:#8bd9eb;fill-opacity:1;fill-rule:nonzero;stroke:none"
         id="path170" /><path
         d="m 18202.5,4248.8 h 247 v 1011.3 h -247 z"
         style="fill:#8bd9eb;fill-opacity:1;fill-rule:nonzero;stroke:none"
         id="path172" /><path
         d="m 18573,4248.8 h 247 v 783.301 h -247 z"
         style="fill:#8bd9eb;fill-opacity:1;fill-rule:nonzero;stroke:none"
         id="path174" /><path
         d="m 18943.5,4248.8 h 247 v 659.801 h -247 z"
         style="fill:#8bd9eb;fill-opacity:1;fill-rule:nonzero;stroke:none"
         id="path176" /><path
         d="m 16071.3,10655.6 c 434.4,23 1922.9,85.7 2940.8,-65.2 132,-19.5 216.1,138.7 124.7,236 -53.4,56.9 -144.5,103.3 -297.8,114 0,0 52.8,950.2 -665,1013.1 -823.2,72.2 -833.2,-861.3 -833.2,-861.3 0,0 -374.1,355.2 -644,-95.1 0,0 -466.4,269.5 -701.6,-228.3 -25.7,-54.3 16.2,-116.3 76.1,-113.2"
         style="fill:#ffffff;fill-opacity:1;fill-rule:nonzero;stroke:none"
         id="path178" /><path
         d="m 23495.2,13950.1 c -209.1,12 -699.2,32.9 -1125.4,-3 -176.3,-14.9 -328.5,125.9 -324.5,302.8 1.6,72.4 27.6,156.6 94.8,252 258.7,367.4 708.4,16.5 704.1,-170 0,0 90.9,280.9 367.1,231.7 276.1,-49.2 178.5,-457.6 178.5,-457.6 0,0 89.1,18.8 150.8,-23.3 60.8,-41.5 28.1,-136.8 -45.4,-132.6"
         style="fill:#ffffff;fill-opacity:1;fill-rule:nonzero;stroke:none"
         id="path180" /><path
         d="m 11558.5,13638 c -343.9,18.2 -1522.6,67.9 -2328.64,-51.6 -104.55,-15.5 -171.15,109.8 -98.82,186.9 42.3,45 114.46,81.8 235.83,90.2 0,0 -41.8,752.5 526.59,802.3 651.94,57.2 659.74,-682 659.74,-682 0,0 296.3,281.2 510,-75.4 0,0 369.4,213.5 555.6,-180.8 20.4,-43 -12.8,-92.1 -60.3,-89.6"
         style="fill:#ffffff;fill-opacity:1;fill-rule:nonzero;stroke:none"
         id="path182" /><path
         d="m 15070.3,5741.4 h -243.2 c -40.5,0 -73.3,32.9 -73.3,73.4 v 23.2 c 0,40.5 32.8,73.4 73.3,73.4 h 243.2 c 40.5,0 73.3,-32.9 73.3,-73.4 v -23.2 c 0,-40.5 -32.8,-73.4 -73.3,-73.4"
         style="fill:#161b35;fill-opacity:1;fill-rule:nonzero;stroke:none"
         id="path184" /><path
         d="m 15070.3,5431.6 h -243.2 c -40.5,0 -73.3,32.8 -73.3,73.3 v 23.3 c 0,40.5 32.8,73.3 73.3,73.3 h 243.2 c 40.5,0 73.3,-32.8 73.3,-73.3 v -23.3 c 0,-40.5 -32.8,-73.3 -73.3,-73.3"
         style="fill:#161b35;fill-opacity:1;fill-rule:nonzero;stroke:none"
         id="path186" /><path
         d="m 15070.3,5121.7 h -243.2 c -40.5,0 -73.3,32.9 -73.3,73.4 v 23.2 c 0,40.5 32.8,73.4 73.3,73.4 h 243.2 c 40.5,0 73.3,-32.9 73.3,-73.4 v -23.2 c 0,-40.5 -32.8,-73.4 -73.3,-73.4"
         style="fill:#161b35;fill-opacity:1;fill-rule:nonzero;stroke:none"
         id="path188" /><path
         d="m 15070.3,4811.9 h -243.2 c -40.5,0 -73.3,32.8 -73.3,73.3 v 23.3 c 0,40.5 32.8,73.3 73.3,73.3 h 243.2 c 40.5,0 73.3,-32.8 73.3,-73.3 v -23.3 c 0,-40.5 -32.8,-73.3 -73.3,-73.3"
         style="fill:#161b35;fill-opacity:1;fill-rule:nonzero;stroke:none"
         id="path190" /><path
         d="m 15070.3,4502.1 h -243.2 c -40.5,0 -73.3,32.8 -73.3,73.3 v 23.2 c 0,40.5 32.8,73.4 73.3,73.4 h 243.2 c 40.5,0 73.3,-32.9 73.3,-73.4 v -23.2 c 0,-40.5 -32.8,-73.3 -73.3,-73.3"
         style="fill:#161b35;fill-opacity:1;fill-rule:nonzero;stroke:none"
         id="path192" /><path
         d="m 19978.3,5741.4 h -243.2 c -40.5,0 -73.4,32.9 -73.4,73.4 v 23.2 c 0,40.5 32.9,73.4 73.4,73.4 h 243.2 c 40.5,0 73.3,-32.9 73.3,-73.4 v -23.2 c 0,-40.5 -32.8,-73.4 -73.3,-73.4"
         style="fill:#161b35;fill-opacity:1;fill-rule:nonzero;stroke:none"
         id="path194" /><path
         d="m 19978.3,5431.6 h -243.2 c -40.5,0 -73.4,32.8 -73.4,73.3 v 23.3 c 0,40.5 32.9,73.3 73.4,73.3 h 243.2 c 40.5,0 73.3,-32.8 73.3,-73.3 v -23.3 c 0,-40.5 -32.8,-73.3 -73.3,-73.3"
         style="fill:#161b35;fill-opacity:1;fill-rule:nonzero;stroke:none"
         id="path196" /><path
         d="m 19978.3,5121.7 h -243.2 c -40.5,0 -73.4,32.9 -73.4,73.4 v 23.2 c 0,40.5 32.9,73.4 73.4,73.4 h 243.2 c 40.5,0 73.3,-32.9 73.3,-73.4 v -23.2 c 0,-40.5 -32.8,-73.4 -73.3,-73.4"
         style="fill:#161b35;fill-opacity:1;fill-rule:nonzero;stroke:none"
         id="path198" /><path
         d="m 19978.3,4811.9 h -243.2 c -40.5,0 -73.4,32.8 -73.4,73.3 v 23.3 c 0,40.5 32.9,73.3 73.4,73.3 h 243.2 c 40.5,0 73.3,-32.8 73.3,-73.3 v -23.3 c 0,-40.5 -32.8,-73.3 -73.3,-73.3"
         style="fill:#161b35;fill-opacity:1;fill-rule:nonzero;stroke:none"
         id="path200" /><path
         d="m 19978.3,4502.1 h -243.2 c -40.5,0 -73.4,32.8 -73.4,73.3 v 23.2 c 0,40.5 32.9,73.4 73.4,73.4 h 243.2 c 40.5,0 73.3,-32.9 73.3,-73.4 v -23.2 c 0,-40.5 -32.8,-73.3 -73.3,-73.3"
         style="fill:#161b35;fill-opacity:1;fill-rule:nonzero;stroke:none"
         id="path202" /><path
         d="M 5297.79,17535.6 H 3648.46 c -93.85,0 -169.92,76 -169.92,169.9 0,93.8 76.07,169.9 169.92,169.9 h 1649.33 c 93.84,0 169.92,-76.1 169.92,-169.9 0,-93.9 -76.08,-169.9 -169.92,-169.9"
         style="fill:#fec786;fill-opacity:1;fill-rule:nonzero;stroke:none"
         id="path204" /><path
         d="m 12104.9,17535.6 h -1649.3 c -93.8,0 -169.9,76 -169.9,169.9 0,93.8 76.1,169.9 169.9,169.9 h 1649.3 c 93.9,0 170,-76.1 170,-169.9 0,-93.9 -76.1,-169.9 -170,-169.9"
         style="fill:#fec786;fill-opacity:1;fill-rule:nonzero;stroke:none"
         id="path206" /><path
         d="m 24309.9,17535.6 h -1649.5 c -93.8,0 -169.8,76 -169.8,169.8 v 0.1 c 0,93.9 76,169.9 169.8,169.9 h 1649.5 c 93.8,0 169.8,-76 169.8,-169.9 v -0.1 c 0,-93.8 -76,-169.8 -169.8,-169.8"
         style="fill:#fec786;fill-opacity:1;fill-rule:nonzero;stroke:none"
         id="path208" /><path
         d="m 31117,17535.6 h -1649.4 c -93.8,0 -169.9,76 -169.9,169.9 0,93.8 76.1,169.9 169.9,169.9 H 31117 c 93.8,0 169.9,-76.1 169.9,-169.9 0,-93.9 -76.1,-169.9 -169.9,-169.9"
         style="fill:#fec786;fill-opacity:1;fill-rule:nonzero;stroke:none"
         id="path210" /><path
         d="m 27487.8,14280.8 c 0,0 482.6,26.3 710.8,157.9 228.1,131.6 1604.9,139.4 1614.5,-1070.4 9.7,-1209.9 -595.3,-1601.7 -595.3,-1601.7 l -852.5,2049.2 -877.5,465"
         style="fill:#21111d;fill-opacity:1;fill-rule:nonzero;stroke:none"
         id="path212" /><path
         d="m 26952.6,13684.2 c 0,0 15.2,-535 296,-684.1 280.8,-149.2 338.9,-307.8 338.9,-307.8 0,0 312.7,342.6 286.4,395.2 -26.3,52.7 -158.6,390.1 -206.5,388.1 -48,-2 -714.8,208.6 -714.8,208.6"
         style="fill:#21111d;fill-opacity:1;fill-rule:nonzero;stroke:none"
         id="path214" /><path
         d="m 29358.8,14461.8 c 116.7,72.3 255.8,98.2 392.1,114.9 88,10.9 178.6,18.3 264.2,-4.9 67.5,-18.3 128.5,-54.7 188.5,-90.6 87.6,-52.6 175.3,-105.2 262.9,-157.7 60,-36 120.7,-72.6 169.1,-122.9 118.2,-122.9 142.6,-325.7 57,-473.1 -51.5,-88.8 -135.9,-155 -185.9,-244.6 -42.2,-75.6 -61.3,-169.2 -130,-222 -42.9,-33.1 -98.2,-44.1 -148.8,-63.3 -187.9,-71.3 -336.1,-263.8 -536.9,-253.9 -132.3,6.5 -244.1,104.3 -315.9,215.6 -101.2,156.7 -144.3,350 -119.2,534.9 6.5,48 17.3,97.5 4.1,144.1 -35.3,124.4 -132.1,176.3 -105.6,319.8 23.6,128 93,234.7 204.4,303.7"
         style="fill:#21111d;fill-opacity:1;fill-rule:nonzero;stroke:none"
         id="path216" /><path
         d="m 25780.4,12987.4 2323.2,-5.8 -44.4,-613.4 -928.2,2.3 c -312.3,0.8 -583.5,-248.1 -605.8,-556 l -44.4,-612.8 c -22.3,-307.9 212.8,-558.1 525.2,-558.9 l 928.2,-2.4 -44.4,-613.3 -2323.3,5.9 c -312.3,0.7 -547.5,251 -525.2,558.9 l 133.2,1839.5 c 22.3,307.9 293.6,556.8 605.9,556"
         style="fill:#096d68;fill-opacity:1;fill-rule:nonzero;stroke:none"
         id="path218" /><path
         d="M 22316.7,23.3008 31539.8,7.19922 32125.9,8102.8 c 61.2,845.7 -563.7,1532.9 -1395.8,1535 l -6209.2,15.7 c -832.2,2.1 -1556.4,-681.8 -1617.6,-1527.5 L 22316.7,23.3008"
         style="fill:#096d68;fill-opacity:1;fill-rule:nonzero;stroke:none"
         id="path220" /><path
         d="m 29101.7,9378.7 267.4,-0.7 67.6,933.9 -267.4,0.7 -67.6,-933.9"
         style="fill:#49263e;fill-opacity:1;fill-rule:nonzero;stroke:none"
         id="path222" /><path
         d="m 27130.2,9383.7 267.4,-0.7 67.6,933.9 -267.4,0.7 -67.6,-933.9"
         style="fill:#49263e;fill-opacity:1;fill-rule:nonzero;stroke:none"
         id="path224" /><path
         d="m 23068.5,21.4023 9229.8,75.3985 579.4,8004.0992 c 61.3,845.7 -563.7,1532.9 -1395.8,1535 l -6209.2,15.7 c -832.1,2.1 -1556.3,-681.8 -1617.6,-1527.5 L 23068.5,21.4023"
         style="fill:#5db58b;fill-opacity:1;fill-rule:nonzero;stroke:none"
         id="path226" /><path
         d="m 26119.7,11815.5 c 22.3,307.9 285.9,556.9 588.9,556.1 l 3531.2,-8.9 c 303,-0.8 530.5,-251 508.2,-558.9 l -44.4,-612.8 c -22.3,-307.8 -285.9,-556.8 -588.9,-556.1 l -3531.2,9 c -303,0.7 -530.5,250.9 -508.2,558.8 z m -657.2,615.2 -133.2,-1839.6 c -22.2,-307.9 205.3,-558.1 508.2,-558.8 l 4934.4,-12.5 c 303,-0.7 566.6,248.2 588.9,556.1 l 133.2,1839.5 c 22.3,307.9 -205.3,558.1 -508.2,558.9 l -4934.4,12.4 c -302.9,0.8 -566.6,-248.2 -588.9,-556"
         style="fill:#5db58b;fill-opacity:1;fill-rule:nonzero;stroke:none"
         id="path228" /><path
         d="m 17891.4,12455.8 199.6,-23 -292.1,479.9 151.7,-17.5 -417.6,527 v 0 0 h -0.1 v 0 l -417.6,-430.6 182.6,-21.1 -332.2,-407.9 243.5,-28.1 -377.6,-504.6 698.4,-80.6 5.9,-0.6 690.7,-79.8 -335.2,586.9"
         style="fill:#ef182d;fill-opacity:1;fill-rule:nonzero;stroke:none"
         id="path230" /><path
         d="m 17841.3,12461.3 199.7,-23 -292.1,479.9 151.7,-17.5 -417.7,527 v 0.1 -0.1 0.1 -0.1 l -417.6,-430.6 182.6,-21 -332.2,-407.9 243.5,-28.1 -377.6,-504.6 698.4,-80.6 5.8,-0.7 690.8,-79.7 -335.3,586.8"
         style="fill:#ff424d;fill-opacity:1;fill-rule:nonzero;stroke:none"
         id="path232" /><path
         d="m 17482.9,13427.8 50,-5.6 25.7,-73.4 -15.5,3 -60.2,76"
         style="fill:#ef182d;fill-opacity:1;fill-rule:nonzero;stroke:none"
         id="path234" /><path
         d="m 17485.7,13284.3 c -1.6,0 -3.3,0.2 -4.9,0.6 -188.7,47.7 -105.3,507.1 -95.1,559.3 2.1,10.8 12.5,17.9 23.4,15.8 10.8,-2.1 17.9,-12.6 15.8,-23.4 -25.5,-131.6 -63.4,-480.3 65.7,-512.8 10.7,-2.7 17.2,-13.6 14.5,-24.4 -2.3,-9 -10.5,-15.1 -19.4,-15.1"
         style="fill:#000000;fill-opacity:1;fill-rule:nonzero;stroke:none"
         id="path236" /><path
         d="m 2391.56,3077.3 c -10.4,0 -19.17,8 -19.92,18.6 l -366.45,5197.1 0.02,0.9 c 0.26,13.2 8.39,326.7 186.8,654.1 105,192.6 247.43,349.2 423.34,465.3 219.45,144.8 491.57,226.4 808.82,242.6 h 1.02 3419.43 c 11.04,0 19.99,-8.9 19.99,-20 0,-11 -8.95,-20 -19.99,-20 H 3425.71 c -561.93,-28.8 -964.95,-259.5 -1197.85,-685.7 -169.83,-310.8 -182.08,-618 -182.65,-636.3 l 366.31,-5195.2 c 0.78,-11 -7.52,-20.6 -18.53,-21.4 h -1.43"
         style="fill:#000000;fill-opacity:1;fill-rule:nonzero;stroke:none"
         id="path238" /><path
         d="m 10149.1,8682.2 c -4.7,0 -9.4,1.6 -13.2,4.9 l -417.56,364.3 c -8.33,7.2 -9.19,19.9 -1.94,28.2 7.26,8.3 19.88,9.2 28.21,1.9 l 417.59,-364.2 c 8.3,-7.3 9.2,-19.9 1.9,-28.3 -3.9,-4.5 -9.5,-6.8 -15,-6.8"
         style="fill:#000000;fill-opacity:1;fill-rule:nonzero;stroke:none"
         id="path240" /><path
         d="m 10200.7,8433.4 c -4.9,0 -9.7,1.8 -13.6,5.4 l -333.51,310.9 c -8.08,7.6 -8.53,20.2 -1,28.3 7.53,8.1 20.17,8.6 28.25,1 l 333.46,-310.9 c 8.1,-7.6 8.6,-20.2 1,-28.3 -3.9,-4.2 -9.2,-6.4 -14.6,-6.4"
         style="fill:#000000;fill-opacity:1;fill-rule:nonzero;stroke:none"
         id="path242" /><path
         d="m 21424.3,2436.4 c -1.9,0 -3.9,0.3 -5.8,0.9 l -466.5,143.6 c -10.6,3.2 -16.5,14.4 -13.2,25 3.2,10.6 14.4,16.5 25,13.2 l 466.4,-143.6 c 10.6,-3.2 16.5,-14.4 13.2,-25 -2.6,-8.6 -10.5,-14.1 -19.1,-14.1"
         style="fill:#000000;fill-opacity:1;fill-rule:nonzero;stroke:none"
         id="path244" /><path
         d="m 21504.3,2223.2 c -2.1,0 -4.3,0.3 -6.4,1 l -469.5,160 c -10.5,3.5 -16.1,14.9 -12.5,25.4 3.5,10.4 14.9,16 25.3,12.4 l 469.6,-159.9 c 10.4,-3.5 16,-14.9 12.4,-25.4 -2.8,-8.3 -10.6,-13.5 -18.9,-13.5"
         style="fill:#000000;fill-opacity:1;fill-rule:nonzero;stroke:none"
         id="path246" /><path
         d="m 446.484,2331.3 c -8.007,0 -15.57,4.8 -18.64,12.8 -3.996,10.3 1.105,21.8 11.398,25.9 l 639.728,248.6 c 10.31,4 21.88,-1.1 25.87,-11.4 4,-10.3 -1.1,-21.8 -11.39,-25.9 L 453.715,2332.7 c -2.375,-1 -4.824,-1.4 -7.231,-1.4"
         style="fill:#000000;fill-opacity:1;fill-rule:nonzero;stroke:none"
         id="path248" /><path
         d="m 819.668,2282.5 c -7.684,0 -15.008,4.5 -18.305,12 -4.457,10.1 0.129,21.9 10.231,26.3 l 559.766,247 c 10.1,4.4 21.9,-0.1 26.35,-10.2 4.46,-10.1 -0.12,-22 -10.23,-26.4 l -559.761,-247 c -2.621,-1.1 -5.36,-1.7 -8.051,-1.7"
         style="fill:#000000;fill-opacity:1;fill-rule:nonzero;stroke:none"
         id="path250" /><path
         d="m 12273.4,4382.2 c -10.4,0 -19.2,8 -20,18.5 l -192.4,2657.7 -106.8,1277 c -77.5,355.6 -320.3,698.5 -334.6,718.4 -501.2,545.9 -1226.8,579.4 -1234.1,579.7 -11.1,0.4 -19.7,9.7 -19.2,20.7 0.4,11.1 9.3,19.7 20.7,19.3 7.6,-0.3 189.4,-7.8 437.2,-84.5 228.7,-70.8 557.6,-216.6 825.6,-509 l 1.5,-1.8 c 2.6,-3.6 261.3,-362.2 342.2,-735.6 l 0.4,-2.6 107,-1278.5 192.4,-2657.9 c 0.8,-11 -7.5,-20.6 -18.5,-21.4 h -1.4"
         style="fill:#000000;fill-opacity:1;fill-rule:nonzero;stroke:none"
         id="path252" /><path
         d="m 22608.4,4032.5 h -1.5 c -11,0.8 -19.3,10.4 -18.5,21.4 l 295,4073.6 c 23.2,321.3 115.8,602.3 275,835.1 127.5,186.3 297.6,342.2 505.6,463.3 353.6,205.7 699.9,239.9 703.3,240.2 11.1,1.1 20.8,-7 21.8,-18 1,-11 -7.1,-20.8 -18.1,-21.8 -3.3,-0.3 -342.1,-34 -688.2,-235.8 -318.1,-185.5 -708.1,-555.7 -759.6,-1265.9 L 22628.3,4051 c -0.7,-10.5 -9.5,-18.5 -19.9,-18.5"
         style="fill:#000000;fill-opacity:1;fill-rule:nonzero;stroke:none"
         id="path254" /><path
         d="m 32610,4382.2 -2.3,0.1 c -11,1.2 -18.8,11.1 -17.6,22.1 3.1,27.4 311.2,2747.9 271.8,3870.6 -14.9,426.7 -189.8,770.5 -519.6,1021.8 -257.3,196.1 -582.2,304.9 -914.7,306.5 l -4855.9,22.9 c -11.1,0.1 -20,9.1 -19.9,20.1 0,11 9,19.9 20,19.9 h 0.1 l 4855.9,-22.9 c 341.2,-1.6 674.5,-113.4 938.7,-314.7 339.9,-258.9 520,-612.9 535.4,-1052.2 39.4,-1125.6 -268.9,-3849.1 -272.1,-3876.5 -1.1,-10.2 -9.8,-17.7 -19.8,-17.7"
         style="fill:#000000;fill-opacity:1;fill-rule:nonzero;stroke:none"
         id="path256" /><path
         d="m 24489.7,8380.1 c -5.2,0 -10.4,2 -14.3,6.1 -7.7,7.9 -7.5,20.6 0.4,28.3 l 550.2,533.1 c 7.9,7.6 20.6,7.5 28.2,-0.5 7.7,-7.9 7.5,-20.6 -0.4,-28.3 l -550.2,-533 c -3.9,-3.8 -8.9,-5.7 -13.9,-5.7"
         style="fill:#000000;fill-opacity:1;fill-rule:nonzero;stroke:none"
         id="path258" /><path
         d="m 24849.6,8460.1 c -5.7,0 -11.3,2.4 -15.2,7 -7.2,8.4 -6.2,21 2.2,28.2 l 639.7,546.4 c 8.4,7.2 21,6.2 28.2,-2.2 7.2,-8.5 6.2,-21.1 -2.2,-28.2 l -639.7,-546.4 c -3.8,-3.3 -8.4,-4.8 -13,-4.8"
         style="fill:#000000;fill-opacity:1;fill-rule:nonzero;stroke:none"
         id="path260" /><path
         d="m 30703.6,11171 -1.4,0.1 c -11,0.8 -19.3,10.4 -18.5,21.4 l 44.3,612.8 c 10.6,145.2 -35.7,281.3 -130.1,383.1 -91.9,99.2 -219.1,153.9 -358.1,154.3 -11.1,0 -20,9 -20,20 0.1,11.1 9,20 20,20 h 0.1 c 150.2,-0.4 287.8,-59.7 387.3,-167.1 102.1,-110 152,-256.8 140.7,-413.2 l -44.3,-612.8 c -0.8,-10.5 -9.6,-18.6 -20,-18.6 z m -4120.1,-547.1 h -0.1 c -150.2,0.3 -287.8,59.7 -387.3,167 -102.1,110.1 -152,256.8 -140.7,413.2 l 44.3,612.9 c 23,317.1 295.4,574.6 607.5,574.6 h 1.4 c 11.1,0 20,-9 20,-20 -0.1,-11.1 -9,-20 -20,-20 h -1.4 c -291.6,0 -546.1,-240.8 -567.6,-537.5 l -44.3,-612.8 c -10.6,-145.3 35.7,-281.3 130.1,-383.1 91.9,-99.2 219.1,-154 358.1,-154.3 11.1,-0.1 20,-9 20,-20.1 0,-11 -9,-19.9 -20,-19.9 z m -533.5,2342.8 c -291.6,0 -546.1,-240.8 -567.5,-537.5 l -133.2,-1839.5 c -10.5,-145.2 35.7,-281.3 130.1,-383.1 91.9,-99.2 219.1,-154 358.2,-154.3 l 4934.4,-12.5 h 1.3 c 291.6,0 546.1,240.9 567.6,537.6 l 133.1,1839.5 c 10.5,145.2 -35.7,281.3 -130.1,383.1 -91.9,99.1 -219.1,153.9 -358.1,154.3 l -4934.4,12.4 z m 4723.3,-2966.9 h -1.4 l -4934.4,12.5 c -150.3,0.3 -287.9,59.7 -387.4,167.1 -102.1,110 -152,256.8 -140.7,413.2 l 133.2,1839.5 19.9,-1.4 -19.9,1.4 c 23,317.6 296.5,575.3 608.9,574.6 l 4934.4,-12.4 c 150.2,-0.4 287.8,-59.7 387.3,-167.1 102.1,-110.1 152,-256.8 140.7,-413.2 l -133.2,-1839.5 c -22.9,-317.2 -295.3,-574.7 -607.4,-574.7"
         style="fill:#000000;fill-opacity:1;fill-rule:nonzero;stroke:none"
         id="path262" /><path
         d="m 4184.56,11171 c -10.38,0 -19.15,8.1 -19.92,18.6 l -44.36,612.8 c -11.33,156.4 38.64,303.2 140.68,413.2 99.55,107.4 237.12,166.7 387.38,167.1 h 0.05 c 11.02,0 19.96,-8.9 19.99,-20 0.03,-11 -8.89,-20 -19.94,-20 -139.04,-0.4 -266.24,-55.1 -358.16,-154.3 -94.42,-101.8 -140.63,-237.9 -130.13,-383.1 l 44.37,-612.8 c 0.8,-11 -7.48,-20.6 -18.49,-21.4 z m 4120.15,-547.1 c -11.02,0 -19.96,8.9 -19.99,19.9 -0.03,11.1 8.9,20 19.94,20.1 139.05,0.3 266.25,55.1 358.17,154.3 94.42,101.8 140.63,237.9 130.12,383.1 l -44.37,612.8 c -21.48,296.6 -275.96,537.5 -567.57,537.5 h -1.38 c -11.02,0 -19.97,8.9 -20,20 -0.03,11 8.9,20 19.95,20 h 1.43 c 312.15,0 584.49,-257.5 607.45,-574.6 l 44.36,-612.9 c 11.32,-156.3 -38.63,-303.1 -140.68,-413.2 -99.55,-107.3 -237.12,-166.7 -387.38,-167 z m 533.48,2342.8 h -1.34 l -4934.39,-12.4 c -139.05,-0.4 -266.25,-55.2 -358.17,-154.3 -94.42,-101.9 -140.63,-237.9 -130.12,-383.1 l 133.18,-1839.5 c 21.48,-296.7 275.96,-537.5 567.57,-537.6 h 1.34 l 4934.38,12.5 c 139.05,0.3 266.25,55.1 358.17,154.3 94.42,101.8 140.63,237.9 130.12,383.1 l -133.18,1839.5 c -21.47,296.7 -275.96,537.5 -567.56,537.5 z M 4114.92,9999.8 c -312.14,0 -584.49,257.5 -607.45,574.7 L 3374.3,12414 c -11.33,156.4 38.63,303.1 140.68,413.2 99.54,107.4 237.12,166.7 387.38,167.1 l 4934.39,12.4 0.05,-20 -0.05,20 h 1.44 c 312.14,0 584.48,-257.4 607.44,-574.6 l 133.17,-1839.5 c 11.33,-156.4 -38.63,-303.2 -140.68,-413.2 -99.55,-107.4 -237.12,-166.8 -387.38,-167.1 l -4934.38,-12.5 h -1.44"
         style="fill:#000000;fill-opacity:1;fill-rule:nonzero;stroke:none"
         id="path264" /><path
         d="m 12664.7,5271.7 c -5.9,0 -11.7,2.6 -15.7,7.5 -6.8,8.7 -5.4,21.3 3.3,28.1 169,134 416.2,2137.6 500.2,2925.2 l -1185.7,133.7 c -11,1.2 -18.9,11.1 -17.6,22.1 1.2,11 11.2,18.9 22.1,17.6 l 1225.1,-138.1 -2,-19.7 c -0.8,-7 -75.1,-705.7 -174.6,-1416.2 -58.5,-417.5 -114.2,-757.4 -165.4,-1010.3 -87.7,-432.6 -143.2,-518.6 -177.3,-545.6 -3.7,-2.9 -8,-4.3 -12.4,-4.3"
         style="fill:#000000;fill-opacity:1;fill-rule:nonzero;stroke:none"
         id="path266" /><path
         d="m 12885.7,7864.8 c -5.1,0 -10.2,2 -14.1,5.8 l -231,230.5 c -7.8,7.8 -7.9,20.5 -0.1,28.3 7.8,7.8 20.5,7.8 28.3,0 l 231,-230.4 c 7.8,-7.8 7.9,-20.5 0.1,-28.3 -3.9,-3.9 -9.1,-5.9 -14.2,-5.9"
         style="fill:#000000;fill-opacity:1;fill-rule:nonzero;stroke:none"
         id="path268" /><path
         d="m 12885.7,7655.6 c -5.1,0 -10.2,1.9 -14.1,5.8 l -231,230.4 c -7.8,7.8 -7.9,20.5 -0.1,28.3 7.8,7.9 20.5,7.9 28.3,0.1 l 231,-230.5 c 7.8,-7.8 7.9,-20.4 0.1,-28.3 -3.9,-3.9 -9.1,-5.8 -14.2,-5.8"
         style="fill:#000000;fill-opacity:1;fill-rule:nonzero;stroke:none"
         id="path270" /><path
         d="m 13859.3,5411.6 c -11.1,0 -20,8.9 -20,20 v 2284.3 c 0,491.2 399.6,890.8 890.8,890.8 H 20164 c 491.2,0 890.8,-399.6 890.8,-890.8 V 6534.4 c 0,-11.1 -9,-20 -20,-20 -11,0 -20,8.9 -20,20 v 1181.5 c 0,469.1 -381.7,850.7 -850.8,850.7 h -5433.9 c -469.2,0 -850.9,-381.6 -850.9,-850.7 V 5431.6 c 0,-11.1 -8.9,-20 -19.9,-20"
         style="fill:#000000;fill-opacity:1;fill-rule:nonzero;stroke:none"
         id="path272" /><path
         d="m 19455.3,6371.1 h -3846.5 c -11,0 -20,9 -20,20 0,11.1 9,20 20,20 h 3846.5 c 11,0 20,-8.9 20,-20 0,-11 -9,-20 -20,-20"
         style="fill:#000000;fill-opacity:1;fill-rule:nonzero;stroke:none"
         id="path274" /><path
         d="m 19420,4228.8 h -4040.7 c -11,0 -20,9 -20,20.1 0,11 9,20 20,20 H 19420 c 11,0 20,-9 20,-20 0,-11.1 -9,-20.1 -20,-20.1"
         style="fill:#000000;fill-opacity:1;fill-rule:nonzero;stroke:none"
         id="path276" /><path
         d="M 20131.6,4032.5 H 14642 c -11,0 -20,8.9 -20,20 0,11 9,20 20,20 h 5489.6 c 11,0 19.9,-9 19.9,-20 0,-11.1 -8.9,-20 -19.9,-20"
         style="fill:#000000;fill-opacity:1;fill-rule:nonzero;stroke:none"
         id="path278" /><path
         d="m 13130.7,15427.9 c -11.1,0 -20,8.9 -20,20 0,11 8.9,20 20,20 251.7,0 469.7,179.3 518.2,426.3 l 233.7,1191 c 30.5,155.4 -9.6,314.7 -110.2,437 -100.7,122.5 -249.4,192.7 -408,192.7 -11,0 -20,9 -20,20 0,11.1 9,20 20,20 170.6,0 330.5,-75.5 438.9,-207.3 108.1,-131.6 151.4,-302.9 118.6,-470.1 l -233.8,-1191 c -52.2,-265.8 -286.6,-458.6 -557.4,-458.6"
         style="fill:#000000;fill-opacity:1;fill-rule:nonzero;stroke:none"
         id="path280" /><path
         d="M 7232.9,15427.9 H 2631.97 c -270.84,0 -505.27,192.8 -557.44,458.6 l -233.77,1191 c -32.81,167.2 10.42,338.5 118.61,470.1 108.32,131.8 268.27,207.3 438.84,207.3 11.04,0 19.99,-8.9 19.99,-20 0,-11 -8.95,-20 -19.99,-20 -158.57,0 -307.26,-70.2 -407.96,-192.7 -100.56,-122.3 -140.75,-281.6 -110.25,-437 l 233.76,-1191 c 48.5,-247 266.43,-426.3 518.21,-426.3 H 7232.9 c 11.04,0 19.99,-9 19.99,-20 0,-11.1 -8.95,-20 -19.99,-20"
         style="fill:#000000;fill-opacity:1;fill-rule:nonzero;stroke:none"
         id="path282" /><path
         d="m 32140,15427.9 c -11.1,0 -20,8.9 -20,20 0,11 8.9,20 20,20 251.8,0 469.7,179.3 518.2,426.3 l 233.7,1191 c 30.5,155.4 -9.6,314.7 -110.2,437 -100.7,122.5 -249.4,192.7 -408,192.7 -11,0 -19.9,9 -19.9,20 0,11.1 8.9,20 19.9,20 170.6,0 330.6,-75.5 438.9,-207.3 108.2,-131.6 151.4,-302.9 118.6,-470.1 l -233.8,-1191 c -52.1,-265.8 -286.6,-458.6 -557.4,-458.6"
         style="fill:#000000;fill-opacity:1;fill-rule:nonzero;stroke:none"
         id="path284" /><path
         d="m 26242.2,15427.9 h -4600.9 c -270.8,0 -505.3,192.8 -557.5,458.6 l -233.7,1191 c -32.8,167.2 10.4,338.5 118.6,470.1 108.3,131.8 268.2,207.3 438.8,207.3 11.1,0 20,-8.9 20,-20 0,-11 -8.9,-20 -20,-20 -158.5,0 -307.2,-70.2 -407.9,-192.7 -100.6,-122.3 -140.8,-281.6 -110.3,-437 l 233.8,-1191 c 48.5,-247 266.4,-426.3 518.2,-426.3 h 4600.9 c 11.1,0 20,-9 20,-20 0,-11.1 -8.9,-20 -20,-20"
         style="fill:#000000;fill-opacity:1;fill-rule:nonzero;stroke:none"
         id="path286" /><path
         d="M 28078.4,256.102 26948,1223.7 l 47,215.5 1280.6,-279.3 -197.2,-903.798 m -817,2404.098 832.6,3816 v 0 l 13.4,-42.8 -618.6,-2995.8 -55.2,12.1 -172.2,-789.5 m 2109.5,3519.9 -90.1,19.3 c 7.4,9.9 9.4,15.8 4.8,16.8 -51.9,11.4 -1026.7,224 -1173.3,256 l 1262.3,-275.4 -3.7,-16.7 m -1258.7,292.1 c -0.2,0.1 -0.5,0.1 -0.8,0.2 l 0.8,-0.2 m -0.9,0.2 c -0.8,0.2 -1.6,0.3 -2.3,0.5 l 2.3,-0.5 m -2.7,0.6 c -0.8,0.2 -1.5,0.3 -2.2,0.5 l 2.2,-0.5 m -7.4,1.6 v 0 0"
         style="fill:#5d725a;fill-opacity:1;fill-rule:nonzero;stroke:none"
         id="path288" /><path
         d="m 32604.2,215.602 -5474,1485.598 980.6,4748.7 5592.4,-1197.4 -1099,-5036.898"
         style="fill:#ff424d;fill-opacity:1;fill-rule:nonzero;stroke:none"
         id="path290" /><path
         d="m 28112.3,6472.2 h -0.1 c 0.1,0 0.1,0 0.1,0 m -0.9,0.2 h -0.1 c 0,0 0,0 0.1,0 m -2.4,0.5 -0.4,0.1 c 0.1,0 0.2,-0.1 0.4,-0.1 m -2.6,0.6 -5.2,1.1 c 1.5,-0.3 3.2,-0.7 5.2,-1.1 m -5.2,1.1 -7.2,1.6 c 0,0 2.4,-0.6 7.2,-1.6"
         style="fill:#3f6b51;fill-opacity:1;fill-rule:nonzero;stroke:none"
         id="path292" /><path
         d="m 29280.8,6199.4 -1170,250.5 -3.4,-16.5 -13.4,42.8 v 0 l 7.2,-1.6 v 0 l 5.2,-1.1 c 0.7,-0.2 1.4,-0.3 2.2,-0.5 l 0.4,-0.1 c 0.7,-0.2 1.5,-0.3 2.3,-0.5 h 0.1 c 0.3,-0.1 0.6,-0.1 0.8,-0.2 h 0.1 c 146.6,-32 1121.4,-244.6 1173.3,-256 4.6,-1 2.6,-6.9 -4.8,-16.8"
         style="fill:#3f3f32;fill-opacity:1;fill-rule:nonzero;stroke:none"
         id="path294" /><path
         d="m 28416.4,5453.2 -309,980.2 3.4,16.5 1170,-250.5 c -83.5,-112.6 -864.4,-746.2 -864.4,-746.2"
         style="fill:#ff232a;fill-opacity:1;fill-rule:nonzero;stroke:none"
         id="path296" /><path
         d="m 32604.2,215.602 -292.7,63.796 1.1,15.301 291.6,-79.097"
         style="fill:#1d1a33;fill-opacity:1;fill-rule:nonzero;stroke:none"
         id="path298" /><path
         d="m 32311.5,279.398 -4035.9,880.502 47.5,217.6 3989.5,-1082.801 -1.1,-15.301 M 26995,1439.2 v 0 l 266.4,1221 -266.4,-1221"
         style="fill:#39937c;fill-opacity:1;fill-rule:nonzero;stroke:none"
         id="path300" /><path
         d="m 28275.6,1159.9 -1280.6,279.3 266.4,1221 172.2,789.5 55.2,-12.1 -358.6,-1736.4 1192.9,-323.7 -47.5,-217.6"
         style="fill:#395d50;fill-opacity:1;fill-rule:nonzero;stroke:none"
         id="path302" /><path
         d="m 32604.2,215.602 -291.6,79.097 -3989.5,1082.801 -1192.9,323.7 358.6,1736.4 5554,-1211.6 -438.6,-2010.398"
         style="fill:#9c3645;fill-opacity:1;fill-rule:nonzero;stroke:none"
         id="path304" /><path
         d="m 30846.3,326.102 -3959.6,863.798 1190.4,5312.6 5630.8,-1228.3 c 11.9,-2.6 19.5,-14.4 16.9,-26.4 -2.6,-11.9 -14.4,-19.5 -26.4,-16.9 l -5587.5,1219 -1171.6,-5226.2 3916.4,-854.302 c 11.9,-2.695 19.5,-14.398 16.9,-26.398 -2.6,-11.898 -14.4,-19.5 -26.3,-16.898"
         style="fill:#000000;fill-opacity:1;fill-rule:nonzero;stroke:none"
         id="path306" /><path
         d="m 28735.1,3693.1 c -11.9,2.6 -19.5,14.4 -16.9,26.4 l 545.8,2501.4 c 2.6,12 14.4,19.5 26.3,16.9 12,-2.6 19.5,-14.4 16.9,-26.3 L 28761.5,3710 c -2.6,-11.9 -14.4,-19.5 -26.4,-16.9"
         style="fill:#000000;fill-opacity:1;fill-rule:nonzero;stroke:none"
         id="path308" /><path
         d="m 32944.5,4357.8 c -5.6,1.3 -10.8,4.7 -14.1,10 l -357.6,574.3 c -6.5,10.4 -3.3,24 7.1,30.5 10.3,6.4 24,3.3 30.4,-7.1 l 357.7,-574.4 c 6.4,-10.3 3.3,-24 -7.1,-30.4 -5.1,-3.2 -11,-4.1 -16.4,-2.9"
         style="fill:#000000;fill-opacity:1;fill-rule:nonzero;stroke:none"
         id="path310" /><path
         d="m 32823.7,4111.5 c -5.6,1.2 -10.8,4.6 -14.1,9.9 l -258.5,414 c -6.4,10.4 -3.3,24 7.1,30.5 10.3,6.5 24,3.3 30.5,-7.1 l 258.5,-414 c 6.4,-10.3 3.3,-24 -7.1,-30.5 -5.1,-3.1 -11,-4 -16.4,-2.8"
         style="fill:#000000;fill-opacity:1;fill-rule:nonzero;stroke:none"
         id="path312" /><path
         d="m 27957,7356.7 c -7.6,3.9 -16.1,6.3 -25.2,6.3 h -70.5 -188 -70.4 c -9.2,0 -17.7,-2.4 -25.3,-6.3 -516.9,-65 -922.9,-650.5 -922.9,-1361.1 V 4821.1 c 0,-31.1 25.3,-56.4 56.4,-56.4 31.2,0 56.4,25.3 56.4,56.4 v 1174.5 c 0,691.8 406.4,1254.6 905.8,1254.6 h 188 c 499.5,0 905.9,-562.8 905.9,-1254.6 V 4821.1 c 0,-31.1 25.2,-56.4 56.3,-56.4 31.2,0 56.4,25.3 56.4,56.4 v 1174.5 c 0,710.6 -406,1296.1 -922.9,1361.1"
         style="fill:#b9efef;fill-opacity:1;fill-rule:nonzero;stroke:none"
         id="path314" /><path
         d="m 21457.9,4795.9 c -10.7,-6.6 -25,-4.5 -33.3,5.4 -1.5,1.8 -151.8,180.9 -354.2,277.7 -12.8,6.1 -18.2,21.4 -12.1,34.2 6.1,12.7 21.4,18.1 34.2,12 212.9,-101.8 365.2,-283.4 371.6,-291.1 9,-10.9 7.5,-27 -3.4,-36.1 -0.9,-0.8 -1.9,-1.4 -2.8,-2.1"
         style="fill:#21111d;fill-opacity:1;fill-rule:nonzero;stroke:none"
         id="path316" /><path
         d="m 22036.7,5177 c -264.2,144.1 -445.5,4.3 -515.8,-119.9 -56.9,-100.7 -126,-160.5 -150.2,-179.6 -27.7,-13.2 -111.9,-48.9 -227.4,-55.6 -142.5,-8.2 -347.9,-109.2 -335.2,-409.9 12.8,-300.6 708.4,-954.3 1034.1,-798.5 0,0 91.8,57.2 125.6,78.3 13.4,8.3 30.2,19.8 49.3,32.5 1.8,-0.3 3.3,0 4.5,0.9 15.4,11.5 31.2,22.1 46.8,32 15.7,9.6 32.3,19.1 49.3,27.9 1.4,0.7 2.3,1.9 2.8,3.6 19.9,11.5 37.6,21.5 51,29.9 33.8,21 125.7,78.2 125.7,78.2 283.5,223.5 3.7,1136.1 -260.5,1280.2"
         style="fill:#f75553;fill-opacity:1;fill-rule:nonzero;stroke:none"
         id="path318" /><path
         d="m 20929.3,4407.6 c -11.5,0 -21.5,8.4 -23.1,20.1 -0.9,5.9 -19.2,145.2 87.2,250.2 9.1,9 23.9,8.9 33,-0.2 9.1,-9.2 9,-24 -0.2,-33.1 -89.8,-88.6 -74,-209.2 -73.8,-210.4 1.8,-12.7 -7.1,-24.6 -19.8,-26.4 -1.1,-0.1 -2.3,-0.2 -3.3,-0.2"
         style="fill:#21111d;fill-opacity:1;fill-rule:nonzero;stroke:none"
         id="path320" /><path
         d="m 20986.9,4378.3 c -11.4,0 -21.4,8.4 -23.1,20.1 -0.8,5.8 -19.1,145.2 87.3,250.2 9.1,9 23.9,8.9 33,-0.3 9,-9.1 9,-24 -0.2,-33 -89.8,-88.6 -74,-209.2 -73.8,-210.4 1.8,-12.8 -7.1,-24.6 -19.9,-26.4 -1.1,-0.2 -2.2,-0.2 -3.3,-0.2"
         style="fill:#21111d;fill-opacity:1;fill-rule:nonzero;stroke:none"
         id="path322" /><path
         d="m 21732.9,5226.3 c -28.9,-417.6 -121.4,-1163.9 -416,-1468.8 188.5,-132.8 389.2,-209.1 525.3,-144 0,0 91.8,57.2 125.6,78.3 13.4,8.3 30.2,19.8 49.3,32.5 1.8,-0.3 3.3,0 4.5,0.9 15.4,11.5 31.2,22.1 46.8,32 15.7,9.6 32.3,19.1 49.3,27.9 1.4,0.7 2.3,1.9 2.8,3.6 19.9,11.5 37.6,21.5 51,29.9 33.8,21 125.7,78.2 125.7,78.2 283.5,223.5 3.7,1136.1 -260.5,1280.2 -118.9,64.8 -221,72.2 -303.8,49.3"
         style="fill:#f44d4d;fill-opacity:1;fill-rule:nonzero;stroke:none"
         id="path324" /><path
         d="m 21958.2,5000 c 1.3,-40.7 -66.6,-75.9 -151.7,-78.8 -85.1,-2.8 -155.2,27.9 -156.5,68.5 -1.4,40.6 66.5,75.9 151.6,78.7 85.1,2.9 155.2,-27.8 156.6,-68.4"
         style="fill:#f46e6e;fill-opacity:1;fill-rule:nonzero;stroke:none"
         id="path326" /><path
         d="m 21729.3,3566.2 c -117.5,0 -244.2,58.6 -341,116.7 -307.5,184.7 -595.2,531.8 -603.5,728.1 -13.9,325.8 218,426.2 357.1,434.2 110,6.4 189.6,39.5 218.7,53.4 1,0.4 58.9,28.1 104.5,113.9 6.1,11.4 20.2,15.8 31.6,9.7 11.4,-6.1 15.7,-20.2 9.7,-31.6 -53.7,-100.9 -123.2,-133.1 -126.1,-134.4 -31.1,-14.9 -117.4,-50.8 -235.7,-57.6 -151.6,-8.7 -324.6,-115 -313.1,-385.6 7.6,-179.9 290,-515.3 580.9,-690 172.1,-103.4 320.7,-135 418.5,-89 l 124.6,77.6 c 10.9,6.8 25.4,3.5 32.2,-7.5 6.8,-11 3.4,-25.4 -7.5,-32.2 l -128,-79.5 c -38.5,-18.4 -80.1,-26.2 -122.9,-26.2"
         style="fill:#21111d;fill-opacity:1;fill-rule:nonzero;stroke:none"
         id="path328" /><path
         d="m 23018.9,4595.6 c -12.6,0.6 -23.1,10.5 -24.3,23.4 -0.2,2.3 -21.5,235.1 -132.6,430.1 -7,12.2 -2.7,27.9 9.6,34.9 12.3,7 28,2.7 35,-9.6 116.7,-205 138.2,-441.1 139.1,-451 1.2,-14.1 -9.2,-26.5 -23.3,-27.7 -1.2,-0.1 -2.4,-0.2 -3.5,-0.1"
         style="fill:#21111d;fill-opacity:1;fill-rule:nonzero;stroke:none"
         id="path330" /><path
         d="m 23711.7,4578.5 c -134.9,269 -363.5,257.6 -492.1,195.6 -104.2,-50.2 -195.1,-59.9 -225.8,-61.8 -30.4,4.9 -119.9,23.6 -218.5,84 -121.8,74.5 -348.1,108.7 -509.1,-145.6 -161,-254.2 37.6,-1187.9 394,-1245.6 0,0 108,-5.4 147.8,-7.4 15.8,-0.7 36.1,-0.9 59.1,-1.3 1.3,-1.2 2.7,-1.9 4.2,-1.8 19.2,0.6 38.2,0.4 56.7,-0.4 18.4,-1.1 37.4,-2.7 56.4,-5.3 1.5,-0.2 3,0.3 4.4,1.4 22.9,-1.8 43.1,-3.7 58.8,-4.5 39.9,-2 147.9,-7.4 147.9,-7.4 360.4,21.9 651,931.1 516.2,1200.1"
         style="fill:#f75553;fill-opacity:1;fill-rule:nonzero;stroke:none"
         id="path332" /><path
         d="m 22376.5,4573.8 c -3.5,0 -7.2,0.9 -10.5,2.6 -11.5,5.8 -16.1,19.8 -10.4,31.3 2.7,5.3 67.1,130.2 214.4,155.8 12.7,2.2 24.8,-6.3 27,-19 2.2,-12.8 -6.3,-24.8 -19,-27 -123.6,-21.5 -180.1,-129.8 -180.7,-130.9 -4.1,-8.1 -12.3,-12.8 -20.8,-12.8"
         style="fill:#21111d;fill-opacity:1;fill-rule:nonzero;stroke:none"
         id="path334" /><path
         d="m 22407.1,4516.9 c -3.5,0 -7.1,0.8 -10.5,2.5 -11.5,5.8 -16.1,19.8 -10.3,31.3 2.6,5.3 67.1,130.2 214.3,155.8 12.8,2.2 24.8,-6.3 27,-19 2.3,-12.7 -6.3,-24.8 -19,-27 -123.5,-21.5 -180.1,-129.8 -180.6,-130.9 -4.2,-8 -12.4,-12.7 -20.9,-12.7"
         style="fill:#21111d;fill-opacity:1;fill-rule:nonzero;stroke:none"
         id="path336" /><path
         d="m 23490.3,4792.3 c -262,-326.6 -763.6,-886.9 -1179.5,-969.4 79.1,-216.5 200.4,-393.7 349.4,-417.8 0,0 108,-5.4 147.8,-7.4 15.8,-0.7 36.1,-0.9 59.1,-1.3 1.3,-1.2 2.7,-1.9 4.2,-1.8 19.2,0.6 38.2,0.4 56.7,-0.4 18.4,-1.1 37.4,-2.7 56.4,-5.3 1.5,-0.2 3,0.3 4.4,1.4 22.9,-1.8 43.1,-3.7 58.8,-4.5 39.9,-2 147.9,-7.4 147.9,-7.4 360.4,21.9 651,931.1 516.2,1200.1 -60.7,121.1 -140.4,185.3 -221.4,213.8"
         style="fill:#f44d4d;fill-opacity:1;fill-rule:nonzero;stroke:none"
         id="path338" /><path
         d="m 23546.2,4477.9 c -22.1,-34.2 -97.9,-24.4 -169.5,21.8 -71.5,46.2 -111.6,111.3 -89.5,145.5 22,34.2 97.9,24.4 169.4,-21.8 71.6,-46.2 111.7,-111.3 89.6,-145.5"
         style="fill:#f46e6e;fill-opacity:1;fill-rule:nonzero;stroke:none"
         id="path340" /><path
         d="m 22808.1,3374.4 h -1.2 l -150.5,7.7 c -157.7,25.5 -266.2,198.4 -329.4,338.9 -147.3,327.1 -185.7,776.2 -80.5,942.2 174.4,275.5 422,225.8 541,153 93.9,-57.4 178.2,-75.7 210,-80.8 1,-0.3 64.4,-10.5 150.9,34 11.4,5.8 25.5,1.3 31.4,-10.1 5.9,-11.5 1.4,-25.6 -10.1,-31.5 -101.6,-52.3 -177,-39.1 -180.2,-38.5 -34,5.5 -125.4,25.3 -226.4,87.1 -129.6,79.3 -332.3,90.7 -477.2,-138.2 -96.3,-152.1 -55.7,-588.6 83.7,-898.1 82.4,-183.1 186.4,-293.7 293.1,-311.7 l 146.5,-7.3 c 12.9,-0.7 22.8,-11.6 22.2,-24.5 -0.6,-12.5 -10.9,-22.2 -23.3,-22.2"
         style="fill:#21111d;fill-opacity:1;fill-rule:nonzero;stroke:none"
         id="path342" /><path
         d="m 24518.3,4665.1 c -11.4,5.4 -17.3,18.6 -13.3,30.9 0.7,2.2 71.1,225.1 44.1,447.9 -1.7,14 8.3,26.8 22.3,28.5 14.1,1.7 26.8,-8.3 28.5,-22.3 28.4,-234.3 -43.1,-460.3 -46.1,-469.8 -4.3,-13.5 -18.8,-20.9 -32.2,-16.5 -1.2,0.3 -2.3,0.8 -3.3,1.3"
         style="fill:#21111d;fill-opacity:1;fill-rule:nonzero;stroke:none"
         id="path344" /><path
         d="m 25150.5,4381.3 c -20.2,300.3 -235.5,378.2 -378,370.8 -115.5,-6.1 -203.1,20.1 -232.2,30.3 -26.1,16.3 -101.4,68.1 -169,162 -83.4,115.8 -279,234.8 -525.8,62.6 -246.8,-172.2 -424.8,-1109.9 -118.5,-1301 0,0 97.6,-46.8 133.5,-64 14.2,-6.8 32.9,-14.8 53.9,-24.1 0.7,-1.6 1.8,-2.7 3.2,-3.3 17.9,-6.8 35.4,-14.4 52.1,-22.2 16.6,-8.2 33.5,-17 50,-26.7 1.3,-0.8 2.9,-0.9 4.6,-0.4 20.4,-10.6 38.3,-20.2 52.5,-27 36,-17.2 133.5,-64 133.5,-64 340.8,-119.2 960.5,606.8 940.2,907"
         style="fill:#f75553;fill-opacity:1;fill-rule:nonzero;stroke:none"
         id="path346" /><path
         d="m 23926.6,4891.6 c -6.6,0 -13.2,2.8 -17.8,8.2 -8.4,9.8 -7.2,24.6 2.6,32.9 4.5,3.9 112.3,94.1 257.9,60.8 12.6,-2.9 20.4,-15.4 17.5,-28 -2.8,-12.6 -15.4,-20.5 -27.9,-17.5 -123,28.1 -216.2,-50 -217.2,-50.8 -4.4,-3.7 -9.8,-5.6 -15.1,-5.6"
         style="fill:#21111d;fill-opacity:1;fill-rule:nonzero;stroke:none"
         id="path348" /><path
         d="m 23932.8,4827.3 c -6.6,0 -13.2,2.8 -17.8,8.2 -8.4,9.8 -7.2,24.5 2.6,32.8 4.5,3.9 112.3,94.2 257.9,60.8 12.6,-2.9 20.4,-15.4 17.5,-28 -2.9,-12.6 -15.4,-20.4 -27.9,-17.5 -122.3,28 -216.2,-50 -217.2,-50.8 -4.4,-3.7 -9.8,-5.5 -15.1,-5.5"
         style="fill:#21111d;fill-opacity:1;fill-rule:nonzero;stroke:none"
         id="path350" /><path
         d="m 25029.1,4664.1 c -367.9,-199.8 -1047.2,-522.5 -1462.6,-437.7 -10.9,-230.3 32.5,-440.5 160.5,-520.4 0,0 97.6,-46.8 133.5,-64 14.2,-6.8 32.9,-14.8 53.9,-24.1 0.7,-1.6 1.8,-2.7 3.2,-3.3 17.9,-6.8 35.4,-14.4 52.1,-22.2 16.6,-8.2 33.5,-17 50,-26.7 1.3,-0.8 2.9,-0.9 4.6,-0.4 20.4,-10.6 38.3,-20.2 52.5,-27 36,-17.2 133.5,-64 133.5,-64 340.8,-119.2 960.5,606.8 940.2,907 -9.1,135.2 -57.7,225.2 -121.4,282.8"
         style="fill:#f44d4d;fill-opacity:1;fill-rule:nonzero;stroke:none"
         id="path352" /><path
         d="m 24959.1,4352.6 c -33.6,-23 -99.8,15.3 -147.9,85.6 -48.1,70.3 -59.9,145.9 -26.3,168.8 33.6,23 99.8,-15.3 147.8,-85.6 48.1,-70.3 59.9,-145.9 26.4,-168.8"
         style="fill:#f46e6e;fill-opacity:1;fill-rule:nonzero;stroke:none"
         id="path354" /><path
         d="m 23860.5,3618.6 c -3.4,0 -6.8,0.8 -10.1,2.3 l -135.8,65.3 c -135.6,84.6 -168.7,285.9 -172.7,439.9 -9.3,358.6 129.1,787.6 290.3,900.1 267.4,186.5 476.6,44.9 558.1,-68.2 66.2,-91.9 141.1,-142.5 162.4,-155.8 0.9,-0.6 55.4,-34.6 152.2,-27 12.7,0.9 24.1,-8.5 25.1,-21.4 1,-12.9 -8.6,-24.2 -21.4,-25.2 -113.9,-8.9 -178.4,32.5 -181.1,34.3 -29.3,18.2 -105.9,71.7 -175.1,167.8 -88.8,123.3 -271.4,212.2 -493.5,57.1 -147.7,-103 -279.1,-521.2 -270.3,-860.5 5.2,-200.7 58.3,-343 149.7,-400.8 l 132.3,-63.5 c 11.7,-5.5 16.6,-19.5 11,-31.1 -4,-8.4 -12.4,-13.3 -21.1,-13.3"
         style="fill:#21111d;fill-opacity:1;fill-rule:nonzero;stroke:none"
         id="path356" /><path
         d="m 25569.1,133 h -5140.9 v 3804 h 5140.9 V 133"
         style="fill:#fec786;fill-opacity:1;fill-rule:nonzero;stroke:none"
         id="path358" /><path
         d="m 21713.4,133 h -1285.2 v 3804 h 1285.2 V 133"
         style="fill:#ffb666;fill-opacity:1;fill-rule:nonzero;stroke:none"
         id="path360" /><path
         d="m 20428.2,3937 423.3,423.4 c 121.1,121 317.4,121 438.5,0 l 423.4,-423.4 h -1285.2"
         style="fill:#ffb666;fill-opacity:1;fill-rule:nonzero;stroke:none"
         id="path362" /><path
         d="m 21713.4,3937 423.4,423.4 c 121,121 317.4,121 438.4,0 l 423.4,-423.4 h -1285.2"
         style="fill:#fec786;fill-opacity:1;fill-rule:nonzero;stroke:none"
         id="path364" /><path
         d="m 22998.6,3937 423.4,423.4 c 121.1,121 317.4,121 438.5,0 l 423.3,-423.4 h -1285.2"
         style="fill:#fec786;fill-opacity:1;fill-rule:nonzero;stroke:none"
         id="path366" /><path
         d="m 24283.8,3937 423.4,423.4 c 121.1,121 317.4,121 438.5,0 l 423.4,-423.4 h -1285.3"
         style="fill:#fec786;fill-opacity:1;fill-rule:nonzero;stroke:none"
         id="path368" /><path
         d="m 30707.6,1061.6 -349.4,3950.2 h -4894.8 l -349.3,-3950.2 h 5593.5"
         style="fill:#2d1627;fill-opacity:1;fill-rule:nonzero;stroke:none"
         id="path370" /><path
         d="M 31532.5,439.602 31128.2,5011.8 H 26233.4 L 25829.1,439.602 h 5703.4"
         style="fill:#49263e;fill-opacity:1;fill-rule:nonzero;stroke:none"
         id="path372" /><path
         d="m 25917.6,1405.9 c -1,0 -2,0.1 -3,0.2 -18.6,1.6 -32.4,18 -30.7,36.6 l 318.6,3602.9 h 2881.4 c 18.7,0 33.8,-15.1 33.8,-33.8 0,-18.7 -15.1,-33.8 -33.8,-33.8 h -2819.5 l -313.2,-3541.2 c -1.5,-17.6 -16.3,-30.9 -33.6,-30.9"
         style="fill:#000000;fill-opacity:1;fill-rule:nonzero;stroke:none"
         id="path374" /><path
         d="m 28706.1,7356.7 c -7.7,3.9 -16.2,6.3 -25.3,6.3 h -70.4 -188 -70.5 c -9.1,0 -17.6,-2.4 -25.3,-6.3 -516.9,-65 -922.8,-650.5 -922.8,-1361.1 V 4821.1 c 0,-31.1 25.2,-56.4 56.4,-56.4 31.1,0 56.3,25.3 56.3,56.4 v 1174.5 c 0,691.8 406.4,1254.6 905.9,1254.6 h 188 c 499.4,0 905.8,-562.8 905.8,-1254.6 V 4821.1 c 0,-31.1 25.2,-56.4 56.4,-56.4 31.1,0 56.3,25.3 56.3,56.4 v 1174.5 c 0,710.6 -405.9,1296.1 -922.8,1361.1"
         style="fill:#cafbff;fill-opacity:1;fill-rule:nonzero;stroke:none"
         id="path376" /><path
         d="m 25158,1173.7 339.1,3835.1 c 1.7,18.6 -12.1,35 -30.7,36.7 -18.4,1.6 -35,-12.1 -36.7,-30.7 l -339.6,-3841.1 h 67.9"
         style="fill:#000000;fill-opacity:1;fill-rule:nonzero;stroke:none"
         id="path378" /><path
         d="m 29076.6,3886.5 c -10.3,0 -20.4,4.7 -27.1,13.6 -11.2,14.9 -8.1,36.1 6.8,47.3 l 1042.3,781.8 c 15,11.1 36.2,8.1 47.4,-6.8 11.2,-15 8.2,-36.2 -6.7,-47.4 l -1042.4,-781.7 c -6.1,-4.6 -13.2,-6.8 -20.3,-6.8"
         style="fill:#000000;fill-opacity:1;fill-rule:nonzero;stroke:none"
         id="path380" /><path
         d="m 29828.3,4026.9 c -10,0 -19.9,4.4 -26.5,12.8 -11.6,14.6 -9.2,35.9 5.5,47.5 l 721.7,571.2 c 14.6,11.7 35.9,9.2 47.5,-5.5 11.6,-14.6 9.1,-35.9 -5.6,-47.5 l -721.6,-571.2 c -6.2,-5 -13.6,-7.3 -21,-7.3"
         style="fill:#000000;fill-opacity:1;fill-rule:nonzero;stroke:none"
         id="path382" /><path
         d="m 23307.2,2805.4 c -6104.1,949.8 -11305.4,61.3 -11644.7,1.1 C 5348.37,3789.1 0,2804.5 0,2804.5 V 14.3008 L 11644.7,35 11661.5,42.1016 23289.5,98 23333.7,65.4023 34970,14.3008 V 2801.9 c -6109.9,953.3 -11323.2,63.7 -11662.8,3.5"
         style="fill:#8bd8b3;fill-opacity:1;fill-rule:nonzero;stroke:none"
         id="path384" /><path
         d="m 11225.2,1113.7 c -31.5,0 -57.9,24.6 -59.8,56.5 -50.5,848.3 427.8,1659.4 448.2,1693.5 17,28.4 53.8,37.7 82.3,20.7 28.4,-17 37.7,-53.9 20.7,-82.3 -4.8,-8.1 -479.7,-814.2 -431.4,-1624.8 1.9,-33.1 -23.3,-61.5 -56.3,-63.5 -1.3,-0.1 -2.5,-0.1 -3.7,-0.1"
         style="fill:#000000;fill-opacity:1;fill-rule:nonzero;stroke:none"
         id="path386" /><path
         d="m 22900.3,1113.7 c -31.5,0 -57.9,24.6 -59.8,56.5 -50.5,848.3 427.9,1659.4 448.2,1693.5 17,28.4 53.9,37.7 82.3,20.7 28.4,-17 37.7,-53.9 20.7,-82.3 -4.8,-8.1 -479.7,-814.2 -431.4,-1624.8 1.9,-33.1 -23.3,-61.5 -56.3,-63.5 -1.3,-0.1 -2.5,-0.1 -3.7,-0.1"
         style="fill:#000000;fill-opacity:1;fill-rule:nonzero;stroke:none"
         id="path388" /><path
         d="M 34970,1210.2 0,1209.4 V 0 h 34970 v 1210.2"
         style="fill:#096d68;fill-opacity:1;fill-rule:nonzero;stroke:none"
         id="path390" /><path
         d="m 13252.5,3000.9 c -10,0 -18.7,7.5 -19.8,17.7 -1.3,10.9 6.6,20.9 17.5,22.1 9.7,1.2 984.6,113 2330.3,183.9 1242.2,65.3 3063.4,108.1 4685.9,-59.2 11,-1.2 18.9,-11 17.8,-22 -1.1,-11 -11,-19.1 -21.9,-17.8 -1619.8,167.1 -3438.7,124.3 -4679.4,59 -1344.5,-70.8 -2318.4,-182.5 -2328.1,-183.6 l -2.3,-0.1"
         style="fill:#000000;fill-opacity:1;fill-rule:nonzero;stroke:none"
         id="path392" /><path
         d="m 3098.68,16229.5 c -3.69,0 -7.43,1.1 -10.77,3.2 l -533.11,341.9 c -9.29,5.9 -12,18.3 -6.05,27.6 5.97,9.3 18.33,12 27.63,6 l 533.11,-341.8 c 9.29,-6 12,-18.3 6.05,-27.6 -3.82,-6 -10.27,-9.3 -16.86,-9.3"
         style="fill:#000000;fill-opacity:1;fill-rule:nonzero;stroke:none"
         id="path394" /><path
         d="m 3098.68,15923 c -4.13,0 -8.31,1.3 -11.88,4 l -413.16,306.5 c -8.88,6.6 -10.74,19.1 -4.16,28 6.57,8.8 19.1,10.7 27.96,4.1 l 413.16,-306.5 c 8.88,-6.6 10.74,-19.1 4.16,-28 -3.92,-5.3 -9.96,-8.1 -16.08,-8.1"
         style="fill:#000000;fill-opacity:1;fill-rule:nonzero;stroke:none"
         id="path396" /><path
         d="m 5081.58,17515.6 h -1261.7 c -11.04,0 -19.99,8.9 -19.99,20 0,11 8.95,20 19.99,20 h 1261.7 c 11.04,0 19.99,-9 19.99,-20 0,-11.1 -8.95,-20 -19.99,-20"
         style="fill:#000000;fill-opacity:1;fill-rule:nonzero;stroke:none"
         id="path398" /><path
         d="m 11952.8,17855.4 h -1066.3 c -11,0 -19.9,9 -19.9,20 0,11 8.9,20 19.9,20 h 1066.3 c 11,0 20,-9 20,-20 0,-11 -9,-20 -20,-20"
         style="fill:#000000;fill-opacity:1;fill-rule:nonzero;stroke:none"
         id="path400" /><path
         d="m 24166.9,17855.4 h -1291.3 c -11,0 -20,9 -20,20 0,11 9,20 20,20 h 1291.3 c 11,0 20,-9 20,-20 0,-11 -9,-20 -20,-20"
         style="fill:#000000;fill-opacity:1;fill-rule:nonzero;stroke:none"
         id="path402" /><path
         d="M 30984.8,17515.6 H 29498 c -11,0 -20,8.9 -20,20 0,11 9,20 20,20 h 1486.8 c 11,0 20,-9 20,-20 0,-11.1 -9,-20 -20,-20"
         style="fill:#000000;fill-opacity:1;fill-rule:nonzero;stroke:none"
         id="path404" /><path
         d="m 32305.7,17270.5 c -5.6,0 -11.1,2.3 -15,6.8 l -124.4,142.2 c -7.3,8.3 -6.5,20.9 1.8,28.2 8.3,7.3 21,6.5 28.3,-1.9 l 124.3,-142.1 c 7.3,-8.3 6.5,-21 -1.8,-28.2 -3.8,-3.4 -8.5,-5 -13.2,-5"
         style="fill:#000000;fill-opacity:1;fill-rule:nonzero;stroke:none"
         id="path406" /><path
         d="m 32305.7,17075.8 c -5.1,0 -10.2,1.9 -14.1,5.8 l -195.5,194.7 c -7.8,7.8 -7.8,20.5 0,28.3 7.8,7.8 20.4,7.9 28.2,0.1 l 195.5,-194.7 c 7.8,-7.8 7.9,-20.5 0.1,-28.3 -3.9,-3.9 -9.1,-5.9 -14.2,-5.9"
         style="fill:#000000;fill-opacity:1;fill-rule:nonzero;stroke:none"
         id="path408" /><path
         d="m 19591.9,13917.6 h -2071.1 2071 c 13.4,0 26.5,1.4 39.1,4.1 -12.6,-2.7 -25.6,-4.1 -39,-4.1 m 39.3,4.1 c 0.2,0.1 0.4,0.1 0.6,0.2 -0.2,-0.1 -0.4,-0.1 -0.6,-0.2"
         style="fill:#2f5b46;fill-opacity:1;fill-rule:nonzero;stroke:none"
         id="path410" /><path
         d="m 19591.8,13917.6 h -2071 l 230.2,180.1 c 21.8,0.2 43.7,0.3 65.6,0.3 147.1,0 296.3,-5.7 452.7,-21.4 131.2,-13.1 258.9,-30.7 391.1,-42.5 217.5,-19.4 441.4,-22.6 666.2,-22.6 55.2,0 110.6,0.2 165.9,0.4 55.1,0.2 110.2,0.4 165.2,0.4 9.7,0 19.5,0 29.2,-0.1 22.1,0 45.5,-0.3 67.2,-2.1 -26.4,-44.3 -70.3,-77 -122.3,-88.2 -0.2,-0.1 -0.4,-0.1 -0.6,-0.2 -0.1,0 -0.2,0 -0.3,0 -12.6,-2.7 -25.7,-4.1 -39.1,-4.1"
         style="fill:#98d1bf;fill-opacity:1;fill-rule:nonzero;stroke:none"
         id="path412" /><path
         d="m 17106.2,13917.6 h -262.3 l 203.4,151.5 c 96,4.3 189.3,9.2 281.3,13.8 l -222.4,-165.3"
         style="fill:#98d1bf;fill-opacity:1;fill-rule:nonzero;stroke:none"
         id="path414" /><path
         d="m 15644.2,13917.6 h -462.9 c -42.8,0 -82.2,14.3 -113.8,38.2 31.6,-23.9 71.1,-38.2 113.8,-38.2 h 462.9 m -577,38.4 c -0.2,0.1 -0.3,0.3 -0.5,0.4 0.2,-0.1 0.3,-0.3 0.5,-0.4 m -1.1,0.9 c 0,0 -0.1,0 -0.1,0 0,0 0.1,0 0.1,0"
         style="fill:#2f5b46;fill-opacity:1;fill-rule:nonzero;stroke:none"
         id="path416" /><path
         d="m 15644.2,13917.6 h -462.9 c -42.7,0 -82.2,14.3 -113.8,38.2 -0.1,0.1 -0.2,0.1 -0.3,0.2 -0.2,0.1 -0.3,0.3 -0.5,0.4 -0.2,0.2 -0.4,0.3 -0.6,0.5 0,0 -0.1,0 -0.1,0 -29.9,23.2 -52.7,55.1 -64.5,91.9 151.3,35.1 345.9,46.3 534.6,46.3 102.4,0 203.1,-3.3 294.2,-7.8 16.9,-0.8 33.8,-1.7 50.7,-2.7 l -236.8,-167"
         style="fill:#98d1bf;fill-opacity:1;fill-rule:nonzero;stroke:none"
         id="path418" /><path
         d="m 16831.6,13908.5 h -1200.4 l 13,9.1 h 1199.7 l -12.3,-9.1"
         style="fill:#666666;fill-opacity:1;fill-rule:nonzero;stroke:none"
         id="path420" /><path
         d="m 16502.7,14055.2 c -147.9,0 -237.7,5.6 -376.9,13.7 -81.8,4.8 -163,11 -244.8,15.7 l 1598.1,1126.5 h 1102 l -1533.8,-1142 c -64.2,-2.8 -129.6,-5.4 -196.6,-7.4 -151.6,-4.5 -260.1,-6.5 -348,-6.5"
         style="fill:#e5f5f8;fill-opacity:1;fill-rule:nonzero;stroke:none"
         id="path422" /><path
         d="m 16843.9,13917.6 h -1199.7 l 236.8,167 c 81.8,-4.7 163,-10.9 244.8,-15.7 139.2,-8.1 229,-13.7 376.9,-13.7 87.9,0 196.4,2 348,6.5 67,2 132.4,4.6 196.6,7.4 l -203.4,-151.5"
         style="fill:#c1e3d9;fill-opacity:1;fill-rule:nonzero;stroke:none"
         id="path424" /><path
         d="m 17328.6,14082.9 1519.1,1128.2 h 327.5 L 17751,14097.7 c -140.5,-1.6 -279.8,-7.8 -422.4,-14.8"
         style="fill:#e5f5f8;fill-opacity:1;fill-rule:nonzero;stroke:none"
         id="path426" /><path
         d="m 17520.8,13917.6 h -414.6 l 222.4,165.3 c 142.6,7 281.9,13.2 422.4,14.8 l -230.2,-180.1"
         style="fill:#c1e3d9;fill-opacity:1;fill-rule:nonzero;stroke:none"
         id="path428" /><path
         d="m 34970,2821.8 c -1607.5,320.5 -3729.1,406.3 -5222.6,421.2 -1619.1,16.1 -2874.4,-44.6 -2886.9,-45.2 -11,-0.5 -19.5,-9.9 -19,-20.9 0.6,-11.1 9.5,-19.3 21,-19 12.4,0.6 1266.9,61.2 2884.8,45.1 1492.8,-14.9 3609.3,-99.8 5214.1,-420.4 1.3,-0.3 7.3,-1.2 8.6,-1.2 v 40.4"
         style="fill:#000000;fill-opacity:1;fill-rule:nonzero;stroke:none"
         id="path430" /><path
         d="M 9737.18,3106.5 C 7312.38,3361.7 4793.23,3271.4 3106.9,3150.6 1321.46,3022.8 67.9492,2835 0,2824.7 v -40.2 c 1.00391,0 2.01953,0.1 3.03516,0.2 12.60934,1.9 1281.61484,195.4 3107.14484,326.1 1684.59,120.5 4201.06,210.8 6622.82,-44.1 10.98,-1.1 20.82,6.8 21.96,17.8 1.16,11 -6.8,20.9 -17.78,22"
         style="fill:#000000;fill-opacity:1;fill-rule:nonzero;stroke:none"
         id="path432" /><path
         d="M 34970,1188.7 H 0 v 70 h 34970 v -70"
         style="fill:#000000;fill-opacity:1;fill-rule:nonzero;stroke:none"
         id="path434" /></g></g></svg>
