<svg width="315" height="116" viewBox="0 0 315 116" fill="none" xmlns="http://www.w3.org/2000/svg">
<path d="M45.8342 115.05C33.1342 115.05 22.6342 112.1 14.3342 106.2C6.13418 100.2 1.68418 91.45 0.98418 79.95H36.3842C36.8842 86.05 39.5842 89.1 44.4842 89.1C46.2842 89.1 47.7842 88.7 48.9842 87.9C50.2842 87 50.9342 85.65 50.9342 83.85C50.9342 81.35 49.5842 79.35 46.8842 77.85C44.1842 76.25 39.9842 74.45 34.2842 72.45C27.4842 70.05 21.8342 67.7 17.3342 65.4C12.9342 63.1 9.13418 59.75 5.93418 55.35C2.73418 50.95 1.18418 45.3 1.28418 38.4C1.28418 31.5 3.03418 25.65 6.53418 20.85C10.1342 15.95 14.9842 12.25 21.0842 9.74999C27.2842 7.24999 34.2342 6 41.9342 6C54.9342 6 65.2342 9 72.8342 15C80.5342 21 84.5842 29.45 84.9842 40.35H49.1342C49.0342 37.35 48.2842 35.2 46.8842 33.9C45.4842 32.6 43.7842 31.95 41.7842 31.95C40.3842 31.95 39.2342 32.45 38.3342 33.45C37.4342 34.35 36.9842 35.65 36.9842 37.35C36.9842 39.75 38.2842 41.75 40.8842 43.35C43.5842 44.85 47.8342 46.7 53.6342 48.9C60.3342 51.4 65.8342 53.8 70.1342 56.1C74.5342 58.4 78.3342 61.6 81.5342 65.7C84.7342 69.8 86.3342 74.95 86.3342 81.15C86.3342 87.65 84.7342 93.5 81.5342 98.7C78.3342 103.8 73.6842 107.8 67.5842 110.7C61.4842 113.6 54.2342 115.05 45.8342 115.05ZM173.934 7.8V34.2H145.734V114H112.434V34.2H84.5342V7.8H173.934ZM228.866 114L208.916 75.9H208.766V114H175.466V7.8H224.966C233.566 7.8 240.916 9.35 247.016 12.45C253.116 15.45 257.666 19.6 260.666 24.9C263.766 30.1 265.316 36 265.316 42.6C265.316 49.7 263.316 56 259.316 61.5C255.416 67 249.766 70.95 242.366 73.35L265.466 114H228.866ZM208.766 53.7H221.966C225.166 53.7 227.566 53 229.166 51.6C230.766 50.1 231.566 47.8 231.566 44.7C231.566 41.9 230.716 39.7 229.016 38.1C227.416 36.5 225.066 35.7 221.966 35.7H208.766V53.7ZM313.304 0.749992L309.404 71.85H280.904L277.004 0.749992H313.304ZM295.154 115.2C289.354 115.2 284.704 113.65 281.204 110.55C277.704 107.45 275.954 103.55 275.954 98.85C275.954 94.05 277.704 90.1 281.204 87C284.704 83.8 289.354 82.2 295.154 82.2C300.854 82.2 305.454 83.8 308.954 87C312.454 90.1 314.204 94.05 314.204 98.85C314.204 103.55 312.454 107.45 308.954 110.55C305.454 113.65 300.854 115.2 295.154 115.2Z" fill="#00BCD4"/>
</svg>
