<svg width="213" height="76" viewBox="0 0 213 76" fill="none" xmlns="http://www.w3.org/2000/svg">
<path d="M41.5932 24C41.4038 21.6326 40.516 19.786 38.9299 18.4602C37.3674 17.1345 34.9881 16.4716 31.7921 16.4716C29.7561 16.4716 28.0871 16.7202 26.785 17.2173C25.5066 17.6908 24.5596 18.3419 23.9441 19.1705C23.3285 19.9991 23.0089 20.946 22.9853 22.0114C22.9379 22.8873 23.0918 23.6804 23.4469 24.3906C23.8257 25.0772 24.4176 25.7045 25.2225 26.2727C26.0274 26.8172 27.0572 27.3144 28.312 27.7642C29.5667 28.214 31.0582 28.6165 32.7864 28.9716L38.7523 30.25C42.7769 31.1023 46.2215 32.2268 49.0861 33.6236C51.9507 35.0204 54.2944 36.6657 56.1174 38.5597C57.9403 40.4299 59.2779 42.5369 60.1302 44.8807C61.0061 47.2244 61.4559 49.7812 61.4796 52.5511C61.4559 57.3333 60.2604 61.3816 57.8929 64.696C55.5255 68.0104 52.1401 70.5317 47.7367 72.2599C43.3569 73.9882 38.0894 74.8523 31.9341 74.8523C25.6131 74.8523 20.097 73.9171 15.3858 72.0469C10.6983 70.1766 7.0525 67.3002 4.44833 63.4176C1.86784 59.5114 0.565755 54.5161 0.542081 48.4318H19.2921C19.4105 50.6572 19.9668 52.5275 20.9611 54.0426C21.9554 55.5578 23.3522 56.706 25.1515 57.4872C26.9744 58.2685 29.1406 58.6591 31.65 58.6591C33.757 58.6591 35.5208 58.3987 36.9412 57.8778C38.3617 57.357 39.4389 56.6349 40.1728 55.7116C40.9067 54.7884 41.2855 53.7348 41.3091 52.5511C41.2855 51.4384 40.9185 50.4678 40.2083 49.6392C39.5217 48.7869 38.3854 48.0294 36.7992 47.3665C35.213 46.6799 33.0705 46.0407 30.3716 45.4489L23.1273 43.8864C16.6879 42.4896 11.6098 40.1577 7.89293 36.8906C4.19975 33.5999 2.365 29.1136 2.38867 23.4318C2.365 18.8153 3.59606 14.7789 6.08185 11.3224C8.59132 7.84233 12.0596 5.13163 16.4867 3.19034C20.9374 1.24905 26.0392 0.278406 31.7921 0.278406C37.6633 0.278406 42.7414 1.26089 47.0265 3.22585C51.3115 5.19081 54.6141 7.9607 56.9341 11.5355C59.2779 15.0866 60.4616 19.2415 60.4853 24H41.5932ZM62.0016 17.1818V1.27273H125.212V17.1818H103.337V74H83.8766V17.1818H62.0016ZM127.643 74V1.27273H159.035C164.432 1.27273 169.155 2.25521 173.204 4.22017C177.252 6.18513 180.401 9.0142 182.65 12.7074C184.899 16.4006 186.023 20.8276 186.023 25.9886C186.023 31.197 184.863 35.5885 182.543 39.1634C180.247 42.7382 177.015 45.437 172.849 47.2599C168.706 49.0829 163.864 49.9943 158.324 49.9943H139.574V34.6534H154.347C156.667 34.6534 158.644 34.3693 160.278 33.8011C161.935 33.2093 163.201 32.2741 164.077 30.9957C164.977 29.7173 165.427 28.0483 165.427 25.9886C165.427 23.9053 164.977 22.2126 164.077 20.9105C163.201 19.5848 161.935 18.6141 160.278 17.9986C158.644 17.3594 156.667 17.0398 154.347 17.0398H147.387V74H127.643ZM170.256 40.6193L188.438 74H166.989L149.233 40.6193H170.256ZM212.451 1.27273L210.604 51.2727H194.411L192.564 1.27273H212.451ZM202.508 75.1364C199.761 75.1364 197.406 74.1776 195.441 72.2599C193.5 70.3187 192.541 67.9631 192.564 65.1932C192.541 62.4943 193.5 60.1861 195.441 58.2685C197.406 56.3509 199.761 55.392 202.508 55.392C205.112 55.392 207.408 56.3509 209.397 58.2685C211.409 60.1861 212.427 62.4943 212.451 65.1932C212.427 67.0398 211.942 68.7206 210.995 70.2358C210.072 71.7273 208.864 72.9228 207.373 73.8224C205.881 74.6984 204.26 75.1364 202.508 75.1364Z" fill="url(#paint0_linear_1_2)"/>
<defs>
<linearGradient id="paint0_linear_1_2" x1="109" y1="-37" x2="109" y2="113" gradientUnits="userSpaceOnUse">
<stop stop-color="#00BCD4"/>
<stop offset="1" stop-color="#00ACC1"/>
</linearGradient>
</defs>
</svg>
