<svg width="197" height="111" viewBox="0 0 197 111" fill="none" xmlns="http://www.w3.org/2000/svg">
<path d="M33.9791 110.8C29.6791 110.8 25.4291 110.25 21.2291 109.15C17.1291 108.05 13.2791 106.5 9.6791 104.5C6.1791 102.4 3.1791 100 0.679102 97.3L13.7291 84.1C16.1291 86.7 18.9791 88.75 22.2791 90.25C25.5791 91.65 29.1791 92.35 33.0791 92.35C35.7791 92.35 37.8291 91.95 39.2291 91.15C40.7291 90.35 41.4791 89.25 41.4791 87.85C41.4791 86.05 40.5791 84.7 38.7791 83.8C37.0791 82.8 34.8791 81.95 32.1791 81.25C29.4791 80.45 26.6291 79.6 23.6291 78.7C20.6291 77.8 17.7791 76.55 15.0791 74.95C12.3791 73.35 10.1791 71.15 8.4791 68.35C6.7791 65.45 5.9291 61.8 5.9291 57.4C5.9291 52.7 7.1291 48.65 9.5291 45.25C11.9291 41.75 15.3291 39 19.7291 37C24.1291 35 29.2791 34 35.1791 34C41.3791 34 47.0791 35.1 52.2791 37.3C57.5791 39.4 61.8791 42.55 65.1791 46.75L52.1291 59.95C49.8291 57.25 47.2291 55.35 44.3291 54.25C41.5291 53.15 38.7791 52.6 36.0791 52.6C33.4791 52.6 31.5291 53 30.2291 53.8C28.9291 54.5 28.2791 55.55 28.2791 56.95C28.2791 58.45 29.1291 59.65 30.8291 60.55C32.5291 61.45 34.7291 62.25 37.4291 62.95C40.1291 63.65 42.9791 64.5 45.9791 65.5C48.9791 66.5 51.8291 67.85 54.5291 69.55C57.2291 71.25 59.4291 73.55 61.1291 76.45C62.8291 79.25 63.6791 82.95 63.6791 87.55C63.6791 94.65 60.9791 100.3 55.5791 104.5C50.2791 108.7 43.0791 110.8 33.9791 110.8ZM100.43 110.65C94.6303 110.65 89.5303 109.5 85.1303 107.2C80.8303 104.9 77.4803 101.6 75.0803 97.3C72.6803 93 71.4803 87.9 71.4803 82V5.94999H94.4303V82.15C94.4303 84.75 95.1303 86.7 96.5303 88C98.0303 89.3 99.7803 89.95 101.78 89.95C103.48 89.95 104.93 89.7 106.13 89.2C107.43 88.6 108.58 87.75 109.58 86.65L123.53 100.75C120.73 103.95 117.58 106.4 114.08 108.1C110.58 109.8 106.03 110.65 100.43 110.65ZM55.2803 55.75V36.1H118.28V55.75H55.2803ZM118.201 109V36.1H141.151V109H118.201ZM141.151 68.95L131.551 61.45C133.451 52.95 136.651 46.35 141.151 41.65C145.651 36.95 151.901 34.6 159.901 34.6C163.401 34.6 166.451 35.15 169.051 36.25C171.751 37.25 174.101 38.85 176.101 41.05L162.451 58.3C161.451 57.2 160.201 56.35 158.701 55.75C157.201 55.15 155.501 54.85 153.601 54.85C149.801 54.85 146.751 56.05 144.451 58.45C142.251 60.75 141.151 64.25 141.151 68.95ZM174.351 70.3L170.601 0.0999984H195.351L191.601 70.3H174.351ZM182.901 110.65C179.001 110.65 175.751 109.3 173.151 106.6C170.551 103.9 169.251 100.65 169.251 96.85C169.251 92.85 170.551 89.55 173.151 86.95C175.751 84.25 179.001 82.9 182.901 82.9C186.901 82.9 190.151 84.25 192.651 86.95C195.251 89.55 196.551 92.85 196.551 96.85C196.551 100.65 195.251 103.9 192.651 106.6C190.151 109.3 186.901 110.65 182.901 110.65Z" fill="#00BCD4"/>
</svg>
